# Blender v2.91.0 OBJ File: 'griffes_pied_arriere_droit.blend'
# www.blender.org
mtllib pique_pied_arriere_droit.mtl
o Cube.001
v -0.750600 2.105198 -1.070197
v -0.729760 2.106145 -1.069313
v -0.749920 2.093781 -1.095478
v -0.726940 2.096120 -1.090463
v -0.765198 2.076867 -1.061058
v -0.717533 2.079426 -1.053667
v -0.775210 1.838795 -0.783283
v -0.721739 1.840344 -0.781900
v -0.695015 1.814601 -0.819550
v -0.770281 2.044153 -1.046076
v -0.714273 2.046400 -1.033342
v -0.755554 2.065277 -1.011222
v -0.732355 2.065502 -1.011598
v -0.771289 2.052677 -1.024722
v -0.717077 2.053536 -1.018533
v -0.753040 2.042439 -1.063363
v -0.727510 2.044401 -1.056161
v -0.738269 2.097633 -1.097992
v -0.748368 2.118576 -1.102907
v -0.759645 2.086285 -1.083105
v -0.719004 2.089850 -1.074988
v -0.726699 2.120477 -1.100017
v -0.721817 2.096113 -1.062293
v -0.739856 2.109261 -1.072642
v -0.759784 2.094289 -1.065247
v -0.714069 1.761957 -0.898617
v -0.759562 1.760416 -0.905660
v -0.795676 1.779381 -0.887810
v -0.691902 1.781290 -0.872564
v -0.806768 1.812684 -0.829136
v -0.782129 1.769857 -0.902501
v -0.745036 1.840370 -0.779120
v -0.799905 1.831080 -0.798564
v -0.690805 1.793814 -0.848502
v -0.705128 1.833496 -0.794438
v -0.718032 2.046005 -1.045964
v -0.763948 2.042992 -1.058150
v -0.774527 2.032933 -1.023229
v -0.713508 2.033817 -1.012028
v -0.765828 2.060644 -1.015538
v -0.743414 2.066816 -1.010375
v -0.723276 2.061141 -1.014461
v -0.740060 2.042806 -1.062454
v -0.756163 2.102306 -1.086478
v -0.737231 2.124335 -1.107360
v -0.721761 2.104896 -1.081750
v -0.734651 1.756102 -0.902596
v -0.699318 1.772260 -0.889885
v -0.802968 1.792490 -0.862914
v -0.767288 1.951959 -0.881317
v -0.727535 1.952892 -0.880974
v -0.706117 1.937786 -0.909153
v -0.721746 1.904027 -0.972082
v -0.757064 1.903810 -0.981434
v -0.785208 1.918164 -0.966386
v -0.703609 1.917819 -0.948308
v -0.792152 1.937415 -0.918221
v -0.774261 1.911240 -0.979105
v -0.702665 1.925756 -0.929875
v -0.745438 1.953174 -0.877904
v -0.785497 1.947341 -0.893870
v -0.714296 1.948600 -0.891175
v -0.709714 1.911425 -0.962895
v -0.790856 1.926312 -0.945388
v -0.738074 1.900023 -0.977663
vt 0.188579 0.582066
vt 0.184707 0.579548
vt 0.185234 0.578876
vt 0.189260 0.581701
vt 0.190166 0.583800
vt 0.188599 0.583393
vt 0.187505 0.582338
vt 0.189351 0.580956
vt 0.185711 0.578249
vt 0.189119 0.579914
vt 0.190360 0.580552
vt 0.191379 0.581825
vt 0.188475 0.584662
vt 0.184378 0.584904
vt 0.187499 0.583880
vt 0.189308 0.585296
vt 0.184492 0.585820
vt 0.191349 0.580013
vt 0.189732 0.576215
vt 0.190799 0.575999
vt 0.192400 0.580541
vt 0.190194 0.579409
vt 0.186235 0.582803
vt 0.184163 0.583958
vt 0.183747 0.582948
vt 0.183697 0.581298
vt 0.184178 0.580332
vt 0.188831 0.578656
vt 0.187679 0.576324
vt 0.188686 0.576350
vt 0.186152 0.577600
vt 0.186571 0.576863
vt 0.186189 0.575420
vt 0.174585 0.573252
vt 0.173868 0.575031
vt 0.164149 0.570211
vt 0.165524 0.567564
vt 0.175452 0.571865
vt 0.176360 0.570881
vt 0.168118 0.564075
vt 0.169520 0.562656
vt 0.178735 0.568842
vt 0.177418 0.569980
vt 0.171387 0.560638
vt 0.180148 0.567779
vt 0.183854 0.565755
vt 0.186427 0.567586
vt 0.172478 0.584189
vt 0.173011 0.582672
vt 0.173144 0.581116
vt 0.173177 0.579347
vt 0.182355 0.581788
vt 0.181494 0.567103
vt 0.182740 0.566525
vt 0.173408 0.577190
vt 0.176514 0.556530
vt 0.177719 0.555369
vt 0.181758 0.559293
vt 0.160068 0.582731
vt 0.160903 0.580733
vt 0.170064 0.585648
vt 0.161365 0.578798
vt 0.175062 0.557478
vt 0.161879 0.576500
vt 0.162871 0.573414
vt 0.192140 0.583758
vt 0.166884 0.565507
vt 0.173355 0.558689
vt 0.178281 0.585995
vt 0.178800 0.554101
vt 0.159046 0.584760
vn -0.4800 0.7965 0.3676
vn -0.3383 0.7605 0.5542
vn 0.0035 0.7936 0.6084
vn -0.0715 0.8850 0.4600
vn -0.6821 0.5091 -0.5249
vn -0.9331 0.3053 -0.1901
vn -0.8391 0.5193 0.1620
vn 0.3504 0.8109 0.4685
vn 0.3288 0.7412 0.5852
vn 0.7642 0.5516 0.3342
vn 0.9449 0.3270 -0.0159
vn 0.7338 0.5857 -0.3442
vn -0.4472 -0.3224 -0.8343
vn -0.1791 -0.4930 -0.8514
vn -0.8715 -0.0923 -0.4815
vn 0.1934 -0.4066 -0.8929
vn 0.2585 -0.5097 -0.8206
vn 0.6861 -0.3225 -0.6521
vn 0.5855 -0.4244 -0.6907
vn 0.9615 -0.0609 -0.2681
vn -0.9821 0.1567 -0.1044
vn -0.6952 -0.2954 -0.6553
vn -0.9548 -0.0297 -0.2957
vn -0.9557 0.2881 0.0596
vn -0.7377 0.5751 0.3536
vn 0.9752 0.1964 0.1021
vn 0.9916 0.0053 -0.1288
vn 0.8650 -0.2271 -0.4472
vn 0.6671 0.5823 0.4646
vn 0.8950 0.3545 0.2709
vn 0.9842 0.1590 0.0784
vn -0.3543 0.6729 0.6494
vn -0.7925 0.4725 0.3856
vn -0.8133 0.4253 0.3969
vn -0.3486 0.6267 0.6969
vn -0.0098 0.7096 0.7045
vn 0.3789 0.6642 0.6444
vn 0.3696 0.6224 0.6899
vn 0.8204 0.4060 0.4027
vn 0.9588 0.2306 0.1656
vn 0.7880 0.4585 0.4110
vn 0.9738 0.1859 0.1311
vn 0.9950 0.0997 0.0043
vn 0.5478 -0.3842 -0.7431
vn 0.2313 -0.4657 -0.8541
vn -0.1207 -0.4823 -0.8676
vn -0.5866 -0.3716 -0.7196
vn -0.9039 -0.1498 -0.4007
vn -0.9873 0.0131 -0.1583
vn -0.9902 0.0891 -0.1074
vn 0.9787 -0.0366 -0.2020
vn 0.8354 -0.2282 -0.5000
vn -0.9833 0.1772 0.0409
vn 0.8061 -0.2299 -0.5453
vn 0.4573 -0.3941 -0.7972
vn -0.1115 -0.4597 -0.8810
vn -0.5510 -0.3730 -0.7464
vn -0.8972 -0.1636 -0.4102
vn 0.9782 -0.0300 -0.2051
vn -0.9830 -0.0171 -0.1826
vn -0.9927 0.1205 -0.0052
vn 0.0405 0.7091 -0.7039
vn -0.0243 0.6586 0.7521
vn 0.9963 0.0851 -0.0071
vn 0.1649 -0.4530 -0.8761
usemtl Game_dragon.001
s 1
f 1/1/1 12/2/2 41/3/3
f 1/1/1 24/4/4 19/5/5
f 1/1/1 19/5/5 44/6/6
f 1/1/1 25/7/7 12/2/2
f 2/8/8 13/9/9 23/10/10
f 2/8/8 23/10/10 46/11/11
f 2/8/8 22/12/12 24/4/4
f 2/8/8 24/4/4 41/3/3
f 3/13/13 16/14/14 20/15/15
f 3/13/13 20/15/15 44/6/6
f 3/13/13 19/5/5 18/16/16
f 3/13/13 18/16/16 43/17/17
f 4/18/18 17/19/19 43/20/17
f 4/18/18 18/21/16 22/12/12
f 4/18/18 22/12/12 46/11/11
f 4/18/18 21/22/20 17/19/19
f 5/23/21 20/15/15 37/24/22
f 5/23/21 10/25/23 14/26/24
f 5/23/21 14/26/24 40/27/25
f 5/23/21 25/7/7 20/15/15
f 6/28/26 11/29/27 36/30/28
f 6/28/26 21/22/20 23/10/10
f 6/28/26 23/10/10 42/31/29
f 6/28/26 15/32/30 39/33/31
f 50/34/32 61/35/33 33/36/34
f 50/34/32 7/37/35 60/38/36
f 51/39/37 8/40/38 35/41/39
f 51/39/37 60/38/36 8/40/38
f 52/42/40 62/43/41 9/44/42
f 52/42/40 9/44/42 59/45/43
f 53/46/44 65/47/45 17/19/19
f 53/46/44 17/19/19 36/30/28
f 54/48/46 58/49/47 16/14/14
f 54/48/46 16/14/14 43/17/17
f 55/50/48 64/51/49 38/52/50
f 55/50/48 10/25/23 58/49/47
f 56/53/51 63/54/52 11/29/27
f 56/53/51 11/29/27 39/33/31
f 50/34/32 60/38/36 41/3/3
f 50/34/32 12/2/2 61/35/33
f 51/39/37 62/43/41 13/9/9
f 51/39/37 13/9/9 41/3/3
f 57/55/53 61/35/33 40/27/25
f 57/55/53 14/26/24 38/52/50
f 52/42/40 59/45/43 39/33/31
f 52/42/40 15/32/30 42/31/29
f 53/46/44 63/54/52 48/56/54
f 53/46/44 26/57/55 65/58/45
f 54/48/46 27/59/56 31/60/57
f 54/48/46 65/61/45 27/59/56
f 55/50/48 28/62/58 64/51/49
f 55/50/48 58/49/47 31/60/57
f 56/53/51 59/45/43 29/63/59
f 56/53/51 29/63/59 48/56/54
f 57/55/53 64/51/49 49/64/60
f 57/55/53 30/65/61 61/35/33
f 24/4/4 1/1/1 41/3/3
f 24/4/4 45/66/62 19/5/5
f 25/7/7 1/1/1 44/6/6
f 25/7/7 40/27/25 12/2/2
f 13/9/9 42/31/29 23/10/10
f 22/12/12 2/8/8 46/11/11
f 22/12/12 45/66/62 24/4/4
f 13/9/9 2/8/8 41/3/3
f 16/14/14 37/24/22 20/15/15
f 19/5/5 3/13/13 44/6/6
f 19/5/5 45/66/62 18/16/16
f 16/14/14 3/13/13 43/17/17
f 18/21/16 4/18/18 43/20/17
f 18/21/16 45/66/62 22/12/12
f 21/22/20 4/18/18 46/11/11
f 21/22/20 36/30/28 17/19/19
f 10/25/23 5/23/21 37/24/22
f 10/25/23 38/52/50 14/26/24
f 25/7/7 5/23/21 40/27/25
f 25/7/7 44/6/6 20/15/15
f 21/22/20 6/28/26 36/30/28
f 21/22/20 46/11/11 23/10/10
f 15/32/30 6/28/26 42/31/29
f 11/29/27 6/28/26 39/33/31
f 7/37/35 50/34/32 33/36/34
f 7/37/35 32/67/63 60/38/36
f 62/43/41 51/39/37 35/41/39
f 60/38/36 32/67/63 8/40/38
f 62/43/41 35/41/39 9/44/42
f 9/44/42 34/68/64 59/45/43
f 65/47/45 43/20/17 17/19/19
f 63/54/52 53/46/44 36/30/28
f 58/49/47 37/24/22 16/14/14
f 65/69/45 54/48/46 43/17/17
f 10/25/23 55/50/48 38/52/50
f 10/25/23 37/24/22 58/49/47
f 63/54/52 36/30/28 11/29/27
f 59/45/43 56/53/51 39/33/31
f 12/2/2 50/34/32 41/3/3
f 12/2/2 40/27/25 61/35/33
f 62/43/41 42/31/29 13/9/9
f 60/38/36 51/39/37 41/3/3
f 14/26/24 57/55/53 40/27/25
f 64/51/49 57/55/53 38/52/50
f 15/32/30 52/42/40 39/33/31
f 62/43/41 52/42/40 42/31/29
f 26/57/55 53/46/44 48/56/54
f 26/57/55 47/70/65 65/58/45
f 58/49/47 54/48/46 31/60/57
f 65/61/45 47/71/65 27/59/56
f 28/62/58 49/64/60 64/51/49
f 28/62/58 55/50/48 31/60/57
f 59/45/43 34/68/64 29/63/59
f 63/54/52 56/53/51 48/56/54
f 30/65/61 57/55/53 49/64/60
f 30/65/61 33/36/34 61/35/33
