# Blender v2.91.0 OBJ File: ''
# www.blender.org
mtllib avant_bras_droit.mtl
o Soi_SimpleArmor.002_Plane.023
v -0.525795 1.134055 -0.011922
v -0.531907 1.159287 0.002843
v -0.542561 1.167152 -0.004425
v -0.535256 1.126531 -0.027759
v -0.552346 1.168219 -0.013062
v -0.567678 1.133346 -0.046671
v -0.571671 1.142029 -0.043759
v -0.505110 1.175905 -0.016523
v -0.525767 1.190348 -0.029307
v -0.540000 1.154347 -0.066141
v -0.395296 1.254874 -0.073092
v -0.407086 1.276449 -0.077561
v -0.420321 1.292149 -0.092603
v -0.395960 1.204631 -0.121042
v -0.371891 1.224930 -0.103815
v -0.438108 1.235793 -0.154729
v -0.444189 1.250200 -0.145601
v -0.412439 1.192654 -0.073046
v -0.458279 1.253094 -0.069719
v -0.474915 1.249937 -0.088692
v -0.524069 1.142963 -0.002796
v -0.526390 1.151381 0.002452
v -0.562105 1.162867 -0.026600
v -0.547479 1.125539 -0.039717
v -0.559253 1.127574 -0.045810
v -0.569622 1.153541 -0.037581
v -0.496089 1.159621 -0.020182
v -0.499998 1.167927 -0.015853
v -0.537416 1.186721 -0.044760
v -0.519032 1.140940 -0.060917
v -0.531066 1.146709 -0.065423
v -0.544649 1.176095 -0.058446
v -0.515291 1.186323 -0.021879
v -0.544105 1.163539 -0.063537
v -0.505178 1.140810 -0.046901
v -0.495570 1.150255 -0.028761
v -0.384211 1.242466 -0.074674
v -0.473848 1.197937 -0.038060
v -0.460689 1.180183 -0.042394
v -0.444395 1.278297 -0.109778
v -0.378044 1.232993 -0.082304
v -0.414661 1.204620 -0.141536
v -0.428741 1.220064 -0.153726
v -0.448213 1.264047 -0.129280
v -0.497651 1.170372 -0.091262
v -0.507182 1.180208 -0.092160
v -0.483644 1.211453 -0.042915
v -0.458111 1.169916 -0.049694
v -0.415912 1.204630 -0.063682
v -0.493478 1.217433 -0.049461
v -0.460803 1.197498 -0.122949
v -0.469376 1.157816 -0.070221
v -0.507218 1.214840 -0.065939
v -0.513086 1.190968 -0.089823
v -0.469453 1.211016 -0.124896
v -0.476500 1.222608 -0.119942
v -0.448872 1.184866 -0.115043
v -0.480789 1.236788 -0.108881
v -0.445286 1.244320 -0.063238
v -0.424416 1.213182 -0.058473
v -0.428611 1.179688 -0.097445
v -0.432628 1.226200 -0.058139
v -0.485861 1.161054 -0.086195
v -0.514683 1.203604 -0.082430
v -0.466319 1.187913 -0.038499
v -0.528870 1.137953 -0.013658
v -0.533287 1.156725 -0.001539
v -0.542089 1.163290 -0.007965
v -0.537341 1.131340 -0.027316
v -0.549965 1.163932 -0.014966
v -0.565324 1.134533 -0.042120
v -0.568237 1.141317 -0.039838
v -0.506601 1.173573 -0.020996
v -0.523718 1.186110 -0.031655
v -0.537605 1.155673 -0.061649
v -0.527439 1.145028 -0.006268
v -0.529221 1.151074 -0.001971
v -0.558563 1.158978 -0.026643
v -0.548198 1.130093 -0.037184
v -0.558412 1.130749 -0.041701
v -0.565626 1.150959 -0.035335
v -0.499388 1.161317 -0.023912
v -0.502739 1.167512 -0.020323
v -0.533966 1.182759 -0.045018
v -0.519582 1.145412 -0.058203
v -0.530118 1.149877 -0.061332
v -0.540599 1.173442 -0.056391
v -0.515188 1.182778 -0.025764
v -0.540559 1.162884 -0.059707
v -0.507308 1.145603 -0.046489
v -0.498720 1.153919 -0.030840
v -0.475392 1.195781 -0.042603
v -0.463916 1.181649 -0.046281
v -0.496449 1.173328 -0.087079
v -0.504716 1.181621 -0.087734
v -0.483753 1.208159 -0.047015
v -0.461304 1.173369 -0.052051
v -0.491734 1.213292 -0.052197
v -0.471559 1.162590 -0.069883
v -0.503873 1.210808 -0.066413
v -0.509500 1.190488 -0.086004
v -0.486238 1.165415 -0.083278
v -0.510615 1.200920 -0.080450
v -0.468992 1.187446 -0.043005
v -0.529371 1.150096 0.001298
v -0.527406 1.143013 -0.003457
v -0.528977 1.135210 -0.011559
v -0.537770 1.128119 -0.026117
v -0.548972 1.126715 -0.036918
v -0.559825 1.127737 -0.042402
v -0.567830 1.132621 -0.043236
v -0.571504 1.140906 -0.040436
v -0.568978 1.151610 -0.034843
v -0.561545 1.159895 -0.025097
v -0.552387 1.164825 -0.012684
v -0.543745 1.164019 -0.005016
v -0.534146 1.156882 0.001741
v -0.466999 1.203828 -0.087315
vt 0.000000 0.000000
vt 0.000000 0.000000
vt 0.000000 0.000000
vt 0.000000 0.000000
vt 0.000000 0.000000
vt 0.000000 0.000000
vt 0.000000 0.000000
vt 0.000000 0.000000
vt 0.000000 0.000000
vt 0.000000 0.000000
vt 0.000000 0.000000
vt 0.000000 0.000000
vt 0.000000 0.000000
vt 0.644657 0.013557
vt 0.644943 0.034919
vt 0.634368 0.032803
vt 0.635868 0.011216
vt 0.659054 0.014113
vt 0.660658 0.034770
vt 0.652235 0.035733
vt 0.651302 0.014674
vt 0.624586 0.029263
vt 0.628084 0.007491
vt 0.617846 0.025816
vt 0.622055 0.003799
vt 0.611207 0.002649
vt 0.605789 0.023717
vt 0.598007 0.023548
vt 0.603893 0.003158
vt 0.587264 0.021605
vt 0.594482 0.001953
vt 0.669409 0.013340
vt 0.671329 0.033757
vt 0.665792 0.033926
vt 0.664058 0.013840
vt 0.686696 0.008374
vt 0.690263 0.028933
vt 0.678248 0.032714
vt 0.676189 0.011750
vt 0.616827 0.002497
vt 0.612290 0.024203
vt 0.666796 0.090889
vt 0.672181 0.119865
vt 0.657893 0.125517
vt 0.654876 0.094147
vt 0.704795 0.076744
vt 0.714070 0.097536
vt 0.703635 0.114383
vt 0.689980 0.086379
vt 0.681943 0.089170
vt 0.690138 0.116194
vt 0.682241 0.118245
vt 0.674889 0.088764
vt 0.642974 0.128583
vt 0.645587 0.093499
vt 0.632107 0.088960
vt 0.628811 0.115299
vt 0.615903 0.110806
vt 0.618759 0.085268
vt 0.604274 0.109242
vt 0.608587 0.083346
vt 0.591977 0.078780
vt 0.585381 0.104038
vt 0.573182 0.099188
vt 0.581919 0.074841
vt 0.557828 0.097326
vt 0.566863 0.071508
vt 0.600536 0.082092
vt 0.594730 0.107374
vt 0.645367 0.061736
vt 0.633496 0.058988
vt 0.614032 0.052735
vt 0.607201 0.050915
vt 0.599579 0.049572
vt 0.590865 0.047684
vt 0.578298 0.044595
vt 0.621939 0.055442
vt 0.681909 0.057998
vt 0.674858 0.059344
vt 0.652758 0.061928
vt 0.669163 0.059158
vt 0.662215 0.059754
vt 0.695372 0.051981
vt 0.644657 0.013557
vt 0.635868 0.011216
vt 0.634368 0.032803
vt 0.644943 0.034919
vt 0.659054 0.014113
vt 0.651302 0.014674
vt 0.652235 0.035733
vt 0.660658 0.034770
vt 0.628084 0.007491
vt 0.624586 0.029263
vt 0.622055 0.003799
vt 0.617846 0.025816
vt 0.611207 0.002649
vt 0.603893 0.003158
vt 0.598007 0.023548
vt 0.605789 0.023717
vt 0.594482 0.001953
vt 0.587264 0.021605
vt 0.669409 0.013340
vt 0.664058 0.013840
vt 0.665792 0.033926
vt 0.671329 0.033757
vt 0.686696 0.008374
vt 0.676189 0.011750
vt 0.678248 0.032714
vt 0.690263 0.028933
vt 0.616827 0.002497
vt 0.612290 0.024203
vt 0.633496 0.058988
vt 0.645367 0.061736
vt 0.607201 0.050915
vt 0.614032 0.052735
vt 0.599579 0.049572
vt 0.590865 0.047684
vt 0.578298 0.044595
vt 0.621939 0.055442
vt 0.674858 0.059344
vt 0.681909 0.057998
vt 0.652758 0.061928
vt 0.669163 0.059158
vt 0.662215 0.059754
vt 0.695372 0.051981
vt 0.664058 0.013840
vt 0.669408 0.013340
vt 0.676189 0.011750
vt 0.594482 0.001953
vt 0.603893 0.003158
vt 0.611207 0.002649
vt 0.616827 0.002497
vt 0.622055 0.003799
vt 0.628084 0.007491
vt 0.635868 0.011216
vt 0.644657 0.013557
vt 0.651302 0.014674
vt 0.659054 0.014113
vt 0.695372 0.051981
vt 0.590865 0.047684
vt 0.662215 0.059754
vt 0.614032 0.052735
vt 0.652758 0.061928
vt 0.633496 0.058988
vt 0.674858 0.059344
vt 0.607201 0.050915
vt 0.621939 0.055442
vt 0.669163 0.059158
vt 0.599579 0.049572
vt 0.645367 0.061736
vt 0.681909 0.057998
vn 0.5903 0.4670 -0.6584
vn -0.4539 0.8145 0.3613
vn -0.3901 0.8056 0.4460
vn -0.6573 0.7521 0.0484
vn -0.6758 0.7370 0.0119
vn 0.2623 0.4870 0.8331
vn 0.2835 0.4432 0.8504
vn -0.0195 0.6739 0.7386
vn -0.0897 0.7342 0.6730
vn -0.7711 0.5024 -0.3912
vn -0.7639 0.4895 -0.4205
vn -0.6738 0.1222 -0.7288
vn -0.6585 0.1384 -0.7397
vn -0.1576 -0.6003 -0.7841
vn -0.1767 -0.6028 -0.7781
vn 0.1070 -0.8501 -0.5157
vn 0.1397 -0.8635 -0.4846
vn 0.4058 -0.9106 -0.0778
vn 0.3984 -0.9133 -0.0846
vn 0.6406 -0.3924 0.6600
vn 0.6272 -0.3226 0.7090
vn 0.5211 0.0789 0.8498
vn 0.5381 0.0584 0.8408
vn 0.5990 -0.6964 0.3953
vn 0.5850 -0.7408 0.3303
vn -0.4500 -0.2224 -0.8649
vn -0.4527 -0.2536 -0.8549
vn 0.2232 0.2589 0.9398
vn 0.6672 0.5937 0.4499
vn 0.4801 0.8101 0.3365
vn 0.0101 0.4680 0.8836
vn 0.4277 -0.8877 -0.1702
vn 0.7898 -0.3917 -0.4720
vn 0.9734 -0.1046 -0.2041
vn 0.6493 -0.6625 0.3735
vn 0.5798 -0.3028 0.7564
vn 0.9818 0.0411 0.1854
vn 0.8552 0.3561 0.3766
vn 0.4025 0.0159 0.9153
vn 0.2152 0.9749 0.0568
vn -0.3617 0.7112 0.6028
vn -0.6833 0.7274 0.0630
vn -0.1725 0.9390 -0.2974
vn -0.1445 0.7074 -0.6919
vn -0.7656 0.4898 -0.4170
vn -0.0768 0.4871 -0.8700
vn -0.6995 0.1498 -0.6988
vn -0.3127 -0.5356 -0.7844
vn 0.1667 -0.0500 -0.9847
vn 0.4353 -0.3405 -0.8334
vn 0.0284 -0.7971 -0.6032
vn -0.5567 -0.2056 -0.8049
vn -0.0126 0.2228 -0.9748
vn -0.3469 0.7480 0.5658
vn -0.6679 0.7393 0.0852
vn -0.6806 0.0844 -0.7278
vn -0.4870 -0.2609 -0.8335
vn -0.2615 -0.5435 -0.7976
vn 0.0369 -0.8057 -0.5912
vn 0.3925 -0.9117 -0.1214
vn -0.7798 0.4785 -0.4038
vn 0.5935 -0.6645 0.4541
vn 0.5647 -0.2529 0.7856
vn 0.0298 0.5547 0.8315
vn 0.4539 0.0789 0.8876
vn 0.2700 0.3558 0.8947
vn 0.1743 -0.9842 -0.0300
vn 0.3819 -0.8813 0.2784
vn 0.6567 -0.7525 -0.0505
vn 0.3896 -0.8051 -0.4472
vn -0.5435 -0.6722 -0.5028
vn -0.1584 -0.9202 -0.3579
vn 0.0152 -0.6712 -0.7411
vn -0.2816 -0.4467 -0.8492
vn 0.4049 -0.6167 0.6750
vn 0.7718 -0.5003 0.3925
vn 0.2505 -0.3186 0.9142
vn 0.6731 -0.1205 0.7297
vn -0.1147 0.2725 0.9553
vn -0.3899 0.5910 0.7062
vn -0.1033 0.8489 0.5183
vn 0.1737 0.6056 0.7766
vn -0.6610 0.6630 0.3513
vn -0.4045 0.9112 0.0780
vn -0.9096 0.1976 -0.3655
vn -0.8165 -0.2547 -0.5181
vn -0.5224 -0.0778 -0.8491
vn -0.6268 0.3189 -0.7109
vn -0.8557 0.5162 -0.0365
vn -0.5995 0.6932 -0.4001
vn 0.0961 -0.0872 0.9915
vn 0.4515 0.2541 0.8553
vn 0.3791 -0.9137 0.1466
vn 0.0299 -0.9608 -0.2757
vn 0.2708 0.1190 0.9553
vn 0.4435 -0.1967 0.8744
vn 0.0633 0.3570 0.9319
vn -0.2468 0.6128 0.7507
vn -0.6417 0.6976 0.3188
vn 0.5158 -0.6219 0.5893
vn -0.8578 -0.0924 -0.5055
vn -0.9091 0.3705 -0.1902
vn -0.3754 -0.7586 -0.5326
vn -0.6947 -0.3405 -0.6336
vn -0.5563 -0.5375 -0.6338
vn -0.6340 -0.5186 0.5736
vn -0.6900 -0.4866 0.5358
vn -0.6832 -0.4365 0.5854
vn -0.6253 -0.4500 0.6376
vn -0.4888 -0.5570 0.6715
vn -0.4340 -0.7208 0.5404
vn -0.6465 -0.6292 0.4315
vn -0.7635 -0.3256 0.5577
vn -0.6749 -0.2303 0.7010
vn -0.5902 -0.4232 0.6875
vn -0.6077 -0.4852 0.6288
vn -0.6624 -0.4669 0.5858
vn -0.6716 -0.4413 0.5951
vn -0.1921 -0.3945 0.8986
vn -0.3966 -0.0818 0.9144
vn -0.5912 0.0840 0.8021
vn -0.7416 0.0992 0.6634
vn -0.8463 0.1446 0.5127
vn -0.9376 0.1448 0.3161
vn -0.9870 -0.1571 0.0347
vn -0.7628 -0.6356 -0.1189
vn -0.3896 -0.9210 -0.0026
vn -0.2226 -0.9458 0.2365
vn -0.2290 -0.8706 0.4354
vn -0.1872 -0.7626 0.6191
vn -0.1424 -0.6270 0.7659
vn -0.6129 -0.4838 0.6247
usemtl Armour_Cloth_Battered.006
s off
f 26/1/1 23/2/1 5/3/1 3/4/1 2/5/1 22/6/1 21/7/1 1/8/1 4/9/1 24/10/1 25/11/1 6/12/1 7/13/1
usemtl Armour_Metal_Battered.006
s 1
f 5/14/2 9/15/3 29/16/4 23/17/5
f 2/18/6 8/19/7 33/20/8 3/21/9
f 23/17/5 29/16/4 32/22/10 26/23/11
f 26/23/11 32/22/10 34/24/12 7/25/13
f 25/26/14 31/27/15 30/28/16 24/29/17
f 24/29/17 30/28/16 35/30/18 4/31/19
f 21/32/20 27/33/21 28/34/22 22/35/23
f 22/35/23 28/34/22 8/19/7 2/18/6
f 4/36/19 35/37/18 36/38/24 1/39/25
f 6/40/26 10/41/27 31/27/15 25/26/14
f 3/21/9 33/20/8 9/15/3 5/14/2
f 1/39/25 36/38/24 27/33/21 21/32/20
f 7/25/13 34/24/12 10/41/27 6/40/26
f 62/42/28 11/43/29 12/44/30 59/45/31
f 61/46/32 14/47/33 15/48/34 18/49/35
f 49/50/36 41/51/37 37/52/38 60/53/39
f 60/53/39 37/52/38 11/43/29 62/42/28
f 59/45/31 12/44/30 13/54/40 19/55/41
f 18/49/35 15/48/34 41/51/37 49/50/36
f 20/56/42 40/57/43 44/58/44 58/59/45
f 58/59/45 44/58/44 17/60/46 56/61/47
f 51/62/48 43/63/49 42/64/50 57/65/51
f 57/65/51 42/64/50 14/66/33 61/67/32
f 55/68/52 16/69/53 43/63/49 51/62/48
f 56/61/47 17/60/46 16/69/53 55/68/52
f 19/55/41 13/54/40 40/57/43 20/56/42
f 9/15/3 50/70/54 53/71/55 29/16/4
f 50/70/54 19/55/41 20/56/42 53/71/55
f 54/72/56 56/61/47 55/68/52 46/73/57
f 34/24/12 54/72/56 46/73/57 10/41/27
f 10/41/27 46/73/57 45/74/58 31/27/15
f 46/73/57 55/68/52 51/62/48 45/74/58
f 31/27/15 45/74/58 63/75/59 30/28/16
f 45/74/58 51/62/48 57/65/51 63/75/59
f 63/75/59 57/65/51 61/67/32 52/76/60
f 30/28/16 63/75/59 52/76/60 35/30/18
f 29/16/4 53/71/55 64/77/61 32/22/10
f 53/71/55 20/56/42 58/59/45 64/77/61
f 64/77/61 58/59/45 56/61/47 54/72/56
f 32/22/10 64/77/61 54/72/56 34/24/12
f 36/38/24 48/78/62 39/79/63 27/33/21
f 48/78/62 18/49/35 49/50/36 39/79/63
f 47/80/64 59/45/31 19/55/41 50/70/54
f 33/20/8 47/80/64 50/70/54 9/15/3
f 27/33/21 39/79/63 65/81/65 28/34/22
f 39/79/63 49/50/36 60/53/39 65/81/65
f 65/81/65 60/53/39 62/42/28 38/82/66
f 28/34/22 65/81/65 38/82/66 8/19/7
f 52/83/60 61/46/32 18/49/35 48/78/62
f 35/37/18 52/83/60 48/78/62 36/38/24
f 38/82/66 62/42/28 59/45/31 47/80/64
f 8/19/7 38/82/66 47/80/64 33/20/8
f 70/84/67 78/85/68 84/86/69 74/87/70
f 67/88/71 68/89/72 88/90/73 73/91/74
f 78/85/68 81/92/75 87/93/76 84/86/69
f 81/92/75 72/94/77 89/95/78 87/93/76
f 80/96/79 79/97/80 85/98/81 86/99/82
f 79/97/80 69/100/83 90/101/84 85/98/81
f 76/102/85 77/103/86 83/104/87 82/105/88
f 77/103/86 67/88/71 73/91/74 83/104/87
f 69/106/83 66/107/89 91/108/90 90/109/84
f 71/110/91 80/96/79 86/99/82 75/111/92
f 68/89/72 70/84/67 74/87/70 88/90/73
f 66/107/89 76/102/85 82/105/88 91/108/90
f 72/94/77 71/110/91 75/111/92 89/95/78
f 74/87/70 84/86/69 100/112/93 98/113/94
f 89/95/78 75/111/92 95/114/95 101/115/96
f 75/111/92 86/99/82 94/116/97 95/114/95
f 86/99/82 85/98/81 102/117/98 94/116/97
f 85/98/81 90/101/84 99/118/99 102/117/98
f 84/86/69 87/93/76 103/119/100 100/112/93
f 87/93/76 89/95/78 101/115/96 103/119/100
f 91/108/90 82/105/88 93/120/101 97/121/102
f 88/90/73 74/87/70 98/113/94 96/122/103
f 82/105/88 83/104/87 104/123/104 93/120/101
f 83/104/87 73/91/74 92/124/105 104/123/104
f 90/109/84 91/108/90 97/121/102 99/125/99
f 73/91/74 88/90/73 96/122/103 92/124/105
f 105/126/106 77/103/86 76/102/85 106/127/107
f 107/128/108 106/127/107 76/102/85 66/107/89
f 108/129/109 107/128/108 66/107/89 69/100/83
f 109/130/110 108/129/109 69/100/83 79/97/80
f 110/131/111 109/130/110 79/97/80 80/96/79
f 111/132/112 110/131/111 80/96/79 71/110/91
f 112/133/113 111/132/112 71/110/91 72/94/77
f 113/134/114 112/133/113 72/94/77 81/92/75
f 114/135/115 113/134/114 81/92/75 78/85/68
f 115/136/116 114/135/115 78/85/68 70/84/67
f 116/137/117 115/136/116 70/84/67 68/89/72
f 117/138/118 116/137/117 68/89/72 67/88/71
f 105/126/106 117/138/118 67/88/71 77/103/86
f 22/35/119 2/18/120 117/138/118 105/126/106
f 2/18/120 3/21/121 116/137/117 117/138/118
f 3/21/121 5/14/122 115/136/116 116/137/117
f 5/14/122 23/17/123 114/135/115 115/136/116
f 23/17/123 26/23/124 113/134/114 114/135/115
f 26/23/124 7/25/125 112/133/113 113/134/114
f 7/25/125 6/40/126 111/132/112 112/133/113
f 6/40/126 25/26/127 110/131/111 111/132/112
f 25/26/127 24/29/128 109/130/110 110/131/111
f 24/29/128 4/31/129 108/129/109 109/130/110
f 4/31/129 1/39/130 107/128/108 108/129/109
f 1/39/130 21/32/131 106/127/107 107/128/108
f 22/35/119 105/126/106 106/127/107 21/32/131
f 99/125/99 97/121/102 118/139/132
f 102/117/98 99/118/99 118/140/132
f 92/124/105 96/122/103 118/141/132
f 101/115/96 95/114/95 118/142/132
f 96/122/103 98/113/94 118/143/132
f 100/112/93 103/119/100 118/144/132
f 93/120/101 104/123/104 118/145/132
f 95/114/95 94/116/97 118/146/132
f 103/119/100 101/115/96 118/147/132
f 104/123/104 92/124/105 118/148/132
f 94/116/97 102/117/98 118/149/132
f 98/113/94 100/112/93 118/150/132
f 97/121/102 93/120/101 118/151/132
f 11/43/29 37/52/38 41/51/37 15/48/34 14/47/33 42/64/50 43/63/49 16/69/53 17/60/46 44/58/44 40/57/43 13/54/40 12/44/30
