# Blender v2.91.0 OBJ File: ''
# www.blender.org
mtllib bas_tunique_2.mtl
o Soi_SimpleArmor.001_Plane.012
v -0.186003 0.711700 0.069406
v -0.214595 0.719340 0.029156
v -0.225606 0.728310 -0.009601
v -0.196017 0.769371 -0.133436
v -0.164124 0.781580 -0.164369
v -0.126770 0.790931 -0.186123
v -0.088712 0.797468 -0.200776
v -0.045822 0.801447 -0.203639
v -0.013407 0.804016 -0.203252
v -0.181413 0.794517 0.080171
v -0.207605 0.801886 0.038685
v -0.218162 0.809292 -0.002364
v -0.199822 0.841975 -0.106434
v -0.175297 0.853375 -0.142956
v -0.138396 0.864216 -0.171800
v -0.102035 0.870042 -0.186158
v -0.052850 0.875986 -0.196164
v -0.020412 0.878651 -0.192593
v -0.163265 0.907106 0.094946
v -0.197724 0.914774 0.056184
v -0.205380 0.921515 0.018706
v -0.206039 0.926703 -0.007780
v -0.184117 0.941942 -0.080570
v -0.164251 0.949596 -0.117505
v -0.130293 0.961396 -0.149948
v -0.098177 0.968572 -0.169170
v -0.054800 0.970119 -0.177093
v -0.025538 0.968153 -0.174587
v -0.216561 0.753619 -0.092010
v -0.211890 0.830507 -0.070091
v -0.228844 0.738169 -0.043582
v -0.219734 0.820108 -0.033418
v -0.199644 0.933730 -0.038966
v -0.172344 1.044052 0.039879
v -0.156818 1.042270 0.066734
v -0.180694 1.046653 0.014920
v -0.131187 1.039576 0.093743
v -0.180906 1.049964 -0.015015
v -0.175574 1.051955 -0.048835
v -0.157517 1.054713 -0.086620
v -0.132071 1.058142 -0.115779
v -0.101361 1.061161 -0.137227
v -0.067440 1.064078 -0.149949
v -0.030849 1.063997 -0.157211
v -0.133734 0.706062 0.097568
v -0.129965 0.788825 0.111080
v -0.116703 0.902258 0.124288
v -0.086000 1.037206 0.117643
v -0.183878 0.753094 0.074969
v -0.211101 0.760613 0.033921
v -0.173106 0.850824 0.088405
v -0.123942 0.845500 0.118649
v -0.132034 0.747404 0.104620
v -0.049181 0.838748 -0.200264
v -0.017194 0.841377 -0.198222
v -0.132945 0.827627 -0.179526
v -0.095499 0.833816 -0.193882
v -0.198522 0.805756 -0.120242
v -0.170324 0.817549 -0.154224
v -0.054007 0.923353 -0.188163
v -0.022529 0.923647 -0.184892
v -0.170571 0.901834 -0.130997
v -0.135187 0.913144 -0.162064
v -0.182719 0.974794 0.062204
v -0.192476 0.980525 0.029022
v -0.100670 0.919602 -0.179256
v -0.203618 0.858338 0.047918
v -0.212589 0.865468 0.008322
v -0.192676 0.892156 -0.093834
v -0.206414 0.882242 -0.054683
v -0.213562 0.873497 -0.020620
v -0.214571 0.792110 -0.081143
v -0.194631 0.986041 0.005927
v -0.190833 0.991509 -0.023898
v -0.154003 0.967924 0.096442
v -0.109620 0.962821 0.125556
v -0.180247 0.996618 -0.061709
v -0.028969 1.015868 -0.164010
v -0.062701 1.016873 -0.161885
v -0.100548 1.015350 -0.151025
v -0.131638 1.010232 -0.130485
v -0.161265 1.002197 -0.099157
v -0.221884 0.768801 -0.005983
v -0.224373 0.779148 -0.038503
v 0.186004 0.711701 0.069405
v 0.214596 0.719341 0.029156
v 0.225606 0.728310 -0.009602
v 0.196016 0.769371 -0.133436
v 0.164124 0.781580 -0.164369
v 0.126777 0.790930 -0.186118
v 0.089240 0.797453 -0.200531
v 0.049017 0.801400 -0.202861
v 0.018816 0.803989 -0.202805
v 0.181413 0.794517 0.080170
v 0.207606 0.801886 0.038684
v 0.218162 0.809293 -0.002364
v 0.199822 0.841974 -0.106433
v 0.175296 0.853374 -0.142956
v 0.138401 0.864215 -0.171796
v 0.102616 0.870022 -0.185830
v 0.056028 0.875932 -0.195261
v 0.024284 0.878624 -0.192134
v 0.163266 0.907106 0.094945
v 0.197725 0.914774 0.056184
v 0.205380 0.921515 0.018706
v 0.206039 0.926703 -0.007780
v 0.184117 0.941942 -0.080570
v 0.164246 0.949600 -0.117508
v 0.130292 0.961395 -0.149948
v 0.098095 0.968574 -0.169217
v 0.053298 0.970146 -0.177548
v 0.023327 0.968171 -0.174894
v 0.216561 0.753618 -0.092010
v 0.211890 0.830506 -0.070090
v 0.228844 0.738169 -0.043582
v 0.219734 0.820108 -0.033418
v 0.199644 0.933730 -0.038966
v 0.172344 1.044052 0.039879
v 0.156818 1.042270 0.066734
v 0.180694 1.046653 0.014920
v 0.131187 1.039576 0.093743
v 0.180892 1.049976 -0.015023
v 0.175327 1.052172 -0.048826
v 0.156634 1.055488 -0.086375
v 0.130342 1.059658 -0.114967
v 0.099137 1.063105 -0.135786
v 0.064867 1.066253 -0.147875
v 0.025914 1.067499 -0.153104
v 0.133735 0.706063 0.097566
v 0.129966 0.788826 0.111078
v 0.116704 0.902259 0.124286
v 0.086000 1.037206 0.117643
v 0.002239 0.879803 -0.190698
v 0.002348 0.804070 -0.200563
v -0.001332 0.967942 -0.173371
v -0.003200 1.067447 -0.155699
v 0.183878 0.753095 0.074968
v 0.211102 0.760613 0.033920
v 0.173107 0.850824 0.088403
v 0.123943 0.845501 0.118647
v 0.132035 0.747404 0.104618
v 0.052692 0.838693 -0.199340
v 0.021577 0.841350 -0.197779
v 0.132964 0.827625 -0.179511
v 0.096174 0.833794 -0.193536
v 0.198522 0.805755 -0.120241
v 0.170324 0.817549 -0.154224
v 0.002570 0.841973 -0.195905
v 0.054957 0.923336 -0.187886
v 0.024450 0.923632 -0.184646
v 0.170571 0.901834 -0.130996
v 0.135187 0.913143 -0.162064
v 0.182719 0.974795 0.062204
v 0.192476 0.980525 0.029022
v 0.000914 0.924084 -0.183113
v 0.100819 0.919597 -0.179171
v 0.203618 0.858339 0.047917
v 0.212589 0.865468 0.008322
v 0.192676 0.892155 -0.093834
v 0.206414 0.882242 -0.054683
v 0.213563 0.873497 -0.020620
v 0.214571 0.792110 -0.081143
v 0.194714 0.985971 0.005345
v 0.190720 0.991610 -0.024296
v 0.154003 0.967924 0.096441
v 0.109621 0.962822 0.125554
v 0.180141 0.996712 -0.061806
v 0.023538 1.016276 -0.164484
v -0.002511 1.016359 -0.164076
v 0.059759 1.017851 -0.161993
v 0.100192 1.015440 -0.151168
v 0.131926 1.009972 -0.130514
v 0.161345 1.002127 -0.099133
v 0.221884 0.768801 -0.005983
v 0.224373 0.779148 -0.038503
vt 0.041580 0.041523
vt 0.064126 0.048756
vt 0.055981 0.075467
vt 0.033433 0.068571
vt 0.107111 0.026465
vt 0.095182 0.056759
vt 0.075860 0.016655
vt 0.052985 0.009304
vt 0.019033 0.034290
vt 0.030111 0.001953
vt 0.026777 0.261746
vt 0.047727 0.260813
vt 0.048678 0.282892
vt 0.027641 0.283723
vt 0.025398 0.212915
vt 0.046417 0.211433
vt 0.046804 0.232968
vt 0.025930 0.235478
vt 0.024280 0.161555
vt 0.046021 0.160555
vt 0.045582 0.185321
vt 0.024493 0.187187
vt 0.049193 0.302403
vt 0.027932 0.302403
vt 0.073487 0.261795
vt 0.099247 0.262776
vt 0.098069 0.282937
vt 0.073373 0.282915
vt 0.072499 0.188650
vt 0.099417 0.191979
vt 0.099718 0.217875
vt 0.073067 0.214654
vt 0.150076 0.100972
vt 0.183239 0.110034
vt 0.177995 0.126861
vt 0.144822 0.119614
vt 0.097974 0.302403
vt 0.073583 0.302403
vt 0.100082 0.238168
vt 0.073443 0.235568
vt 0.086447 0.083689
vt 0.116912 0.091911
vt 0.111648 0.112366
vt 0.080795 0.105559
vt 0.074193 0.164705
vt 0.102364 0.168856
vt 0.126238 0.064761
vt 0.076444 0.141509
vt 0.106101 0.144461
vt 0.108665 0.126827
vt 0.078677 0.121938
vt 0.024370 0.136581
vt 0.046788 0.138556
vt 0.141681 0.134082
vt 0.174697 0.141338
vt 0.172028 0.158042
vt 0.139064 0.151251
vt 0.158175 0.077425
vt 0.190113 0.090089
vt 0.170016 0.049923
vt 0.201669 0.063571
vt 0.168504 0.177012
vt 0.135434 0.172934
vt 0.130302 0.284169
vt 0.162534 0.285400
vt 0.162943 0.302403
vt 0.130458 0.302403
vt 0.131316 0.263453
vt 0.163384 0.264130
vt 0.131556 0.240913
vt 0.163031 0.243659
vt 0.131725 0.220115
vt 0.163732 0.222355
vt 0.132367 0.196228
vt 0.165317 0.200476
vt 0.028000 0.091722
vt 0.049943 0.098752
vt 0.048689 0.117049
vt 0.026128 0.110911
vt 0.010885 0.061675
vt 0.006057 0.084692
vt 0.001953 0.134606
vt 0.003568 0.104773
vt 0.138362 0.036274
vt 0.002539 0.162556
vt 0.003405 0.189053
vt 0.004379 0.214398
vt 0.005056 0.237987
vt 0.005827 0.262680
vt 0.006603 0.284554
vt 0.006672 0.302403
vt 0.041580 0.563282
vt 0.033433 0.536235
vt 0.055981 0.529339
vt 0.064126 0.556049
vt 0.107111 0.578341
vt 0.075860 0.588150
vt 0.095182 0.548047
vt 0.052985 0.595501
vt 0.030111 0.602852
vt 0.019033 0.570516
vt 0.026777 0.343059
vt 0.027640 0.321082
vt 0.048678 0.321913
vt 0.047727 0.343992
vt 0.025398 0.391890
vt 0.025930 0.369328
vt 0.046804 0.371837
vt 0.046417 0.393373
vt 0.024280 0.443250
vt 0.024493 0.417618
vt 0.045582 0.419484
vt 0.046021 0.444250
vt 0.073487 0.343010
vt 0.073373 0.321891
vt 0.098069 0.321868
vt 0.099247 0.342029
vt 0.072499 0.416155
vt 0.073067 0.390152
vt 0.099718 0.386931
vt 0.099417 0.412826
vt 0.150076 0.503833
vt 0.144822 0.485192
vt 0.177995 0.477944
vt 0.183239 0.494771
vt 0.073443 0.369237
vt 0.100082 0.366638
vt 0.086447 0.521117
vt 0.080795 0.499246
vt 0.111648 0.492439
vt 0.116912 0.512895
vt 0.074192 0.440100
vt 0.102364 0.435950
vt 0.126238 0.540044
vt 0.076444 0.463297
vt 0.106101 0.460345
vt 0.078677 0.482868
vt 0.108665 0.477979
vt 0.024370 0.468224
vt 0.046787 0.466249
vt 0.141681 0.470723
vt 0.139064 0.453554
vt 0.172028 0.446764
vt 0.174697 0.463467
vt 0.158175 0.527380
vt 0.190113 0.514717
vt 0.201669 0.541234
vt 0.170016 0.554883
vt 0.135434 0.431871
vt 0.168503 0.427793
vt 0.130301 0.320637
vt 0.162534 0.319405
vt 0.131316 0.341352
vt 0.163384 0.340675
vt 0.131556 0.363892
vt 0.163030 0.361146
vt 0.131725 0.384691
vt 0.163732 0.382451
vt 0.132367 0.408578
vt 0.165317 0.404329
vt 0.028000 0.513084
vt 0.026128 0.493895
vt 0.048689 0.487757
vt 0.049943 0.506054
vt 0.010885 0.543130
vt 0.006057 0.520114
vt 0.001953 0.470199
vt 0.003568 0.500033
vt 0.138362 0.568531
vt 0.002539 0.442249
vt 0.003405 0.415753
vt 0.004379 0.390408
vt 0.005056 0.366818
vt 0.005827 0.342126
vt 0.006603 0.320251
vn -0.6854 -0.0567 0.7259
vn -0.6945 -0.0376 0.7185
vn -0.9123 0.0242 0.4087
vn -0.9082 0.0240 0.4178
vn -0.5263 -0.0312 0.8497
vn -0.6727 -0.0104 0.7399
vn -0.5173 -0.0719 0.8528
vn -0.5016 -0.1005 0.8592
vn -0.6765 -0.0634 0.7337
vn -0.4916 -0.1090 0.8640
vn -0.0483 0.1266 -0.9908
vn -0.0579 0.1479 -0.9873
vn 0.0842 0.1561 -0.9842
vn 0.0823 0.1326 -0.9878
vn -0.4796 0.1144 -0.8700
vn -0.5308 0.1619 -0.8319
vn -0.3069 0.1471 -0.9403
vn -0.2645 0.1231 -0.9565
vn -0.8678 0.1219 -0.4818
vn -0.8999 0.1657 -0.4033
vn -0.7497 0.1723 -0.6389
vn -0.6875 0.1172 -0.7166
vn 0.0078 0.1578 -0.9874
vn 0.0103 0.1398 -0.9901
vn -0.0513 0.1936 -0.9797
vn -0.0707 0.2556 -0.9642
vn 0.0505 0.2302 -0.9718
vn 0.0819 0.1991 -0.9765
vn -0.7778 0.2384 -0.5816
vn -0.7977 0.2447 -0.5511
vn -0.6177 0.2582 -0.7428
vn -0.5774 0.2203 -0.7862
vn -0.8374 0.2006 0.5084
vn -0.7913 0.2517 0.5572
vn -0.9105 0.2441 0.3338
vn -0.9445 0.2125 0.2506
vn -0.0037 0.2103 -0.9776
vn 0.0029 0.1943 -0.9809
vn -0.3660 0.2639 -0.8924
vn -0.3368 0.1932 -0.9215
vn -0.9036 0.0359 0.4269
vn -0.8832 0.1002 0.4581
vn -0.9768 0.1412 0.1610
vn -0.9854 0.0818 0.1494
vn -0.9026 0.2224 -0.3685
vn -0.9074 0.2181 -0.3592
vn -0.6494 0.0426 0.7593
vn -0.9575 0.1860 -0.2207
vn -0.9574 0.1970 -0.2113
vn -0.9850 0.1698 -0.0321
vn -0.9895 0.1362 -0.0493
vn -0.9558 0.1207 -0.2681
vn -0.9614 0.1476 -0.2320
vn -0.9780 0.2023 0.0507
vn -0.9703 0.2129 0.1146
vn -0.9768 0.1827 -0.1116
vn -0.9698 0.1888 -0.1546
vn -0.6288 0.1537 0.7623
vn -0.5908 0.2285 0.7738
vn -0.5108 0.1377 0.8486
vn -0.4840 0.2155 0.8481
vn -0.9385 0.1662 -0.3026
vn -0.9261 0.1819 -0.3305
vn -0.0164 0.2025 -0.9791
vn -0.0556 0.1675 -0.9843
vn 0.0277 0.1710 -0.9849
vn 0.0097 0.1859 -0.9825
vn -0.1683 0.2493 -0.9537
vn -0.2306 0.2122 -0.9496
vn -0.4241 0.2684 -0.8649
vn -0.4520 0.2363 -0.8602
vn -0.6522 0.2437 -0.7178
vn -0.6664 0.2155 -0.7137
vn -0.8198 0.2075 -0.5337
vn -0.8284 0.1842 -0.5290
vn -0.9794 0.0735 0.1883
vn -0.9835 0.0710 0.1665
vn -0.9919 0.1168 -0.0508
vn -0.9932 0.1073 -0.0448
vn -0.9020 0.0200 0.4312
vn -0.9765 0.0706 0.2035
vn -0.9515 0.1174 -0.2845
vn -0.9944 0.1027 -0.0260
vn -0.5329 0.0217 0.8459
vn -0.8449 0.1186 -0.5216
vn -0.6518 0.1094 -0.7505
vn -0.4603 0.1017 -0.8819
vn -0.2379 0.1146 -0.9645
vn -0.0429 0.1184 -0.9920
vn 0.0838 0.1241 -0.9887
vn 0.0128 0.1330 -0.9910
vn 0.6854 -0.0567 0.7259
vn 0.9082 0.0240 0.4178
vn 0.9123 0.0242 0.4087
vn 0.6945 -0.0376 0.7185
vn 0.5263 -0.0312 0.8497
vn 0.5173 -0.0719 0.8528
vn 0.6727 -0.0104 0.7399
vn 0.5016 -0.1005 0.8592
vn 0.4916 -0.1090 0.8640
vn 0.6765 -0.0634 0.7337
vn 0.0533 0.1273 -0.9904
vn -0.0659 0.1315 -0.9891
vn -0.0722 0.1505 -0.9860
vn 0.0634 0.1436 -0.9876
vn 0.4790 0.1147 -0.8703
vn 0.2625 0.1245 -0.9569
vn 0.3060 0.1466 -0.9407
vn 0.5303 0.1619 -0.8322
vn 0.8678 0.1219 -0.4818
vn 0.6875 0.1172 -0.7166
vn 0.7497 0.1723 -0.6389
vn 0.8999 0.1657 -0.4033
vn 0.0520 0.1838 -0.9816
vn -0.0784 0.1866 -0.9793
vn -0.0545 0.2212 -0.9737
vn 0.0690 0.2501 -0.9658
vn 0.7778 0.2384 -0.5816
vn 0.5772 0.2202 -0.7864
vn 0.6174 0.2578 -0.7432
vn 0.7981 0.2441 -0.5509
vn 0.8374 0.2006 0.5084
vn 0.9445 0.2124 0.2505
vn 0.9107 0.2440 0.3332
vn 0.7913 0.2517 0.5572
vn 0.3367 0.1915 -0.9220
vn 0.3650 0.2640 -0.8928
vn 0.9036 0.0359 0.4269
vn 0.9854 0.0818 0.1494
vn 0.9768 0.1411 0.1611
vn 0.8832 0.1002 0.4581
vn 0.9026 0.2224 -0.3686
vn 0.9075 0.2181 -0.3591
vn 0.6494 0.0426 0.7593
vn 0.9575 0.1860 -0.2207
vn 0.9572 0.1970 -0.2120
vn 0.9895 0.1362 -0.0493
vn 0.9850 0.1697 -0.0325
vn 0.9558 0.1207 -0.2681
vn 0.9614 0.1476 -0.2320
vn 0.9782 0.2023 0.0479
vn 0.9692 0.1893 -0.1574
vn 0.9763 0.1838 -0.1144
vn 0.9704 0.2131 0.1131
vn 0.6288 0.1537 0.7623
vn 0.5908 0.2285 0.7738
vn 0.4840 0.2155 0.8481
vn 0.5108 0.1377 0.8486
vn 0.9249 0.1848 -0.3323
vn 0.9362 0.1715 -0.3068
vn 0.0192 0.2230 -0.9746
vn 0.0697 0.2154 -0.9740
vn 0.1550 0.2722 -0.9497
vn 0.2074 0.2565 -0.9440
vn 0.4164 0.2859 -0.8631
vn 0.4356 0.2695 -0.8588
vn 0.6483 0.2570 -0.7167
vn 0.6551 0.2436 -0.7151
vn 0.8178 0.2146 -0.5339
vn 0.8219 0.2005 -0.5332
vn 0.9794 0.0735 0.1883
vn 0.9932 0.1073 -0.0448
vn 0.9919 0.1168 -0.0508
vn 0.9835 0.0710 0.1665
vn 0.9020 0.0200 0.4312
vn 0.9765 0.0706 0.2035
vn 0.9515 0.1174 -0.2845
vn 0.9944 0.1027 -0.0260
vn 0.5329 0.0217 0.8459
vn 0.8449 0.1186 -0.5216
vn 0.6518 0.1094 -0.7505
vn 0.4599 0.1022 -0.8821
vn 0.2347 0.1168 -0.9650
vn 0.0461 0.1203 -0.9917
vn -0.0646 0.1234 -0.9902
usemtl Armour_Metal_Battered.007
s 1
f 49/1/1 10/2/2 11/3/3 50/4/4
f 52/5/5 51/6/6 10/2/2 46/7/7
f 53/8/8 49/1/1 1/9/9 45/10/10
f 54/11/11 17/12/12 18/13/13 55/14/14
f 56/15/15 15/16/16 16/17/17 57/18/18
f 58/19/19 13/20/20 14/21/21 59/22/22
f 55/14/14 18/13/13 133/23/23 148/24/24
f 57/18/18 16/17/17 17/12/12 54/11/11
f 60/25/25 27/26/26 28/27/27 61/28/28
f 62/29/29 24/30/30 25/31/31 63/32/32
f 64/33/33 35/34/34 34/35/35 65/36/36
f 61/28/28 28/27/27 135/37/37 155/38/38
f 63/32/32 25/31/31 26/39/39 66/40/40
f 59/22/22 14/21/21 15/16/16 56/15/15
f 66/40/40 26/39/39 27/26/26 60/25/25
f 67/41/41 20/42/42 21/43/43 68/44/44
f 69/45/45 23/46/46 24/30/30 62/29/29
f 51/6/6 19/47/47 20/42/42 67/41/41
f 70/48/48 33/49/49 23/46/46 69/45/45
f 68/44/44 21/43/43 22/50/50 71/51/51
f 72/52/52 30/53/53 13/20/20 58/19/19
f 70/48/48 71/51/51 22/50/50 33/49/49
f 73/54/54 36/55/55 38/56/56 74/57/57
f 75/58/58 37/59/59 35/34/34 64/33/33
f 75/58/58 76/60/60 48/61/61 37/59/59
f 65/36/36 34/35/35 36/55/55 73/54/54
f 74/57/57 38/56/56 39/62/62 77/63/63
f 78/64/64 44/65/65 136/66/66 169/67/67
f 79/68/68 43/69/69 44/65/65 78/64/64
f 80/70/70 42/71/71 43/69/69 79/68/68
f 81/72/72 41/73/73 42/71/71 80/70/70
f 82/74/74 40/75/75 41/73/73 81/72/72
f 77/63/63 39/62/62 40/75/75 82/74/74
f 83/76/76 12/77/77 32/78/78 84/79/79
f 72/52/52 84/79/79 32/78/78 30/53/53
f 50/4/4 11/3/3 12/77/77 83/76/76
f 2/80/80 50/4/4 83/76/76 3/81/81
f 29/82/82 31/83/83 84/79/79 72/52/52
f 3/81/81 83/76/76 84/79/79 31/83/83
f 23/46/46 77/63/63 82/74/74 24/30/30
f 24/30/30 82/74/74 81/72/72 25/31/31
f 25/31/31 81/72/72 80/70/70 26/39/39
f 26/39/39 80/70/70 79/68/68 27/26/26
f 27/26/26 79/68/68 78/64/64 28/27/27
f 28/27/27 78/64/64 169/67/67 135/37/37
f 33/49/49 74/57/57 77/63/63 23/46/46
f 21/43/43 65/36/36 73/54/54 22/50/50
f 19/47/47 47/84/84 76/60/60 75/58/58
f 19/47/47 75/58/58 64/33/33 20/42/42
f 22/50/50 73/54/54 74/57/57 33/49/49
f 30/53/53 32/78/78 71/51/51 70/48/48
f 29/82/82 72/52/52 58/19/19 4/85/85
f 12/77/77 68/44/44 71/51/51 32/78/78
f 30/53/53 70/48/48 69/45/45 13/20/20
f 10/2/2 51/6/6 67/41/41 11/3/3
f 13/20/20 69/45/45 62/29/29 14/21/21
f 11/3/3 67/41/41 68/44/44 12/77/77
f 16/17/17 66/40/40 60/25/25 17/12/12
f 5/86/86 59/22/22 56/15/15 6/87/87
f 15/16/16 63/32/32 66/40/40 16/17/17
f 18/13/13 61/28/28 155/38/38 133/23/23
f 20/42/42 64/33/33 65/36/36 21/43/43
f 14/21/21 62/29/29 63/32/32 15/16/16
f 17/12/12 60/25/25 61/28/28 18/13/13
f 7/88/88 57/18/18 54/11/11 8/89/89
f 9/90/90 55/14/14 148/24/24 134/91/91
f 4/85/85 58/19/19 59/22/22 5/86/86
f 6/87/87 56/15/15 57/18/18 7/88/88
f 8/89/89 54/11/11 55/14/14 9/90/90
f 46/7/7 10/2/2 49/1/1 53/8/8
f 47/84/84 19/47/47 51/6/6 52/5/5
f 1/9/9 49/1/1 50/4/4 2/80/80
f 137/92/92 138/93/93 95/94/94 94/95/95
f 140/96/96 130/97/97 94/95/95 139/98/98
f 141/99/99 129/100/100 85/101/101 137/92/92
f 142/102/102 143/103/103 102/104/104 101/105/105
f 144/106/106 145/107/107 100/108/108 99/109/109
f 146/110/110 147/111/111 98/112/112 97/113/113
f 143/103/103 148/24/24 133/23/23 102/104/104
f 145/107/107 142/102/102 101/105/105 100/108/108
f 149/114/114 150/115/115 112/116/116 111/117/117
f 151/118/118 152/119/119 109/120/120 108/121/121
f 153/122/122 154/123/123 118/124/124 119/125/125
f 150/115/115 155/38/38 135/37/37 112/116/116
f 152/119/119 156/126/126 110/127/127 109/120/120
f 147/111/111 144/106/106 99/109/109 98/112/112
f 156/126/126 149/114/114 111/117/117 110/127/127
f 157/128/128 158/129/129 105/130/130 104/131/131
f 159/132/132 151/118/118 108/121/121 107/133/133
f 139/98/98 157/128/128 104/131/131 103/134/134
f 160/135/135 159/132/132 107/133/133 117/136/136
f 158/129/129 161/137/137 106/138/138 105/130/130
f 162/139/139 146/110/110 97/113/113 114/140/140
f 160/135/135 117/136/136 106/138/138 161/137/137
f 163/141/141 164/142/142 122/143/143 120/144/144
f 165/145/145 153/122/122 119/125/125 121/146/146
f 165/145/145 121/146/146 132/147/147 166/148/148
f 154/123/123 163/141/141 120/144/144 118/124/124
f 164/142/142 167/149/149 123/150/150 122/143/143
f 168/151/151 169/67/67 136/66/66 128/152/152
f 170/153/153 168/151/151 128/152/152 127/154/154
f 171/155/155 170/153/153 127/154/154 126/156/156
f 172/157/157 171/155/155 126/156/156 125/158/158
f 173/159/159 172/157/157 125/158/158 124/160/160
f 167/149/149 173/159/159 124/160/160 123/150/150
f 174/161/161 175/162/162 116/163/163 96/164/164
f 162/139/139 114/140/140 116/163/163 175/162/162
f 138/93/93 174/161/161 96/164/164 95/94/94
f 86/165/165 87/166/166 174/161/161 138/93/93
f 113/167/167 162/139/139 175/162/162 115/168/168
f 87/166/166 115/168/168 175/162/162 174/161/161
f 107/133/133 108/121/121 173/159/159 167/149/149
f 108/121/121 109/120/120 172/157/157 173/159/159
f 109/120/120 110/127/127 171/155/155 172/157/157
f 110/127/127 111/117/117 170/153/153 171/155/155
f 111/117/117 112/116/116 168/151/151 170/153/153
f 112/116/116 135/37/37 169/67/67 168/151/151
f 117/136/136 107/133/133 167/149/149 164/142/142
f 105/130/130 106/138/138 163/141/141 154/123/123
f 103/134/134 165/145/145 166/148/148 131/169/169
f 103/134/134 104/131/131 153/122/122 165/145/145
f 106/138/138 117/136/136 164/142/142 163/141/141
f 114/140/140 160/135/135 161/137/137 116/163/163
f 113/167/167 88/170/170 146/110/110 162/139/139
f 96/164/164 116/163/163 161/137/137 158/129/129
f 114/140/140 97/113/113 159/132/132 160/135/135
f 94/95/95 95/94/94 157/128/128 139/98/98
f 97/113/113 98/112/112 151/118/118 159/132/132
f 95/94/94 96/164/164 158/129/129 157/128/128
f 100/108/108 101/105/105 149/114/114 156/126/126
f 89/171/171 90/172/172 144/106/106 147/111/111
f 99/109/109 100/108/108 156/126/126 152/119/119
f 102/104/104 133/23/23 155/38/38 150/115/115
f 104/131/131 105/130/130 154/123/123 153/122/122
f 98/112/112 99/109/109 152/119/119 151/118/118
f 101/105/105 102/104/104 150/115/115 149/114/114
f 91/173/173 92/174/174 142/102/102 145/107/107
f 93/175/175 134/91/91 148/24/24 143/103/103
f 88/170/170 89/171/171 147/111/111 146/110/110
f 90/172/172 91/173/173 145/107/107 144/106/106
f 92/174/174 93/175/175 143/103/103 142/102/102
f 130/97/97 141/99/99 137/92/92 94/95/95
f 131/169/169 140/96/96 139/98/98 103/134/134
f 85/101/101 86/165/165 138/93/93 137/92/92
