# Blender v2.91.0 OBJ File: ''
# www.blender.org
mtllib bas_capuche.mtl
o Soi_SimpleArmor_Hood.001_Plane.020
v -0.110458 1.460858 0.076928
v -0.036850 1.441705 0.105424
v -0.080222 1.450759 0.094470
v -0.143229 1.483006 0.052086
v -0.172335 1.507727 0.018765
v -0.187269 1.536493 -0.018823
v -0.187012 1.555838 -0.055010
v -0.179486 1.561031 -0.097697
v -0.174226 1.541873 -0.141380
v -0.172916 1.518126 -0.167237
v -0.158747 1.476846 -0.193045
v -0.138049 1.452320 -0.203199
v -0.094866 1.437553 -0.216227
v -0.061836 1.431976 -0.226388
v -0.031982 1.428271 -0.229085
v -0.100811 1.483241 0.067061
v -0.033576 1.457983 0.098795
v -0.073107 1.472483 0.085287
v -0.126885 1.498119 0.046766
v -0.153200 1.520389 0.013093
v -0.162023 1.546388 -0.021218
v -0.164402 1.562109 -0.049948
v -0.158405 1.570159 -0.096499
v -0.156258 1.550705 -0.142603
v -0.151507 1.529174 -0.167924
v -0.145224 1.492231 -0.191308
v -0.120062 1.470467 -0.202262
v -0.090985 1.457483 -0.212845
v -0.043308 1.450521 -0.222686
v -0.022755 1.565102 0.045303
v -0.040945 1.573318 0.038289
v -0.033204 1.550265 0.033137
v -0.067934 1.560430 0.018687
v -0.084867 1.569586 -0.006599
v -0.099776 1.586756 -0.052418
v -0.045869 1.505056 0.074569
v -0.089239 1.515368 0.048029
v -0.112776 1.530820 0.017668
v -0.133782 1.569721 -0.048048
v -0.134894 1.577640 -0.097214
v -0.130506 1.550919 -0.152428
v -0.116554 1.506742 -0.189616
v -0.087767 1.504544 -0.196396
v -0.044451 1.503466 -0.205002
v -0.088982 1.556215 -0.160088
v -0.044293 1.554365 -0.172160
v 0.110458 1.460858 0.076928
v 0.036850 1.441705 0.105424
v 0.080222 1.450759 0.094470
v 0.000000 1.444069 0.110740
v 0.143229 1.483006 0.052086
v 0.172335 1.507727 0.018765
v 0.187269 1.536493 -0.018823
v 0.187012 1.555838 -0.055010
v 0.179550 1.561025 -0.097997
v 0.173770 1.541260 -0.141986
v 0.171809 1.516915 -0.167547
v 0.157031 1.475242 -0.192379
v 0.136406 1.450917 -0.201999
v 0.093878 1.436791 -0.215165
v 0.061083 1.431427 -0.225442
v 0.031274 1.428009 -0.228639
v -0.000351 1.426307 -0.230458
v 0.100811 1.483241 0.067061
v 0.033576 1.457983 0.098795
v 0.073107 1.472483 0.085287
v 0.000000 1.460445 0.102743
v 0.126885 1.498119 0.046766
v 0.153200 1.520389 0.013093
v 0.162023 1.546388 -0.021218
v 0.164402 1.562109 -0.049948
v 0.158456 1.570173 -0.096660
v 0.155946 1.550302 -0.142947
v 0.150563 1.528174 -0.168049
v 0.143703 1.490808 -0.190724
v 0.118803 1.469401 -0.201311
v 0.090028 1.456731 -0.211877
v 0.042692 1.450138 -0.222011
v -0.000300 1.447190 -0.225622
v 0.000000 1.563741 0.050147
v 0.022755 1.565102 0.045303
v 0.000000 1.546273 0.041166
v 0.033204 1.550265 0.033137
v 0.067934 1.560430 0.018687
v 0.084867 1.569586 -0.006599
v 0.045869 1.505056 0.074569
v 0.000000 1.502445 0.086835
v 0.089239 1.515368 0.048029
v 0.112776 1.530820 0.017668
v 0.133782 1.569721 -0.048048
v 0.134915 1.577651 -0.097261
v 0.130177 1.550563 -0.152508
v 0.115664 1.505945 -0.189124
v 0.087081 1.503975 -0.195826
v 0.043990 1.503122 -0.204459
v -0.000150 1.501011 -0.208472
v 0.088739 1.555996 -0.159960
v 0.044160 1.554266 -0.172003
v 0.000000 1.554436 -0.175631
v 0.000000 1.572293 0.063741
v -0.019806 1.573588 0.060500
v -0.046550 1.577396 0.035635
v -0.039998 1.576439 0.041962
v -0.059869 1.578855 0.027603
v -0.077366 1.582221 0.002634
v -0.094074 1.591359 -0.080119
v -0.098542 1.588805 -0.052547
v -0.083126 1.583978 -0.012038
v -0.093375 1.593963 -0.106368
v -0.088458 1.594072 -0.109851
v -0.046563 1.594859 -0.138001
v 0.000000 1.593265 -0.144815
v 0.020384 1.571922 0.057518
v 0.039932 1.572861 0.038680
v 0.040794 1.572868 0.038189
v 0.062364 1.573156 0.024845
v 0.081666 1.574978 -0.002659
v 0.084154 1.575476 -0.008825
v 0.091183 1.576860 -0.026011
v 0.117221 1.578017 -0.050176
v 0.121752 1.582821 -0.100148
v 0.088517 1.586433 -0.119910
v 0.046310 1.590668 -0.141502
vt 0.025737 0.697944
vt 0.014253 0.681535
vt 0.027007 0.676030
vt 0.038980 0.691171
vt 0.137351 0.789146
vt 0.134133 0.772706
vt 0.143819 0.766841
vt 0.149336 0.782611
vt 0.004259 0.657979
vt 0.001953 0.637083
vt 0.012202 0.636044
vt 0.013902 0.654997
vt 0.146641 0.814145
vt 0.154238 0.805374
vt 0.158443 0.827855
vt 0.168185 0.817193
vt 0.064450 0.731451
vt 0.044025 0.715139
vt 0.052667 0.705540
vt 0.072818 0.721080
vt 0.182155 0.835945
vt 0.184222 0.824502
vt 0.087320 0.743005
vt 0.094851 0.729710
vt 0.200269 0.839716
vt 0.209886 0.828582
vt 0.106124 0.747169
vt 0.110692 0.734619
vt 0.215999 0.841552
vt 0.123191 0.755233
vt 0.131710 0.745541
vt 0.232737 0.842641
vt 0.232718 0.830515
vt 0.094351 0.653670
vt 0.091149 0.650934
vt 0.092634 0.648791
vt 0.098185 0.662189
vt 0.109643 0.675905
vt 0.107320 0.685295
vt 0.091648 0.672088
vt 0.084721 0.641117
vt 0.078228 0.651962
vt 0.136123 0.702199
vt 0.152036 0.712219
vt 0.135054 0.703146
vt 0.080053 0.628632
vt 0.071442 0.633059
vt 0.116340 0.682451
vt 0.044364 0.659127
vt 0.037295 0.633389
vt 0.060158 0.683647
vt 0.078540 0.698504
vt 0.119419 0.718850
vt 0.142203 0.736033
vt 0.185286 0.795962
vt 0.208859 0.796748
vt 0.169457 0.795594
vt 0.158471 0.765192
vt 0.232667 0.798350
vt 0.207062 0.761659
vt 0.232610 0.762109
vt 0.180927 0.759676
vt 0.439279 0.697290
vt 0.426015 0.690559
vt 0.437940 0.675380
vt 0.450711 0.680844
vt 0.327954 0.788844
vt 0.315949 0.782348
vt 0.321415 0.766560
vt 0.331120 0.772394
vt 0.460630 0.657257
vt 0.450978 0.654306
vt 0.452618 0.635347
vt 0.462870 0.636354
vt 0.318744 0.813873
vt 0.311118 0.805126
vt 0.306985 0.827620
vt 0.297209 0.816989
vt 0.400672 0.730919
vt 0.392271 0.720575
vt 0.412373 0.704971
vt 0.421046 0.714543
vt 0.283298 0.835785
vt 0.281196 0.824349
vt 0.377838 0.742545
vt 0.370266 0.729274
vt 0.265196 0.839613
vt 0.255545 0.828510
vt 0.359048 0.746769
vt 0.354440 0.734234
vt 0.249472 0.841499
vt 0.342006 0.754887
vt 0.333457 0.745222
vt 0.374075 0.649940
vt 0.374490 0.634783
vt 0.380116 0.640649
vt 0.373971 0.650506
vt 0.386643 0.651474
vt 0.373287 0.671642
vt 0.368750 0.664820
vt 0.357656 0.684899
vt 0.356652 0.680895
vt 0.384743 0.628150
vt 0.393369 0.632550
vt 0.353961 0.683747
vt 0.345930 0.692499
vt 0.420529 0.658532
vt 0.427516 0.632772
vt 0.404813 0.683101
vt 0.386478 0.698017
vt 0.345663 0.718493
vt 0.322934 0.735748
vt 0.256470 0.796672
vt 0.280040 0.795812
vt 0.295869 0.795394
vt 0.306758 0.764958
vt 0.258157 0.761578
vt 0.284285 0.759512
vt 0.262785 0.734039
vt 0.293447 0.730114
vt 0.315389 0.731561
vt 0.338025 0.710869
vt 0.232564 0.733358
vt 0.201804 0.730968
vt 0.169348 0.722933
vt 0.165972 0.722747
vt 0.091697 0.633796
vt 0.087350 0.623724
vt 0.377431 0.623266
vn -0.3122 0.4969 0.8097
vn -0.2349 0.4463 0.8635
vn -0.2507 0.4735 0.8443
vn -0.3137 0.5440 0.7782
vn -0.3420 0.5521 -0.7605
vn -0.3816 0.7571 -0.5303
vn -0.3120 0.7994 -0.5134
vn -0.2582 0.5994 -0.7577
vn -0.1470 0.4153 0.8977
vn -0.0000 0.4211 0.9070
vn -0.0000 0.4051 0.9143
vn -0.1582 0.4069 0.8997
vn -0.2359 0.3277 -0.9148
vn -0.2084 0.4064 -0.8896
vn -0.2004 0.2428 -0.9491
vn -0.1870 0.2853 -0.9400
vn -0.2753 0.6876 0.6719
vn -0.2908 0.5895 0.7536
vn -0.2949 0.6240 0.7236
vn -0.2513 0.7236 0.6429
vn -0.2034 0.2602 -0.9439
vn -0.1904 0.2894 -0.9381
vn -0.2796 0.7799 0.5600
vn -0.2498 0.7981 0.5483
vn -0.1485 0.2734 -0.9504
vn -0.0951 0.2859 -0.9535
vn -0.3313 0.9027 0.2745
vn -0.2951 0.9051 0.3060
vn -0.0444 0.2446 -0.9686
vn -0.3746 0.9144 -0.1533
vn -0.3128 0.9394 -0.1404
vn 0.0083 0.2431 -0.9700
vn 0.0081 0.2743 -0.9616
vn -0.5093 -0.3177 0.7998
vn -0.5434 -0.4395 0.7152
vn -0.5707 -0.6167 0.5423
vn -0.6167 -0.1585 0.7710
vn -0.8444 0.1273 0.5204
vn -0.6809 0.4972 0.5378
vn -0.5603 0.3467 0.7523
vn -0.3649 -0.5988 0.7130
vn -0.3305 0.2128 0.9195
vn -0.8974 0.4191 0.1376
vn -0.3980 0.9109 0.1088
vn -0.6781 0.6857 0.2646
vn 0.0004 -0.7068 0.7074
vn -0.0000 0.1996 0.9799
vn -0.8829 0.2744 0.3811
vn -0.2011 0.5662 0.7994
vn 0.0000 0.5401 0.8416
vn -0.3147 0.6290 0.7108
vn -0.3400 0.7094 0.6174
vn -0.3319 0.8757 0.3505
vn -0.3177 0.9347 -0.1592
vn -0.1791 0.4477 -0.8760
vn -0.1097 0.4314 -0.8955
vn -0.1637 0.4833 -0.8600
vn -0.2410 0.7358 -0.6329
vn 0.0066 0.4175 -0.9087
vn -0.1452 0.6032 -0.7842
vn 0.0030 0.5810 -0.8139
vn -0.2504 0.6698 -0.6991
vn 0.3122 0.4969 0.8097
vn 0.3137 0.5440 0.7782
vn 0.2507 0.4735 0.8443
vn 0.2349 0.4463 0.8635
vn 0.3353 0.5351 -0.7754
vn 0.2565 0.5834 -0.7706
vn 0.3110 0.7922 -0.5251
vn 0.3796 0.7472 -0.5455
vn 0.1470 0.4153 0.8977
vn 0.1582 0.4069 0.8997
vn 0.2333 0.3113 -0.9212
vn 0.2077 0.3901 -0.8970
vn 0.2060 0.2314 -0.9508
vn 0.1934 0.2741 -0.9421
vn 0.2753 0.6876 0.6719
vn 0.2513 0.7236 0.6429
vn 0.2949 0.6240 0.7236
vn 0.2908 0.5895 0.7536
vn 0.2131 0.2536 -0.9435
vn 0.1989 0.2821 -0.9385
vn 0.2796 0.7799 0.5600
vn 0.2498 0.7981 0.5483
vn 0.1604 0.2696 -0.9495
vn 0.1087 0.2836 -0.9528
vn 0.3316 0.9026 0.2744
vn 0.2953 0.9051 0.3061
vn 0.0615 0.2456 -0.9674
vn 0.3754 0.9131 -0.1589
vn 0.3129 0.9387 -0.1443
vn 0.4826 -0.4060 0.7760
vn 0.2570 -0.8163 0.5172
vn 0.3571 -0.6114 0.7061
vn 0.4673 -0.3130 0.8269
vn 0.3291 0.2098 0.9207
vn 0.5597 0.3447 0.7536
vn 0.6043 -0.1765 0.7770
vn 0.6851 0.4878 0.5409
vn 0.8434 0.1266 0.5222
vn 0.8891 0.2520 0.3821
vn 0.4939 0.6979 0.5187
vn 0.2011 0.5662 0.7994
vn 0.3147 0.6290 0.7108
vn 0.3412 0.7076 0.6188
vn 0.3354 0.8710 0.3588
vn 0.3176 0.9358 -0.1532
vn 0.1188 0.4264 -0.8967
vn 0.1842 0.4388 -0.8795
vn 0.1680 0.4715 -0.8657
vn 0.2394 0.7303 -0.6398
vn 0.1455 0.5983 -0.7880
vn 0.2445 0.6656 -0.7052
vn 0.1887 0.6687 -0.7192
vn 0.2973 0.7652 -0.5711
vn 0.3533 0.8862 -0.2996
vn 0.4277 0.8271 0.3646
vn -0.0019 0.6314 -0.7754
vn -0.2055 0.6748 -0.7088
vn -0.3105 0.7679 -0.5603
vn -0.3553 0.8807 -0.3133
vn -0.2791 -0.8028 0.5268
vn -0.0080 -0.8533 0.5214
usemtl Armour_Metal_Battered.012
s 1
f 1/1/1 3/2/2 18/3/3 16/4/4
f 10/5/5 9/6/6 24/7/7 25/8/8
f 2/9/9 50/10/10 67/11/11 17/12/12
f 11/13/13 10/5/5 25/8/8 26/14/14
f 3/2/2 2/9/9 17/12/12 18/3/3
f 12/15/15 11/13/13 26/14/14 27/16/16
f 5/17/17 4/18/18 19/19/19 20/20/20
f 13/21/21 12/15/15 27/16/16 28/22/22
f 6/23/23 5/17/17 20/20/20 21/24/24
f 14/25/25 13/21/21 28/22/22 29/26/26
f 7/27/27 6/23/23 21/24/24 22/28/28
f 15/29/29 14/25/25 29/26/26
f 8/30/30 7/27/27 22/28/28 23/31/31
f 4/18/18 1/1/1 16/4/4 19/19/19
f 63/32/32 15/29/29 29/26/26 79/33/33
f 9/6/6 8/30/30 23/31/31 24/7/7
f 102/34/34 31/35/35 103/36/36
f 104/37/37 105/38/38 34/39/39 33/40/40
f 30/41/41 31/35/35 32/42/42
f 107/43/43 106/44/44 35/45/45
f 80/46/46 30/41/41 32/42/42 82/47/47
f 105/38/38 108/48/48 34/39/39
f 108/48/48 107/43/43 35/45/45 34/39/39
f 36/49/49 87/50/50 82/47/47 32/42/42
f 18/3/3 17/12/12 36/49/49
f 17/12/12 67/11/11 87/50/50 36/49/49
f 16/4/4 18/3/3 36/49/49 37/51/51
f 19/19/19 16/4/4 37/51/51 38/52/52
f 20/20/20 19/19/19 38/52/52
f 37/51/51 36/49/49 32/42/42 33/40/40
f 38/52/52 37/51/51 33/40/40 34/39/39
f 21/24/24 20/20/20 38/52/52 39/53/53
f 22/28/28 21/24/24 39/53/53
f 23/31/31 22/28/28 39/53/53 40/54/54
f 39/53/53 38/52/52 34/39/39 35/45/45
f 29/26/26 28/22/22 43/55/55 44/56/56
f 27/16/16 26/14/14 42/57/57
f 25/8/8 24/7/7 41/58/58
f 28/22/22 27/16/16 42/57/57 43/55/55
f 26/14/14 25/8/8 41/58/58 42/57/57
f 79/33/33 29/26/26 44/56/56 96/59/59
f 41/58/58 24/7/7 23/31/31 40/54/54
f 96/59/59 44/56/56 46/60/60 99/61/61
f 44/56/56 43/55/55 45/62/62 46/60/60
f 45/62/62 43/55/55 42/57/57 41/58/58
f 47/63/63 64/64/64 66/65/65 49/66/66
f 57/67/67 74/68/68 73/69/69 56/70/70
f 48/71/71 65/72/72 67/73/11 50/74/10
f 58/75/73 75/76/74 74/68/68 57/67/67
f 49/66/66 66/65/65 65/72/72 48/71/71
f 59/77/75 76/78/76 75/76/74 58/75/73
f 52/79/77 69/80/78 68/81/79 51/82/80
f 60/83/81 77/84/82 76/78/76 59/77/75
f 53/85/83 70/86/84 69/80/78 52/79/77
f 61/87/85 78/88/86 77/84/82 60/83/81
f 54/89/87 71/90/88 70/86/84 53/85/83
f 62/91/89 78/88/86 61/87/85
f 55/92/90 72/93/91 71/90/88 54/89/87
f 51/82/80 68/81/79 64/64/64 47/63/63
f 63/32/32 79/33/33 78/88/86 62/91/89
f 56/70/70 73/69/69 72/93/91 55/92/90
f 114/94/92 113/95/93 81/96/94
f 115/97/95 83/98/96 84/99/97 116/100/98
f 116/100/98 84/99/97 85/101/99 117/102/100
f 80/103/46 82/104/47 83/98/96 81/96/94
f 117/102/100 85/101/99 118/105/101
f 118/105/101 85/101/99 119/106/102
f 86/107/103 83/98/96 82/104/47 87/108/50
f 66/65/65 86/107/103 65/72/72
f 65/72/72 86/107/103 87/108/50 67/73/11
f 64/64/64 88/109/104 86/107/103 66/65/65
f 68/81/79 89/110/105 88/109/104 64/64/64
f 69/80/78 89/110/105 68/81/79
f 88/109/104 84/99/97 83/98/96 86/107/103
f 89/110/105 85/101/99 84/99/97 88/109/104
f 70/86/84 90/111/106 89/110/105 69/80/78
f 71/90/88 90/111/106 70/86/84
f 72/93/91 91/112/107 90/111/106 71/90/88
f 78/88/86 95/113/108 94/114/109 77/84/82
f 76/78/76 93/115/110 75/76/74
f 74/68/68 92/116/111 73/69/69
f 77/84/82 94/114/109 93/115/110 76/78/76
f 75/76/74 93/115/110 92/116/111 74/68/68
f 79/33/33 96/59/59 95/113/108 78/88/86
f 92/116/111 91/112/107 72/93/91 73/69/69
f 96/59/59 99/61/61 98/117/112 95/113/108
f 95/113/108 98/117/112 97/118/113 94/114/109
f 97/118/113 92/116/111 93/115/110 94/114/109
f 98/117/112 123/119/114 122/120/115 97/118/113
f 97/118/113 122/120/115 121/121/116 91/112/107 92/116/111
f 91/112/107 121/121/116 120/122/117 90/111/106
f 90/111/106 120/122/117 119/106/102 85/101/99 89/110/105
f 81/96/94 83/98/96 115/97/95 114/94/92
f 99/61/61 112/123/118 123/119/114 98/117/112
f 99/61/61 46/60/60 111/124/119 112/123/118
f 46/60/60 45/62/62 110/125/120 111/124/119
f 45/62/62 41/58/58 40/54/54 109/126/121 110/125/120
f 40/54/54 39/53/53 35/45/45 106/44/44 109/126/121
f 31/35/35 102/34/34 104/37/37 33/40/40 32/42/42
f 31/35/35 30/41/41 101/127/122 103/36/36
f 30/41/41 80/46/46 100/128/123 101/127/122
f 81/96/94 113/95/93 100/129/123 80/103/46
