# Blender v2.91.0 OBJ File: ''
# www.blender.org
mtllib bassin.mtl
o Soi_SimpleArmor.013_Plane.030
v -0.064248 0.925034 0.107609
v -0.167852 0.978037 -0.037543
v -0.118160 0.969478 -0.137327
v -0.121499 0.964159 0.089304
v -0.164235 0.971659 0.044332
v -0.054963 0.952834 -0.159879
v -0.053265 0.962009 0.101482
v -0.121351 0.915427 0.071274
v -0.117142 0.992973 0.083783
v -0.150088 0.997629 0.048676
v -0.162198 1.005089 -0.032064
v -0.126748 1.005367 -0.114575
v -0.049169 1.004383 -0.142737
v -0.036613 0.843771 0.040616
v -0.030943 0.864947 -0.082233
v -0.053121 0.989882 0.100746
v -0.159948 0.937313 0.036094
v -0.155983 0.938777 -0.036586
v -0.114583 0.929641 -0.108197
v -0.062740 0.903355 -0.123889
v -0.067671 0.873788 0.067119
v -0.029208 0.836717 -0.019544
v 0.061654 0.927277 0.107552
v 0.169646 0.976604 -0.033475
v 0.126615 0.963711 -0.134518
v 0.117139 0.967240 0.091027
v 0.161520 0.973729 0.047978
v 0.064980 0.947824 -0.159225
v 0.050148 0.962921 0.102031
v 0.120178 0.915314 0.073184
v 0.112148 0.996451 0.084572
v 0.146562 1.000296 0.050961
v 0.164159 1.003548 -0.028688
v 0.135624 0.999198 -0.112456
v 0.061407 0.998696 -0.144062
v 0.036614 0.843772 0.040614
v 0.030944 0.864947 -0.082235
v 0.000126 0.834933 0.061702
v 0.000270 0.847246 0.108041
v 0.000038 0.841060 -0.014117
v 0.001270 0.867778 -0.077661
v 0.048930 0.991532 0.100582
v -0.002399 0.911338 0.124575
v -0.003411 0.965882 0.117178
v -0.002790 0.990622 0.117151
v 0.002360 0.919139 -0.118245
v 0.005607 0.993889 -0.136548
v 0.006228 0.957122 -0.151742
v 0.159949 0.937313 0.036093
v 0.155983 0.938777 -0.036587
v 0.114583 0.929641 -0.108198
v 0.062740 0.903354 -0.123890
v 0.067672 0.873788 0.067117
v 0.029208 0.836717 -0.019546
v -0.103154 1.058533 0.088168
v -0.135635 1.061530 0.057859
v -0.154920 1.061572 -0.016473
v -0.128769 1.055582 -0.096950
v -0.054950 1.055545 -0.128254
v -0.045468 1.053513 0.102106
v 0.103154 1.058532 0.088172
v 0.135635 1.061530 0.057860
v 0.154921 1.061572 -0.016474
v 0.128769 1.055582 -0.096950
v 0.054950 1.055545 -0.128254
v 0.045502 1.053484 0.102148
v -0.000000 1.052637 0.117953
v 0.000000 1.048788 -0.122544
vt 0.273513 0.238467
vt 0.282333 0.303898
vt 0.266205 0.308793
vt 0.253783 0.254002
vt 0.511887 0.265923
vt 0.512722 0.230077
vt 0.529059 0.232311
vt 0.528865 0.262996
vt 0.277546 0.198672
vt 0.244430 0.197041
vt 0.508770 0.315280
vt 0.525857 0.314193
vt 0.385801 0.178206
vt 0.346048 0.183688
vt 0.343804 0.158617
vt 0.385265 0.158617
vt 0.422101 0.180465
vt 0.428173 0.158617
vt 0.452378 0.199870
vt 0.450397 0.158617
vt 0.482945 0.230985
vt 0.489292 0.193956
vt 0.511664 0.190693
vt 0.484023 0.158617
vt 0.514638 0.158617
vt 0.315294 0.207554
vt 0.304211 0.158617
vt 0.273560 0.158617
vt 0.248535 0.158617
vt 0.528166 0.191835
vt 0.528958 0.158617
vt 0.484757 0.310108
vt 0.491467 0.265422
vt 0.302956 0.245098
vt 0.306457 0.296141
vt 0.273513 0.078766
vt 0.253783 0.063231
vt 0.266205 0.008441
vt 0.282333 0.013335
vt 0.511887 0.051311
vt 0.528865 0.054237
vt 0.529059 0.084922
vt 0.512722 0.087156
vt 0.277546 0.118561
vt 0.244430 0.120192
vt 0.508770 0.001953
vt 0.525857 0.003041
vt 0.385801 0.139028
vt 0.346048 0.133545
vt 0.422101 0.136768
vt 0.452378 0.117363
vt 0.511664 0.126541
vt 0.489292 0.123277
vt 0.482945 0.086249
vt 0.315294 0.109679
vt 0.528166 0.125398
vt 0.484757 0.007125
vt 0.491467 0.051811
vt 0.302956 0.072135
vt 0.306457 0.021093
vt 0.508279 0.314193
vt 0.511287 0.262996
vt 0.528865 0.262996
vt 0.525857 0.314193
vt 0.511481 0.084922
vt 0.511287 0.054237
vt 0.528865 0.054237
vt 0.529059 0.084922
vt 0.510588 0.125398
vt 0.528166 0.125398
vt 0.511481 0.232311
vt 0.529059 0.232311
vt 0.510588 0.191835
vt 0.511380 0.158617
vt 0.528958 0.158617
vt 0.528166 0.191835
vt 0.268624 0.158617
vt 0.265153 0.191115
vt 0.244430 0.197041
vt 0.248535 0.158617
vt 0.265153 0.126118
vt 0.244430 0.120192
vt 0.283569 0.031602
vt 0.273063 0.077942
vt 0.253783 0.063231
vt 0.266205 0.008441
vt 0.273063 0.239291
vt 0.253783 0.254002
vt 0.283569 0.285631
vt 0.266205 0.308793
vt 0.508279 0.003041
vt 0.525857 0.003041
vn -0.6132 -0.0328 -0.7892
vn -0.9784 -0.0057 -0.2065
vn -0.9707 0.2042 -0.1267
vn -0.6897 0.2456 -0.6812
vn -0.9242 0.0332 0.3804
vn -0.5134 0.0089 0.8581
vn -0.4925 0.1223 0.8617
vn -0.8613 0.2093 0.4630
vn -0.1044 -0.1687 -0.9801
vn -0.0708 0.3230 -0.9437
vn 0.0596 -0.9749 -0.2143
vn 0.1918 -0.7572 -0.6244
vn -0.0059 -0.8028 -0.5963
vn -0.0007 -0.9829 -0.1840
vn -0.2742 -0.9491 0.1547
vn 0.0005 -0.9774 0.2114
vn -0.4602 -0.6027 0.6519
vn 0.0076 -0.7183 0.6957
vn -0.5253 -0.2866 0.8012
vn -0.3832 -0.1921 0.9035
vn -0.2816 0.0675 0.9572
vn -0.0097 -0.1571 0.9875
vn -0.0139 0.0989 0.9950
vn -0.0470 -0.6145 -0.7875
vn -0.0083 -0.6341 -0.7732
vn -0.0069 -0.1454 -0.9893
vn 0.0032 0.2960 -0.9552
vn -0.2689 0.0384 0.9624
vn -0.0075 0.0113 0.9999
vn -0.9316 -0.2790 -0.2331
vn -0.9054 -0.2441 0.3473
vn -0.6765 -0.4342 -0.5948
vn 0.6585 -0.0946 -0.7466
vn 0.7349 0.2397 -0.6344
vn 0.9744 0.2097 -0.0805
vn 0.9883 -0.0334 -0.1490
vn 0.9024 0.0529 0.4277
vn 0.8439 0.2091 0.4940
vn 0.4690 0.1248 0.8744
vn 0.4882 0.0362 0.8720
vn 0.1364 -0.2142 -0.9672
vn 0.1175 0.3124 -0.9427
vn -0.0637 -0.9743 -0.2159
vn -0.2041 -0.7512 -0.6278
vn 0.2751 -0.9491 0.1531
vn 0.4515 -0.5893 0.6700
vn 0.2623 0.0798 0.9617
vn 0.3628 -0.1737 0.9155
vn 0.5060 -0.2730 0.8182
vn 0.0143 -0.6447 -0.7643
vn 0.2595 0.0390 0.9650
vn 0.9229 -0.3311 -0.1963
vn 0.9063 -0.2235 0.3586
vn 0.6633 -0.5280 -0.5303
vn -0.8545 0.1076 0.5081
vn -0.9886 0.1482 -0.0258
vn 0.8478 0.0875 0.5231
vn 0.4700 0.0156 0.8825
vn 0.2795 -0.0163 0.9600
vn -0.4706 0.0366 0.8816
vn 0.0074 -0.0037 1.0000
vn -0.2844 0.0044 0.9587
vn -0.1391 0.2722 -0.9521
vn 0.0115 0.2597 -0.9656
vn 0.1199 0.2738 -0.9543
vn 0.7305 0.2659 -0.6291
vn 0.9859 0.1674 -0.0040
vn -0.7447 0.2155 -0.6317
usemtl Armour_Cloth_Battered.023
s 1
f 3/1/1 2/2/2 11/3/3 12/4/4
f 5/5/5 4/6/6 9/7/7 10/8/8
f 6/9/9 3/1/1 12/4/4 13/10/10
f 2/11/2 5/5/5 10/8/8 11/12/3
f 22/13/11 15/14/12 41/15/13 40/16/14
f 14/17/15 22/13/11 40/16/14 38/18/16
f 21/19/17 14/17/15 38/18/16 39/20/18
f 4/6/6 8/21/19 1/22/20 7/23/21
f 8/21/19 21/19/17 1/22/20
f 1/22/20 21/19/17 39/20/18 43/24/22
f 7/23/21 1/22/20 43/24/22 44/25/23
f 41/15/13 15/14/12 20/26/24 46/27/25
f 48/28/26 6/9/9 13/10/10 47/29/27
f 46/27/25 20/26/24 6/9/9 48/28/26
f 16/30/28 7/23/21 44/25/23 45/31/29
f 9/7/7 4/6/6 7/23/21 16/30/28
f 18/32/30 17/33/31 5/5/5 2/11/2
f 20/26/24 19/34/32 3/1/1 6/9/9
f 17/33/31 8/21/19 4/6/6 5/5/5
f 19/34/32 18/35/30 2/2/2 3/1/1
f 25/36/33 34/37/34 33/38/35 24/39/36
f 27/40/37 32/41/38 31/42/39 26/43/40
f 28/44/41 35/45/42 34/37/34 25/36/33
f 24/46/36 33/47/35 32/41/38 27/40/37
f 54/48/43 40/16/14 41/15/13 37/49/44
f 36/50/45 38/18/16 40/16/14 54/48/43
f 53/51/46 39/20/18 38/18/16 36/50/45
f 26/43/40 29/52/47 23/53/48 30/54/49
f 30/54/49 23/53/48 53/51/46
f 23/53/48 43/24/22 39/20/18 53/51/46
f 29/52/47 44/25/23 43/24/22 23/53/48
f 41/15/13 46/27/25 52/55/50 37/49/44
f 48/28/26 47/29/27 35/45/42 28/44/41
f 46/27/25 48/28/26 28/44/41 52/55/50
f 42/56/51 45/31/29 44/25/23 29/52/47
f 31/42/39 42/56/51 29/52/47 26/43/40
f 50/57/52 24/46/36 27/40/37 49/58/53
f 52/55/50 28/44/41 25/36/33 51/59/54
f 49/58/53 27/40/37 26/43/40 30/54/49
f 51/59/54 25/36/33 24/39/36 50/60/52
f 11/61/3 10/62/8 56/63/55 57/64/56
f 31/65/39 32/66/38 62/67/57 61/68/58
f 42/69/51 31/65/39 61/68/58 66/70/59
f 10/62/8 9/71/7 55/72/60 56/63/55
f 16/73/28 45/74/29 67/75/61 60/76/62
f 9/71/7 16/73/28 60/76/62 55/72/60
f 47/77/27 13/78/10 59/79/63 68/80/64
f 35/81/42 47/77/27 68/80/64 65/82/65
f 33/83/35 34/84/34 64/85/66 63/86/67
f 13/78/10 12/87/4 58/88/68 59/79/63
f 34/84/34 35/81/42 65/82/65 64/85/66
f 12/87/4 11/89/3 57/90/56 58/88/68
f 45/74/29 42/69/51 66/70/59 67/75/61
f 32/66/38 33/91/35 63/92/67 62/67/57
o Soi_SimpleArmor.003_Plane.033
v 0.106429 0.878142 0.071803
v 0.022423 0.845077 -0.070953
v 0.168017 0.906053 -0.085808
v 0.116934 0.899891 -0.122803
v 0.057303 0.875035 -0.116669
v 0.064038 0.855003 0.055737
v 0.149889 0.896773 0.057151
v 0.035940 0.858211 -0.097835
v 0.181764 0.905284 -0.037220
v 0.145959 0.904748 -0.109040
v 0.036422 0.840109 0.025274
v 0.085522 0.890055 -0.124655
v 0.176663 0.903851 0.015437
v 0.021427 0.837374 -0.021760
v 0.124628 0.959715 -0.111631
v 0.163608 0.962992 0.023586
v 0.132955 0.951952 0.062426
v 0.024716 0.896063 -0.094330
v 0.017731 0.886624 0.033291
v 0.006970 0.882437 -0.012592
v 0.014766 0.908246 -0.097258
v 0.130032 0.972188 0.069446
v 0.163593 0.986558 0.028447
v 0.059662 0.951275 -0.136876
v 0.118351 0.980173 -0.119518
v 0.089115 0.968571 -0.135969
v 0.164748 0.989058 -0.031692
v 0.143715 0.986436 -0.089656
v 0.005199 0.892196 -0.065249
v 0.040140 0.908174 0.063096
v 0.081286 0.941658 0.082247
v 0.033159 0.929809 -0.122778
v 0.152271 1.002124 -0.029526
v 0.131215 0.998823 -0.086204
v 0.079701 0.980932 -0.131442
v 0.037119 0.919991 0.060285
v 0.006309 0.902464 -0.062618
v 0.074730 0.954040 0.078503
v 0.029325 0.941530 -0.117859
v 0.119836 0.985292 0.065764
v 0.151508 1.000121 0.028064
v 0.106663 0.992449 -0.115378
v 0.052849 0.963617 -0.131975
v 0.017663 0.897351 0.031397
v 0.008539 0.892422 -0.012140
v 0.014084 0.919141 -0.093059
v 0.027505 0.874811 0.029610
v 0.016182 0.870377 -0.015163
v 0.068025 0.937032 -0.127704
v 0.042797 0.916874 -0.116636
v 0.087802 0.925790 0.074995
v 0.048568 0.895185 0.056965
v 0.014688 0.879982 -0.065370
v 0.148086 0.963665 -0.085197
v 0.166135 0.964752 -0.031985
v 0.096737 0.951486 -0.126721
vt 1.680637 0.432668
vt 1.656775 0.408418
vt 1.634540 0.421853
vt 1.653581 0.446002
vt 1.617285 0.401172
vt 1.637049 0.391947
vt 1.619922 0.367925
vt 1.600888 0.375263
vt 1.697981 0.462487
vt 1.666507 0.472833
vt 1.671409 0.502627
vt 1.705550 0.494096
vt 1.674968 0.564726
vt 1.710571 0.564940
vt 1.708568 0.529456
vt 1.673058 0.534396
vt 1.607726 0.338341
vt 1.587950 0.347209
vt 1.677344 0.603702
vt 1.710484 0.607738
vt 1.711443 0.587247
vt 1.676726 0.583965
vt 1.604227 0.316851
vt 1.602736 0.294912
vt 1.579343 0.307271
vt 1.582986 0.327437
vt 1.599552 0.274186
vt 1.573539 0.287878
vt 1.675466 0.623836
vt 1.705809 0.627123
vt 1.719095 0.490930
vt 1.722747 0.528191
vt 1.733130 0.527149
vt 1.729119 0.488012
vt 1.716389 0.630884
vt 1.725127 0.633117
vt 1.731128 0.614154
vt 1.722194 0.611339
vt 1.724404 0.566524
vt 1.735068 0.567156
vt 1.650218 0.383240
vt 1.644934 0.386903
vt 1.665325 0.403319
vt 1.671564 0.399235
vt 1.690495 0.427766
vt 1.697748 0.422855
vt 1.724505 0.590422
vt 1.734459 0.592809
vt 1.710104 0.458499
vt 1.719135 0.454151
vt 1.613106 0.313182
vt 1.615919 0.334247
vt 1.621813 0.332078
vt 1.619732 0.311280
vt 1.618117 0.267482
vt 1.609419 0.268899
vt 1.612072 0.290796
vt 1.619716 0.289011
vt 1.628094 0.363729
vt 1.633339 0.360814
vn 0.0980 -0.2312 0.9680
vn -0.3568 -0.3815 0.8527
vn -0.1186 -0.8011 0.5867
vn 0.2342 -0.6444 0.7279
vn -0.3784 -0.8687 0.3198
vn -0.7215 -0.4496 0.5265
vn -0.8988 -0.4240 0.1117
vn -0.4955 -0.8682 0.0262
vn 0.5990 -0.0665 0.7980
vn 0.6659 -0.4818 0.5697
vn 0.8878 -0.4252 0.1762
vn 0.9366 0.0681 0.3437
vn 0.8371 -0.3815 -0.3920
vn 0.8536 0.1610 -0.4955
vn 0.9786 0.1608 -0.1282
vn 0.9064 -0.4000 -0.1358
vn -0.8743 -0.3949 -0.2824
vn -0.4883 -0.8326 -0.2613
vn 0.4251 -0.5240 -0.7381
vn 0.3388 -0.1428 -0.9300
vn 0.6239 0.0433 -0.7803
vn 0.6625 -0.4362 -0.6089
vn -0.6537 -0.3830 -0.6526
vn -0.3156 -0.3606 -0.8777
vn -0.1074 -0.7027 -0.7033
vn -0.3287 -0.7843 -0.5261
vn 0.0248 -0.2918 -0.9562
vn 0.1627 -0.6203 -0.7673
vn 0.8707 0.3263 0.3681
vn 0.9061 0.3969 -0.1467
vn 0.7048 0.6991 -0.1203
vn 0.6676 0.6431 0.3751
vn -0.1382 -0.1269 -0.9822
vn -0.3455 0.1920 -0.9186
vn 0.0527 0.3979 -0.9159
vn 0.2410 0.0781 -0.9674
vn 0.7738 0.3881 -0.5005
vn 0.5789 0.6902 -0.4343
vn -0.9067 0.0438 0.4194
vn -0.7947 -0.3434 0.5005
vn -0.4770 -0.2553 0.8410
vn -0.6255 0.0369 0.7793
vn -0.0238 -0.0728 0.9971
vn -0.1893 0.2043 0.9604
vn 0.5556 0.2770 -0.7840
vn 0.3749 0.5898 -0.7152
vn 0.4948 0.1628 0.8536
vn 0.3096 0.4504 0.8374
vn -0.7723 -0.2794 -0.5705
vn -0.9314 -0.2860 -0.2252
vn -0.9903 0.1066 -0.0894
vn -0.9141 0.0654 -0.4001
vn -0.4958 -0.2447 -0.8332
vn -0.6970 0.0741 -0.7132
vn -0.9441 -0.3089 0.1151
vn -0.9853 0.1035 0.1362
usemtl Armour_Cloth_Battered.025
s 1
f 119/93/69 120/94/70 74/95/71 69/96/72
f 79/97/73 115/98/74 116/99/75 82/100/76
f 85/101/77 119/93/69 69/96/72 75/102/78
f 81/103/79 84/104/80 85/101/77 75/102/78
f 71/105/81 122/106/82 123/107/83 77/108/84
f 82/100/76 116/99/75 121/109/85 70/110/86
f 72/111/87 124/112/88 83/113/89 78/114/90
f 86/115/91 118/116/92 73/117/93 76/118/94
f 70/110/86 121/109/85 86/115/91 76/118/94
f 118/116/92 117/119/95 80/120/96 73/117/93
f 77/108/84 123/107/83 84/104/80 81/103/79
f 80/121/96 117/122/95 124/112/88 72/111/87
f 91/123/97 95/124/98 101/125/99 109/126/100
f 78/114/90 83/113/89 122/106/82 71/105/81
f 92/127/101 111/128/102 103/129/103 94/130/104
f 101/125/99 95/124/98 96/131/105 102/132/106
f 74/95/71 120/94/70 115/98/74 79/97/73
f 112/133/107 87/134/108 98/135/109 104/136/110
f 104/136/110 98/135/109 99/137/111 106/138/112
f 93/139/113 94/130/104 103/129/103 110/140/114
f 90/141/115 91/123/97 109/126/100 108/142/116
f 89/143/117 97/144/118 105/145/119 114/146/120
f 111/147/102 92/148/101 100/149/121 107/150/122
f 115/98/74 87/134/108 88/151/123 116/99/75
f 116/99/75 88/151/123 97/144/118 121/109/85
f 121/109/85 97/144/118 89/143/117 86/115/91
f 123/107/83 95/124/98 91/123/97 84/104/80
f 124/112/88 94/130/104 93/139/113 83/113/89
f 117/122/95 92/127/101 94/130/104 124/112/88
f 123/107/83 122/106/82 96/131/105 95/124/98
f 96/131/105 122/106/82 83/113/89 93/139/113
f 90/141/115 85/101/77 84/104/80 91/123/97
f 115/98/74 120/94/70 98/135/109 87/134/108
f 99/137/111 98/135/109 120/94/70 119/93/69
f 89/143/117 100/149/121 118/116/92 86/115/91
f 96/131/105 93/139/113 110/140/114 102/132/106
f 87/134/108 112/133/107 113/152/124 88/151/123
f 88/151/123 113/152/124 105/145/119 97/144/118
f 100/149/121 89/143/117 114/146/120 107/150/122
f 99/137/111 90/141/115 108/142/116 106/138/112
f 117/119/95 118/116/92 100/149/121 92/148/101
f 90/141/115 99/137/111 119/93/69 85/101/77
f 74/95/71 79/97/73 82/100/76 70/110/86 76/118/94 73/117/93 80/120/96 72/111/87 78/114/90 71/105/81 77/108/84 81/103/79 75/102/78 69/96/72
o Soi_SimpleArmor.001_Plane.034
v -0.127995 0.918858 0.111727
v -0.155115 0.909337 -0.054717
v -0.033139 0.826125 0.003023
v -0.051464 0.847037 -0.053923
v -0.101336 0.881201 -0.077525
v -0.162485 0.932327 0.076804
v -0.088422 0.890286 0.119982
v -0.130470 0.895689 -0.071577
v -0.040850 0.834184 0.052277
v -0.037915 0.833061 -0.027913
v -0.179322 0.933446 0.036459
v -0.073583 0.864791 -0.070731
v -0.058813 0.857681 0.096165
v -0.175574 0.925072 -0.012124
v -0.000336 0.877286 -0.038635
v -0.016874 0.902042 0.098942
v -0.050817 0.934358 0.118273
v -0.104466 0.925582 -0.072663
v -0.150610 0.975311 0.036069
v -0.146481 0.963421 -0.009539
v -0.097867 0.938410 -0.079585
v -0.036924 0.950012 0.123679
v 0.001755 0.916434 0.103927
v -0.030127 0.912015 -0.091885
v 0.016304 0.889811 -0.047931
v -0.002321 0.899328 -0.076610
v 0.020876 0.893578 0.051618
v 0.024968 0.885581 -0.009443
v -0.124590 0.949521 -0.056430
v -0.130321 0.981393 0.073570
v -0.088478 0.975544 0.110931
v -0.064236 0.926082 -0.092681
v 0.025677 0.910754 0.048010
v 0.028831 0.902912 -0.011951
v 0.002630 0.914736 -0.076712
v -0.120913 0.988847 0.070022
v -0.116105 0.955148 -0.053278
v -0.079943 0.985602 0.104905
v -0.057397 0.937095 -0.089813
v -0.029452 0.963223 0.116005
v 0.007853 0.932590 0.098276
v 0.020253 0.906738 -0.049452
v -0.024112 0.925596 -0.090425
v -0.141032 0.980316 0.034695
v -0.137431 0.967708 -0.008096
v -0.090096 0.946329 -0.075882
v -0.155163 0.960251 0.037102
v -0.151804 0.949083 -0.007804
v -0.040903 0.901712 -0.080281
v -0.072494 0.914337 -0.083101
v -0.096971 0.959406 0.107154
v -0.135813 0.965774 0.071773
v -0.130589 0.935842 -0.052411
v 0.006441 0.871939 -0.004136
v 0.000993 0.879530 0.051281
v -0.015863 0.888106 -0.065377
vt 1.680637 0.432668
vt 1.656775 0.408418
vt 1.634540 0.421853
vt 1.653581 0.446002
vt 1.617285 0.401172
vt 1.637049 0.391947
vt 1.619922 0.367925
vt 1.600888 0.375263
vt 1.697981 0.462487
vt 1.666507 0.472833
vt 1.671409 0.502627
vt 1.705550 0.494096
vt 1.674968 0.564726
vt 1.710571 0.564940
vt 1.708568 0.529456
vt 1.673058 0.534396
vt 1.607726 0.338341
vt 1.587950 0.347209
vt 1.677344 0.603702
vt 1.710484 0.607738
vt 1.711443 0.587247
vt 1.676726 0.583965
vt 1.604227 0.316851
vt 1.602736 0.294912
vt 1.579343 0.307271
vt 1.582986 0.327437
vt 1.599552 0.274186
vt 1.573539 0.287878
vt 1.675466 0.623836
vt 1.705809 0.627123
vt 1.719095 0.490930
vt 1.722747 0.528191
vt 1.733130 0.527149
vt 1.729119 0.488012
vt 1.716389 0.630884
vt 1.725127 0.633117
vt 1.731128 0.614154
vt 1.722194 0.611339
vt 1.724404 0.566524
vt 1.735068 0.567156
vt 1.650218 0.383240
vt 1.644934 0.386903
vt 1.665325 0.403319
vt 1.671564 0.399235
vt 1.690495 0.427766
vt 1.697748 0.422855
vt 1.724505 0.590422
vt 1.734459 0.592809
vt 1.710104 0.458499
vt 1.719135 0.454151
vt 1.613106 0.313182
vt 1.615919 0.334247
vt 1.621813 0.332078
vt 1.619732 0.311280
vt 1.618117 0.267482
vt 1.609419 0.268899
vt 1.612072 0.290796
vt 1.619716 0.289011
vt 1.628094 0.363729
vt 1.633339 0.360814
vn -0.4165 0.1787 0.8914
vn -0.7193 0.3973 0.5700
vn -0.8935 -0.1079 0.4360
vn -0.6389 -0.2362 0.7321
vn -0.9958 -0.0513 0.0760
vn -0.8535 0.5098 0.1080
vn -0.7987 0.4962 -0.3403
vn -0.9683 -0.0766 -0.2379
vn -0.0025 -0.1777 0.9841
vn -0.2613 -0.5367 0.8023
vn -0.0046 -0.8266 0.5627
vn 0.3897 -0.5369 0.7482
vn 0.1650 -0.9855 0.0400
vn 0.6605 -0.7503 -0.0269
vn 0.6166 -0.7023 0.3556
vn 0.1107 -0.9482 0.2977
vn -0.6549 0.3404 -0.6747
vn -0.8560 -0.1746 -0.4865
vn -0.0484 -0.8844 -0.4641
vn 0.2880 -0.6917 -0.6623
vn 0.5343 -0.7500 -0.3899
vn 0.0987 -0.9669 -0.2353
vn -0.4431 0.0369 -0.8957
vn -0.2086 -0.2934 -0.9329
vn -0.4516 -0.5643 -0.6912
vn -0.6700 -0.3719 -0.6425
vn 0.0260 -0.5440 -0.8387
vn -0.2413 -0.7490 -0.6171
vn 0.5717 -0.3409 0.7463
vn 0.7887 -0.5297 0.3121
vn 0.9460 -0.2074 0.2492
vn 0.7459 -0.0170 0.6658
vn 0.0987 -0.3438 -0.9338
vn 0.2572 0.0063 -0.9663
vn 0.6121 -0.1838 -0.7691
vn 0.4409 -0.5153 -0.7349
vn 0.8181 -0.5717 -0.0622
vn 0.9671 -0.2389 -0.0871
vn -0.4903 0.8695 -0.0590
vn -0.7897 0.6112 0.0537
vn -0.6637 0.5503 0.5066
vn -0.4669 0.7933 0.3907
vn -0.3457 0.3658 0.8641
vn -0.1762 0.6234 0.7618
vn 0.7023 -0.5759 -0.4184
vn 0.8663 -0.2472 -0.4341
vn 0.1292 0.0441 0.9906
vn 0.2931 0.3300 0.8973
vn -0.4318 0.2131 -0.8764
vn -0.6044 0.4633 -0.6481
vn -0.3357 0.7686 -0.5446
vn -0.2509 0.5689 -0.7832
vn -0.2046 -0.0788 -0.9757
vn -0.0589 0.2884 -0.9557
vn -0.7228 0.5927 -0.3553
vn -0.3979 0.8506 -0.3437
usemtl Armour_Cloth_Battered.026
s 1
f 175/153/125 176/154/126 130/155/127 125/156/128
f 135/157/129 171/158/130 172/159/131 138/160/132
f 141/161/133 175/153/125 125/156/128 131/162/134
f 137/163/135 140/164/136 141/161/133 131/162/134
f 127/165/137 178/166/138 179/167/139 133/168/140
f 138/160/132 172/159/131 177/169/141 126/170/142
f 128/171/143 180/172/144 139/173/145 134/174/146
f 142/175/147 174/176/148 129/177/149 132/178/150
f 126/170/142 177/169/141 142/175/147 132/178/150
f 174/176/148 173/179/151 136/180/152 129/177/149
f 133/168/140 179/167/139 140/164/136 137/163/135
f 136/181/152 173/182/151 180/172/144 128/171/143
f 147/183/153 151/184/154 157/185/155 165/186/156
f 134/174/146 139/173/145 178/166/138 127/165/137
f 148/187/157 167/188/158 159/189/159 150/190/160
f 157/185/155 151/184/154 152/191/161 158/192/162
f 130/155/127 176/154/126 171/158/130 135/157/129
f 168/193/163 143/194/164 154/195/165 160/196/166
f 160/196/166 154/195/165 155/197/167 162/198/168
f 149/199/169 150/190/160 159/189/159 166/200/170
f 146/201/171 147/183/153 165/186/156 164/202/172
f 145/203/173 153/204/174 161/205/175 170/206/176
f 167/207/158 148/208/157 156/209/177 163/210/178
f 171/158/130 143/194/164 144/211/179 172/159/131
f 172/159/131 144/211/179 153/204/174 177/169/141
f 177/169/141 153/204/174 145/203/173 142/175/147
f 179/167/139 151/184/154 147/183/153 140/164/136
f 180/172/144 150/190/160 149/199/169 139/173/145
f 173/182/151 148/187/157 150/190/160 180/172/144
f 179/167/139 178/166/138 152/191/161 151/184/154
f 152/191/161 178/166/138 139/173/145 149/199/169
f 146/201/171 141/161/133 140/164/136 147/183/153
f 171/158/130 176/154/126 154/195/165 143/194/164
f 155/197/167 154/195/165 176/154/126 175/153/125
f 145/203/173 156/209/177 174/176/148 142/175/147
f 152/191/161 149/199/169 166/200/170 158/192/162
f 143/194/164 168/193/163 169/212/180 144/211/179
f 144/211/179 169/212/180 161/205/175 153/204/174
f 156/209/177 145/203/173 170/206/176 163/210/178
f 155/197/167 146/201/171 164/202/172 162/198/168
f 173/179/151 174/176/148 156/209/177 148/208/157
f 146/201/171 155/197/167 175/153/125 141/161/133
f 130/155/127 135/157/129 138/160/132 126/170/142 132/178/150 129/177/149 136/180/152 128/171/143 134/174/146 127/165/137 133/168/140 137/163/135 131/162/134 125/156/128
