# Blender v2.91.0 OBJ File: ''
# www.blender.org
mtllib bras_gauche.mtl
o Soi_SimpleArmor.001_Plane.013
v 0.395296 1.254874 -0.073092
v 0.407086 1.276449 -0.077561
v 0.420321 1.292149 -0.092603
v 0.277730 1.302933 -0.086439
v 0.301505 1.339902 -0.046309
v 0.330882 1.386065 -0.072725
v 0.371890 1.224929 -0.103815
v 0.402757 1.315262 -0.121544
v 0.373812 1.265296 -0.173442
v 0.385533 1.282238 -0.172905
v 0.247232 1.330901 -0.084315
v 0.269710 1.373492 -0.043982
v 0.288615 1.404334 -0.051575
v 0.248848 1.318712 -0.126329
v 0.298665 1.427951 -0.070737
v 0.289327 1.377615 -0.174263
v 0.301595 1.404972 -0.163455
v 0.342170 1.260854 -0.079093
v 0.354702 1.282966 -0.172336
v 0.367441 1.300344 -0.173749
v 0.211483 1.357836 -0.078359
v 0.209103 1.349419 -0.122285
v 0.210369 1.391684 -0.175456
v 0.231679 1.425990 -0.016180
v 0.254644 1.463013 -0.032011
v 0.265110 1.489524 -0.056624
v 0.240792 1.430382 -0.179248
v 0.254845 1.460839 -0.159642
v 0.200436 1.460380 0.008517
v 0.209930 1.502289 -0.013726
v 0.214198 1.532362 -0.042420
v 0.181703 1.457568 -0.185534
v 0.198437 1.498340 -0.166811
v 0.193520 1.425878 0.013413
v 0.165136 1.411304 -0.189786
v 0.384211 1.242465 -0.074674
v 0.281777 1.313462 -0.065271
v 0.290267 1.324361 -0.053886
v 0.333835 1.395279 -0.106496
v 0.292930 1.303766 -0.156362
v 0.308067 1.323069 -0.169191
v 0.332208 1.387343 -0.138030
v 0.378044 1.232992 -0.082305
v 0.331670 1.310730 -0.049977
v 0.306210 1.277706 -0.091005
v 0.362219 1.354595 -0.075611
v 0.353399 1.236691 -0.134167
v 0.357758 1.246843 -0.161619
v 0.392317 1.299151 -0.164388
v 0.397022 1.314288 -0.147005
v 0.362694 1.363648 -0.111148
v 0.354244 1.337188 -0.161877
v 0.251871 1.344039 -0.059314
v 0.258764 1.357497 -0.048729
v 0.301228 1.440922 -0.100872
v 0.259582 1.329092 -0.158037
v 0.272818 1.351123 -0.171240
v 0.303376 1.429683 -0.133816
v 0.279645 1.293769 -0.124927
v 0.321786 1.342831 -0.170279
v 0.319377 1.368471 -0.052076
v 0.328942 1.364640 -0.160651
v 0.312056 1.285669 -0.070638
v 0.335447 1.253633 -0.098073
v 0.388945 1.325670 -0.083165
v 0.350702 1.338055 -0.053809
v 0.306542 1.273207 -0.126361
v 0.333698 1.301383 -0.169956
v 0.384344 1.338168 -0.115777
v 0.348170 1.318275 -0.171877
v 0.331375 1.254428 -0.129799
v 0.360855 1.284236 -0.060450
v 0.378526 1.308067 -0.065115
v 0.351127 1.269201 -0.066873
v 0.378696 1.333106 -0.145315
v 0.374230 1.317597 -0.164129
v 0.338247 1.265213 -0.159709
v 0.209750 1.383304 -0.041249
v 0.203657 1.360430 -0.156277
v 0.225821 1.342519 -0.126626
v 0.246090 1.374612 -0.173775
v 0.228860 1.367687 -0.053211
v 0.224573 1.351247 -0.083121
v 0.198551 1.339599 -0.111423
v 0.174236 1.356205 -0.162065
v 0.196698 1.375388 -0.032311
v 0.202468 1.350983 -0.067550
v 0.266119 1.498630 -0.091962
v 0.262127 1.486920 -0.128187
v 0.279199 1.433286 -0.160430
v 0.283976 1.470356 -0.096070
v 0.281796 1.459404 -0.064857
v 0.266305 1.405040 -0.177680
v 0.270812 1.434595 -0.043631
v 0.248498 1.401231 -0.033872
v 0.217821 1.407180 -0.020246
v 0.215088 1.541218 -0.082264
v 0.209724 1.529878 -0.128594
v 0.241356 1.514665 -0.048502
v 0.233141 1.485346 -0.022321
v 0.229008 1.484406 -0.163331
v 0.242413 1.523706 -0.086273
v 0.216103 1.445235 -0.002414
v 0.212009 1.448606 -0.182202
v 0.143097 1.402705 -0.193312
v 0.198501 1.416164 -0.000817
v 0.185350 1.404346 -0.183927
v 0.194587 1.436712 0.014539
v 0.185457 1.549639 -0.081454
v 0.186939 1.539542 -0.040165
v 0.149246 1.458641 -0.188182
v 0.161083 1.502981 -0.168560
v 0.185598 1.512736 -0.010292
v 0.184174 1.472529 0.015221
v 0.189113 1.424508 0.019773
v 0.318276 1.283430 -0.157500
v 0.359022 1.353297 -0.141567
v 0.320357 1.295743 -0.057258
v 0.233921 1.350363 -0.159437
v 0.185443 1.345666 -0.146393
v 0.283152 1.458928 -0.129953
v 0.236348 1.383797 -0.039480
v 0.238493 1.511691 -0.127526
v 0.157188 1.368327 -0.176947
v 0.193012 1.403916 0.005033
v 0.205045 1.426534 -0.000911
v 0.175131 1.539119 -0.130181
v 0.186306 1.444239 0.023350
vt 1.589147 0.157131
vt 1.577507 0.154596
vt 1.575655 0.169437
vt 1.588232 0.171193
vt 1.573150 0.187589
vt 1.586663 0.191000
vt 1.562598 0.152344
vt 1.560754 0.166922
vt 1.557747 0.184308
vt 1.541602 0.165114
vt 1.538111 0.182191
vt 1.545092 0.148626
vt 1.599518 0.176663
vt 1.599425 0.197448
vt 1.599734 0.161368
vt 1.629444 0.164681
vt 1.612596 0.165519
vt 1.613631 0.181377
vt 1.631592 0.183959
vt 1.615959 0.205713
vt 1.634681 0.208348
vt 1.647522 0.156464
vt 1.651215 0.179631
vt 1.654787 0.205061
vt 1.696563 0.140958
vt 1.687303 0.142999
vt 1.692505 0.166081
vt 1.701541 0.162483
vt 1.698730 0.188760
vt 1.707530 0.184721
vt 1.682877 0.170047
vt 1.688478 0.193398
vt 1.677721 0.147190
vt 1.666589 0.176325
vt 1.671036 0.200913
vt 1.661998 0.152127
vt 1.707877 0.137943
vt 1.712473 0.157705
vt 1.718295 0.177455
vt 1.729636 0.148890
vt 1.735923 0.164647
vt 1.725273 0.134394
vt 1.705342 0.214167
vt 1.714076 0.208129
vt 1.694726 0.219199
vt 1.726849 0.198312
vt 1.744965 0.181938
vt 1.567474 0.212064
vt 1.584061 0.217479
vt 1.656862 0.235018
vt 1.674387 0.227617
vt 1.600314 0.224479
vt 1.638300 0.239880
vt 1.619440 0.234214
vt 1.552456 0.206682
vt 1.533831 0.202068
vt 1.723462 0.120888
vt 1.703635 0.114383
vt 1.672181 0.119865
vt 1.657893 0.125517
vt 1.690138 0.116194
vt 1.642974 0.128583
vt 1.682241 0.118245
vt 1.626544 0.147828
vt 1.612267 0.151021
vt 1.600100 0.147636
vt 1.589983 0.143833
vt 1.579078 0.141133
vt 1.564589 0.138018
vt 1.549187 0.132709
vt 1.547595 0.224780
vt 1.563347 0.231652
vt 1.538648 0.240216
vt 1.555586 0.252022
vt 1.529989 0.218155
vt 1.524914 0.224629
vt 1.720239 0.226138
vt 1.735527 0.212913
vt 1.724822 0.240730
vt 1.740095 0.219897
vt 1.753013 0.195264
vt 1.757679 0.201587
vt 1.525932 0.243114
vt 1.529477 0.254276
vt 1.517155 0.224218
vt 1.734014 0.245887
vt 1.745315 0.225710
vt 1.761232 0.207166
vt 1.621034 0.253882
vt 1.639879 0.258982
vt 1.621495 0.273381
vt 1.641274 0.277742
vt 1.601338 0.244303
vt 1.600987 0.264655
vt 1.657650 0.255399
vt 1.659920 0.275132
vt 1.583036 0.237252
vt 1.581415 0.256984
vt 1.675537 0.247881
vt 1.677545 0.267245
vt 1.698128 0.239634
vt 1.699998 0.258647
vt 1.709875 0.234053
vt 1.711925 0.253695
vt 1.816414 0.547918
vt 1.817127 0.571035
vt 1.835914 0.570225
vt 1.833614 0.548052
vt 1.664447 0.294603
vt 1.682996 0.284794
vt 1.620998 0.292433
vt 1.643737 0.297133
vt 1.816942 0.593536
vt 1.815561 0.618168
vt 1.834125 0.616905
vt 1.835041 0.591569
vt 1.814393 0.643961
vt 1.832526 0.644023
vt 1.597975 0.283925
vt 1.816842 0.520213
vt 1.830756 0.520896
vt 1.703080 0.273460
vt 1.815050 0.668369
vt 1.832258 0.670109
vt 1.576709 0.275368
vt 1.530807 0.268491
vt 1.552025 0.267625
vt 1.817916 0.696483
vt 1.820951 0.719796
vt 1.839078 0.705682
vt 1.830167 0.697471
vt 1.814566 0.490284
vt 1.814393 0.499532
vt 1.824535 0.500718
vt 1.827814 0.497193
vt 1.718688 0.268844
vt 1.726369 0.269544
vt 1.815760 0.507303
vt 1.827817 0.506452
vt 1.712239 0.269999
vt 1.851761 0.591701
vt 1.851271 0.569082
vt 1.848715 0.675868
vt 1.851797 0.648439
vt 1.848905 0.547497
vt 1.843080 0.521337
vt 1.852999 0.619042
vt 1.835907 0.505681
vn 0.1300 0.1773 -0.9755
vn -0.2111 -0.1544 -0.9652
vn -0.2201 -0.1720 -0.9602
vn 0.0983 0.1809 -0.9786
vn -0.1622 -0.2154 -0.9630
vn 0.1504 0.1179 -0.9816
vn -0.5196 -0.5136 -0.6829
vn -0.4885 -0.5277 -0.6949
vn -0.4421 -0.5640 -0.6975
vn -0.6245 -0.7625 -0.1693
vn -0.6216 -0.7691 -0.1490
vn -0.6367 -0.7534 -0.1645
vn 0.4235 0.4790 -0.7689
vn 0.5041 0.4048 -0.7629
vn 0.4255 0.4811 -0.7665
vn 0.7424 0.6674 -0.0589
vn 0.6247 0.6427 -0.4435
vn 0.6424 0.6244 -0.4444
vn 0.7416 0.6698 -0.0385
vn 0.7248 0.5707 -0.3859
vn 0.7816 0.6235 0.0190
vn 0.7311 0.5208 0.4407
vn 0.6888 0.5625 0.4574
vn 0.6694 0.5519 0.4973
vn -0.4302 -0.6855 0.5873
vn -0.1728 -0.4912 0.8537
vn -0.2448 -0.4825 0.8410
vn -0.4549 -0.6686 0.5883
vn -0.2855 -0.4099 0.8663
vn -0.4917 -0.6147 0.6167
vn 0.0572 -0.1817 0.9817
vn -0.0090 -0.1029 0.9946
vn 0.1610 -0.2073 0.9649
vn 0.4237 0.2306 0.8760
vn 0.3628 0.2843 0.8875
vn 0.4894 0.1522 0.8586
vn -0.5721 -0.7784 0.2584
vn -0.5799 -0.7642 0.2824
vn -0.6099 -0.7308 0.3065
vn -0.2095 -0.4053 0.8899
vn -0.4732 -0.6030 0.6423
vn 0.1092 -0.1248 0.9862
vn -0.6334 -0.7082 0.3119
vn -0.6497 -0.7492 -0.1289
vn -0.1329 -0.2516 -0.9587
vn 0.1901 0.0693 -0.9793
vn 0.7622 0.4266 0.4869
vn 0.4767 0.1996 0.8561
vn 0.5478 0.4005 -0.7345
vn 0.8409 0.5398 0.0395
vn 0.7523 0.5580 -0.3502
vn -0.4458 -0.5780 -0.6835
vn -0.0579 -0.9577 -0.2820
vn 0.1889 -0.9819 0.0135
vn 0.7125 -0.4731 0.5182
vn 0.8498 -0.1924 0.4907
vn 0.2307 -0.9220 0.3110
vn 0.9827 0.0170 0.1843
vn 0.4276 -0.7158 0.5520
vn 0.9530 0.2562 -0.1617
vn 0.8679 0.1983 -0.4554
vn 0.7461 -0.0004 -0.6658
vn 0.5779 -0.2065 -0.7895
vn 0.3775 -0.4137 -0.8285
vn 0.1006 -0.7122 -0.6948
vn -0.3836 -0.6270 -0.6780
vn -0.1132 -0.2575 -0.9596
vn 0.0442 -0.7384 -0.6729
vn 0.0619 -0.3113 -0.9483
vn -0.5370 -0.8376 -0.1002
vn 0.1031 -0.9869 -0.1241
vn -0.3091 -0.6876 0.6570
vn -0.4930 -0.8063 0.3269
vn 0.3899 -0.6510 0.6513
vn 0.2487 -0.8937 0.3735
vn -0.4837 -0.8012 -0.3524
vn -0.5945 -0.5500 -0.5866
vn -0.2571 -0.9565 0.1381
vn -0.2432 -0.6095 0.7546
vn -0.1899 -0.7787 0.5980
vn 0.7374 0.5600 -0.3777
vn 0.8527 0.5224 -0.0017
vn 0.6831 0.5960 -0.4220
vn 0.7846 0.6185 -0.0438
vn 0.5306 0.4528 -0.7165
vn 0.5089 0.4609 -0.7271
vn 0.8292 0.3578 0.4294
vn 0.7829 0.4603 0.4187
vn 0.1932 0.1129 -0.9746
vn 0.2408 0.1393 -0.9605
vn 0.6403 0.0959 0.7621
vn 0.6671 0.1589 0.7278
vn 0.3496 -0.2259 0.9092
vn 0.5051 -0.2030 0.8388
vn 0.0001 -0.5026 0.8645
vn 0.3359 -0.5212 0.7846
vn 0.6018 0.3043 0.7384
vn 0.6476 0.6205 0.4423
vn 0.4328 0.7749 0.4607
vn 0.4722 0.4648 0.7490
vn 0.5557 0.7004 -0.4479
vn 0.6368 0.7700 -0.0394
vn 0.3465 0.8127 -0.4685
vn 0.4125 0.9107 -0.0208
vn 0.4147 0.4972 -0.7621
vn 0.2335 0.5503 -0.8016
vn 0.5877 -0.0395 0.8081
vn 0.5805 0.1806 0.7940
vn 0.2372 0.1551 -0.9590
vn 0.1494 0.2104 -0.9661
vn -0.6622 -0.4173 -0.6224
vn 0.1903 -0.2239 -0.9559
vn -0.6868 -0.2047 -0.6974
vn 0.1677 -0.1044 -0.9803
vn -0.1728 -0.5006 0.8483
vn 0.7065 -0.4029 0.5819
vn 0.7988 -0.1973 0.5684
vn -0.1953 -0.2348 0.9522
vn 0.5870 -0.3442 0.7328
vn 0.7041 -0.0687 0.7068
vn -0.5323 0.8374 0.1241
vn -0.4998 0.6704 0.5484
vn -0.7203 0.1221 -0.6829
vn -0.6891 0.4238 -0.5878
vn -0.4772 0.4108 0.7769
vn -0.4147 0.2244 0.8819
vn -0.6081 0.7280 -0.3166
vn -0.3053 0.0291 0.9518
usemtl Armour_Metal_Battered.001
s 1
f 20/1/1 19/2/2 68/3/3 70/4/4
f 70/4/4 68/3/3 41/5/5 60/6/6
f 19/2/2 77/7/7 116/8/8 68/3/3
f 68/3/3 116/8/8 40/9/9 41/5/5
f 116/8/8 67/10/10 59/11/11 40/9/9
f 77/7/7 71/12/12 67/10/10 116/8/8
f 52/13/13 70/4/4 60/6/6 62/14/14
f 76/15/15 20/1/1 70/4/4 52/13/13
f 69/16/16 75/17/17 117/18/18 51/19/19
f 51/19/19 117/18/18 42/20/20 39/21/21
f 117/18/18 52/13/13 62/14/14 42/20/20
f 75/17/17 76/15/15 52/13/13 117/18/18
f 65/22/22 69/16/16 51/19/19 46/23/23
f 46/23/23 51/19/19 39/21/21 6/24/24
f 18/25/25 74/26/26 118/27/27 63/28/28
f 63/28/28 118/27/27 38/29/29 37/30/30
f 118/27/27 44/31/31 5/32/32 38/29/29
f 74/26/26 72/33/33 44/31/31 118/27/27
f 66/34/34 46/23/23 6/24/24 61/35/35
f 73/36/36 65/22/22 46/23/23 66/34/34
f 64/37/37 18/25/25 63/28/28 45/38/38
f 45/38/38 63/28/28 37/30/30 4/39/39
f 44/31/31 66/34/34 61/35/35 5/32/32
f 72/33/33 73/36/36 66/34/34 44/31/31
f 67/40/10 45/38/38 4/39/39 59/41/11
f 71/42/12 64/37/37 45/38/38 67/40/10
f 37/30/30 38/29/29 54/43/40 53/44/41
f 38/29/29 5/32/32 12/45/42 54/43/40
f 59/41/11 4/39/39 11/46/43 14/47/44
f 60/6/6 41/5/5 57/48/45 16/49/46
f 61/35/35 6/24/24 15/50/47 13/51/48
f 4/39/39 37/30/30 53/44/41 11/46/43
f 62/14/14 60/6/6 16/49/46 17/52/49
f 6/24/24 39/21/21 55/53/50 15/50/47
f 5/32/32 61/35/35 13/51/48 12/45/42
f 39/21/21 42/20/20 58/54/51 55/53/50
f 42/20/20 62/14/14 17/52/49 58/54/51
f 41/5/5 40/9/9 56/55/52 57/48/45
f 40/9/9 59/11/11 14/56/44 56/55/52
f 47/57/53 7/58/54 64/37/37 71/42/12
f 1/59/55 2/60/56 73/36/36 72/33/33
f 7/58/54 43/61/57 18/25/25 64/37/37
f 2/60/56 3/62/58 65/22/22 73/36/36
f 43/61/57 36/63/59 74/26/26 18/25/25
f 36/63/59 1/59/55 72/33/33 74/26/26
f 3/62/58 8/64/60 69/16/16 65/22/22
f 8/64/60 50/65/61 75/17/17 69/16/16
f 50/65/61 49/66/62 76/15/15 75/17/17
f 49/66/62 10/67/63 20/1/1 76/15/15
f 9/68/64 48/69/65 77/7/7 19/2/2
f 48/69/65 47/70/53 71/12/12 77/7/7
f 10/67/63 9/68/64 19/2/2 20/1/1
f 57/48/45 56/55/52 119/71/66 81/72/67
f 81/72/67 119/71/66 79/73/68 23/74/69
f 119/71/66 80/75/70 22/76/71 79/73/68
f 56/55/52 14/56/44 80/75/70 119/71/66
f 11/46/43 53/44/41 82/77/72 83/78/73
f 83/78/73 82/77/72 78/79/74 21/80/75
f 80/81/70 83/78/73 21/80/75 22/82/71
f 14/47/44 11/46/43 83/78/73 80/81/70
f 23/74/69 79/73/68 120/83/76 85/84/77
f 79/73/68 22/76/71 84/85/78 120/83/76
f 21/80/75 78/79/74 86/86/79 87/87/80
f 22/82/71 21/80/75 87/87/80 84/88/78
f 55/53/50 58/54/51 121/89/81 91/90/82
f 91/90/82 121/89/81 89/91/83 88/92/84
f 121/89/81 90/93/85 28/94/86 89/91/83
f 58/54/51 17/52/49 90/93/85 121/89/81
f 15/50/47 55/53/50 91/90/82 92/95/87
f 92/95/87 91/90/82 88/92/84 26/96/88
f 90/93/85 93/97/89 27/98/90 28/94/86
f 17/52/49 16/49/46 93/97/89 90/93/85
f 94/99/91 92/95/87 26/96/88 25/100/92
f 13/51/48 15/50/47 92/95/87 94/99/91
f 95/101/93 94/99/91 25/100/92 24/102/94
f 12/45/42 13/51/48 94/99/91 95/101/93
f 27/98/90 93/97/89 81/72/67 23/74/69
f 93/97/89 16/49/46 57/48/45 81/72/67
f 78/79/74 82/77/72 122/103/95 96/104/96
f 96/104/96 122/103/95 95/101/93 24/102/94
f 122/103/95 54/43/40 12/45/42 95/101/93
f 82/77/72 53/44/41 54/43/40 122/103/95
f 100/105/97 99/106/98 31/107/99 30/108/100
f 25/100/92 26/96/88 99/109/98 100/110/97
f 88/92/84 89/91/83 123/111/101 102/112/102
f 102/113/102 123/114/101 98/115/103 97/116/104
f 123/114/101 101/117/105 33/118/106 98/115/103
f 89/91/83 28/94/86 101/119/105 123/111/101
f 26/96/88 88/92/84 102/112/102 99/109/98
f 99/106/98 102/113/102 97/116/104 31/107/99
f 103/120/107 100/105/97 30/108/100 29/121/108
f 24/102/94 25/100/92 100/110/97 103/122/107
f 101/117/105 104/123/109 32/124/110 33/118/106
f 28/94/86 27/98/90 104/125/109 101/119/105
f 23/74/69 85/84/77 124/126/111 107/127/112
f 107/128/112 124/129/111 105/130/113 35/131/114
f 125/132/115 106/133/116 34/134/117 115/135/118
f 86/86/79 78/79/74 106/136/116 125/137/115
f 32/124/110 104/123/109 107/128/112 35/131/114
f 104/125/109 27/98/90 23/74/69 107/127/112
f 34/134/117 106/133/116 126/138/119 108/139/120
f 108/139/120 126/138/119 103/120/107 29/121/108
f 126/140/119 96/104/96 24/102/94 103/122/107
f 106/136/116 78/79/74 96/104/96 126/140/119
f 31/107/99 97/116/104 109/141/121 110/142/122
f 33/118/106 32/124/110 111/143/123 112/144/124
f 29/121/108 30/108/100 113/145/125 114/146/126
f 32/124/110 35/131/114 105/130/113 111/143/123
f 97/116/104 98/115/103 127/147/127 109/141/121
f 98/115/103 33/118/106 112/144/124 127/147/127
f 30/108/100 31/107/99 110/142/122 113/145/125
f 34/134/117 108/139/120 128/148/128 115/135/118
f 108/139/120 29/121/108 114/146/126 128/148/128
f 1/59/55 36/63/59 43/61/57 7/58/54 47/57/53 48/69/65 9/68/64 10/67/63 49/66/62 50/65/61 8/64/60 3/62/58 2/60/56
f 120/83/76 84/85/78 87/87/80 86/86/79 125/137/115 115/135/118 128/148/128 114/146/126 113/145/125 110/142/122 109/141/121 127/147/127 112/144/124 111/143/123 105/130/113 124/129/111 85/84/77
