# Blender v2.91.0 OBJ File: ''
# www.blender.org
mtllib coude_droit.mtl
o Soi_SimpleArmor.003_Plane.024
v -0.420321 1.292149 -0.092603
v -0.395960 1.204631 -0.121042
v -0.371891 1.224930 -0.103815
v -0.402758 1.315262 -0.121544
v -0.373812 1.265296 -0.173443
v -0.398367 1.243321 -0.172172
v -0.385533 1.282238 -0.172905
v -0.438108 1.235793 -0.154729
v -0.408482 1.260362 -0.169838
v -0.444189 1.250200 -0.145601
v -0.444395 1.278297 -0.109778
v -0.420543 1.296848 -0.121172
v -0.353400 1.236691 -0.134167
v -0.363324 1.228264 -0.137871
v -0.385278 1.213998 -0.131171
v -0.373712 1.221402 -0.133501
v -0.430920 1.287380 -0.118716
v -0.411002 1.306440 -0.124751
v -0.412609 1.232200 -0.165668
v -0.414661 1.204620 -0.141536
v -0.382257 1.224886 -0.158881
v -0.385900 1.254317 -0.173709
v -0.357758 1.246843 -0.161619
v -0.420776 1.249711 -0.164227
v -0.428741 1.220064 -0.153726
v -0.397072 1.271171 -0.172199
v -0.425834 1.263262 -0.154278
v -0.413812 1.275455 -0.160140
v -0.403033 1.286858 -0.163070
v -0.392317 1.299152 -0.164388
v -0.448213 1.264047 -0.129280
v -0.417496 1.290538 -0.142761
v -0.397023 1.314288 -0.147005
v -0.397299 1.215117 -0.152713
v -0.369868 1.236338 -0.161809
v -0.429653 1.278255 -0.136903
v -0.407161 1.302220 -0.146141
vt 0.703635 0.114383
vt 0.720421 0.109634
vt 0.724126 0.114585
vt 0.723462 0.120888
vt 0.714070 0.097536
vt 0.719401 0.103368
vt 0.642974 0.128583
vt 0.626091 0.133194
vt 0.625718 0.125145
vt 0.628811 0.115299
vt 0.626544 0.147828
vt 0.624485 0.141152
vt 0.585381 0.104038
vt 0.583138 0.115505
vt 0.569789 0.111093
vt 0.573182 0.099188
vt 0.581419 0.124788
vt 0.567349 0.120749
vt 0.553358 0.116726
vt 0.556613 0.108162
vt 0.557828 0.097326
vt 0.580160 0.132975
vt 0.566129 0.129731
vt 0.579078 0.141133
vt 0.564589 0.138018
vt 0.549187 0.132709
vt 0.552635 0.125117
vt 0.594730 0.107374
vt 0.592772 0.119271
vt 0.591440 0.127763
vt 0.590643 0.135718
vt 0.589982 0.143833
vt 0.601974 0.121530
vt 0.600859 0.130846
vt 0.604274 0.109242
vt 0.600229 0.139110
vt 0.600100 0.147636
vt 0.614449 0.124093
vt 0.615903 0.110806
vt 0.613136 0.133862
vt 0.612253 0.142477
vt 0.612267 0.151021
vn 0.6056 -0.7946 0.0430
vn 0.5593 -0.8196 -0.1242
vn 0.6042 -0.7746 -0.1869
vn 0.6405 -0.7487 -0.1712
vn 0.4886 -0.8553 -0.1725
vn 0.5092 -0.8450 -0.1635
vn -0.6359 0.7660 0.0943
vn -0.7126 0.6949 -0.0970
vn -0.6613 0.7340 -0.1545
vn -0.6501 0.7367 -0.1860
vn -0.7270 0.6812 -0.0861
vn -0.7366 0.6686 -0.1016
vn -0.2383 -0.4700 -0.8499
vn -0.2085 -0.3969 -0.8939
vn 0.2071 -0.7821 -0.5878
vn 0.1587 -0.8083 -0.5669
vn -0.0684 -0.2819 -0.9570
vn 0.3316 -0.7031 -0.6290
vn 0.0768 -0.1824 -0.9802
vn 0.4448 -0.5779 -0.6842
vn 0.1238 -0.1421 -0.9821
vn 0.4990 -0.5241 -0.6901
vn -0.5162 0.0251 -0.8561
vn -0.5060 0.0699 -0.8597
vn -0.4176 0.1287 -0.8995
vn -0.2883 0.1680 -0.9427
vn -0.2575 0.1950 -0.9464
vn -0.6439 0.3789 -0.6647
vn -0.6296 0.3787 -0.6784
vn -0.6209 0.4003 -0.6740
vn -0.5585 0.3972 -0.7282
vn -0.5548 0.4274 -0.7138
vn -0.6899 0.5616 -0.4568
vn -0.6531 0.5822 -0.4843
vn -0.7219 0.5392 -0.4339
vn -0.7040 0.5645 -0.4309
vn -0.6954 0.5923 -0.4068
usemtl Armour_Metal_Battered.005
s 1
f 3/1/1 16/2/2 14/3/3 13/4/4
f 3/1/1 2/5/5 15/6/6 16/2/2
f 1/7/7 12/8/8 17/9/9 11/10/10
f 1/7/7 4/11/11 18/12/12 12/8/8
f 25/13/13 19/14/14 34/15/15 20/16/16
f 19/14/14 6/17/17 21/18/18 34/15/15
f 34/15/15 21/18/18 16/19/2 15/20/6
f 20/16/16 34/15/15 15/20/6 2/21/5
f 6/17/17 22/22/19 35/23/20 21/18/18
f 22/22/19 5/24/21 23/25/22 35/23/20
f 35/23/20 23/25/22 13/26/4 14/27/3
f 21/18/18 35/23/20 14/27/3 16/19/2
f 8/28/23 24/29/24 19/14/14 25/13/13
f 24/29/24 9/30/25 6/17/17 19/14/14
f 9/30/25 26/31/26 22/22/19 6/17/17
f 26/31/26 7/32/27 5/24/21 22/22/19
f 27/33/28 28/34/29 9/30/25 24/29/24
f 10/35/30 27/33/28 24/29/24 8/28/23
f 29/36/31 30/37/32 7/32/27 26/31/26
f 28/34/29 29/36/31 26/31/26 9/30/25
f 11/10/10 17/9/9 36/38/33 31/39/34
f 17/9/9 12/8/8 32/40/35 36/38/33
f 36/38/33 32/40/35 28/34/29 27/33/28
f 31/39/34 36/38/33 27/33/28 10/35/30
f 12/8/8 18/12/12 37/41/36 32/40/35
f 18/12/12 4/11/11 33/42/37 37/41/36
f 37/41/36 33/42/37 30/37/32 29/36/31
f 32/40/35 37/41/36 29/36/31 28/34/29
