# Blender v2.91.0 OBJ File: ''
# www.blender.org
mtllib epaule_droite.mtl
o Soi_SimpleArmor.001_Plane.022
v -0.195203 1.326572 -0.054609
v -0.189828 1.318933 -0.096165
v -0.161032 1.331693 -0.148182
v -0.125322 1.394194 -0.196695
v -0.167807 1.483812 0.018067
v -0.156436 1.520632 -0.007693
v -0.152851 1.542450 -0.037011
v -0.115891 1.453747 -0.190834
v -0.118674 1.502908 -0.166723
v -0.185212 1.423424 0.026677
v -0.189545 1.345319 -0.015533
v -0.174799 1.323352 -0.129416
v -0.198551 1.339599 -0.111424
v -0.174236 1.356205 -0.162065
v -0.196698 1.375388 -0.032311
v -0.202469 1.350983 -0.067550
v -0.143097 1.402705 -0.193312
v -0.144455 1.346234 -0.170130
v -0.145693 1.555455 -0.080820
v -0.128775 1.546450 -0.131171
v -0.185457 1.549639 -0.081454
v -0.186939 1.539542 -0.040165
v -0.149246 1.458641 -0.188182
v -0.161083 1.502981 -0.168560
v -0.185598 1.512736 -0.010292
v -0.184174 1.472529 0.015221
v -0.189114 1.424508 0.019773
v -0.191001 1.393350 0.011677
v -0.179245 1.450837 0.028764
v -0.185443 1.345666 -0.146393
v -0.157188 1.368327 -0.176947
v -0.193012 1.403916 0.005033
v -0.175131 1.539119 -0.130181
v -0.186306 1.444239 0.023350
vt 0.529477 0.254276
vt 0.514312 0.252476
vt 0.510372 0.241054
vt 0.525932 0.243114
vt 0.503160 0.222549
vt 0.517155 0.224218
vt 0.745315 0.225710
vt 0.759090 0.233225
vt 0.752485 0.252834
vt 0.734014 0.245887
vt 0.761232 0.207166
vt 0.769711 0.216402
vt 0.820951 0.719796
vt 0.839078 0.705682
vt 0.846100 0.713149
vt 0.820285 0.733151
vt 0.530807 0.268491
vt 0.518065 0.268502
vt 0.733048 0.270919
vt 0.726369 0.269544
vt 0.814581 0.482441
vt 0.831017 0.493436
vt 0.827814 0.497193
vt 0.814566 0.490284
vt 0.851271 0.569082
vt 0.870746 0.567024
vt 0.873994 0.593228
vt 0.851761 0.591701
vt 0.851797 0.648439
vt 0.873233 0.654974
vt 0.863933 0.684121
vt 0.848715 0.675868
vt 0.843080 0.521337
vt 0.854946 0.521985
vt 0.866839 0.546090
vt 0.848905 0.547497
vt 0.878190 0.623413
vt 0.852999 0.619042
vt 0.842243 0.505210
vt 0.835907 0.505681
vn -0.7946 -0.2967 -0.5298
vn 0.5074 -0.7611 -0.4040
vn 0.3018 -0.9154 -0.2663
vn -0.8226 -0.3478 -0.4499
vn -0.0098 -0.9897 0.1431
vn -0.9322 -0.2695 -0.2416
vn -0.9938 -0.1060 -0.0341
vn -0.1197 -0.7380 0.6641
vn -0.0451 -0.5567 0.8295
vn -0.9996 -0.0282 0.0062
vn -0.6948 -0.2573 -0.6716
vn -0.5982 -0.0368 -0.8005
vn 0.6517 -0.3204 -0.6875
vn 0.5501 -0.6532 -0.5204
vn -0.1321 -0.4766 0.8691
vn -0.9975 -0.0072 0.0699
vn 0.1107 -0.2054 0.9724
vn -0.9779 0.0369 0.2056
vn -0.7136 0.6737 0.1921
vn 0.5769 0.5937 0.5609
vn 0.6102 0.7699 0.1868
vn -0.6917 0.7151 -0.1012
vn -0.6002 0.4332 -0.6724
vn 0.7956 0.3229 -0.5127
vn 0.7667 0.0656 -0.6386
vn -0.5941 0.2481 -0.7651
vn -0.8580 0.3240 0.3985
vn 0.4458 0.2643 0.8552
vn 0.5306 0.3979 0.7485
vn -0.7873 0.4977 0.3640
vn 0.7079 0.6420 -0.2945
vn -0.6422 0.6311 -0.4352
vn 0.2843 0.1007 0.9535
vn -0.9293 0.1350 0.3437
usemtl Armour_Metal_Battered.011
s 1
f 14/1/1 3/2/2 12/3/3 30/4/4
f 30/4/4 12/3/3 2/5/5 13/6/6
f 16/7/7 1/8/8 11/9/9 15/10/10
f 13/11/6 2/12/5 1/8/8 16/7/7
f 31/13/11 17/14/12 4/15/13 18/16/14
f 14/1/1 31/17/11 18/18/14 3/2/2
f 11/9/9 28/19/15 32/20/16 15/10/10
f 28/21/15 10/22/17 27/23/18 32/24/16
f 22/25/19 7/26/20 19/27/21 21/28/22
f 24/29/23 9/30/24 8/31/25 23/32/26
f 26/33/27 5/34/28 6/35/29 25/36/30
f 23/32/26 8/31/25 4/15/13 17/14/12
f 21/28/22 19/27/21 20/37/31 33/38/32
f 33/38/32 20/37/31 9/30/24 24/29/23
f 25/36/30 6/35/29 7/26/20 22/25/19
f 27/23/18 10/22/17 29/39/33 34/40/34
f 34/40/34 29/39/33 5/34/28 26/33/27
f 3/2/2 18/18/14 4/15/13 8/31/25 9/30/24 20/37/31 19/27/21 7/26/20 6/35/29 5/34/28 29/39/33 10/22/17 28/21/15 11/9/9 1/8/8 2/12/5 12/3/3
f 30/4/4 13/6/6 16/7/7 15/10/10 32/20/16 27/23/18 34/40/34 26/33/27 25/36/30 22/25/19 21/28/22 33/38/32 24/29/23 23/32/26 17/14/12 31/13/11 14/1/1
