# Blender v2.91.0 OBJ File: ''
# www.blender.org
mtllib jambe_droite.mtl
o Soi_SimpleArmor.001_Plane.006
v -0.159462 0.534486 -0.135194
v -0.190478 0.568985 -0.088763
v -0.134580 0.622783 0.038107
v -0.060500 0.622352 -0.038783
v -0.061719 0.616803 -0.078604
v -0.186132 0.621203 -0.090245
v -0.146937 0.615389 -0.125257
v -0.094610 0.614425 -0.121286
v -0.109278 0.527996 -0.135591
v -0.072985 0.546012 -0.084405
v -0.141068 0.569446 0.026328
v -0.109841 0.568971 0.015742
v -0.194504 0.578974 -0.055544
v -0.131626 0.770993 0.072452
v -0.038283 0.746588 -0.022739
v -0.041682 0.750847 -0.069723
v -0.190651 0.791251 -0.083281
v -0.139465 0.787711 -0.118034
v -0.078765 0.772452 -0.112155
v -0.120230 0.816712 0.078320
v -0.036224 0.783648 -0.064436
v -0.181818 0.844625 -0.079294
v -0.130735 0.838462 -0.116288
v -0.071104 0.813606 -0.110153
v -0.082578 0.727609 -0.112346
v -0.171546 0.731037 0.042854
v -0.141331 0.735224 -0.120058
v -0.132995 0.723952 0.060640
v -0.046262 0.714460 -0.071390
v -0.191317 0.733587 -0.088746
v -0.085605 0.679027 -0.113611
v -0.092340 0.674116 0.037348
v -0.140852 0.680739 -0.121036
v -0.131854 0.675711 0.049124
v -0.051746 0.674841 -0.072632
v -0.187529 0.676188 -0.090229
v -0.198881 0.675724 -0.050807
v -0.183905 0.536056 -0.111031
v -0.134908 0.531788 -0.141956
v -0.168375 0.624236 0.021539
v -0.189613 0.626919 -0.013294
v -0.195168 0.625698 -0.052561
v -0.169829 0.616880 -0.110344
v -0.120466 0.615266 -0.129010
v -0.170858 0.573042 0.011208
v -0.085922 0.570351 -0.011810
v -0.073421 0.559642 -0.047816
v -0.085364 0.519148 -0.110256
v -0.189630 0.578859 -0.019301
v -0.087561 0.755141 0.057378
v -0.171400 0.784443 0.054618
v -0.053960 0.747473 0.023520
v -0.056872 0.759731 -0.094827
v -0.196356 0.789669 0.014142
v -0.202571 0.790932 -0.036572
v -0.169073 0.790311 -0.105245
v -0.107197 0.782928 -0.119470
v -0.077838 0.793573 0.062254
v -0.163689 0.835343 0.063667
v -0.049741 0.796782 -0.091319
v -0.195565 0.843855 -0.030706
v -0.159760 0.843319 -0.102525
v -0.196737 0.732040 0.004396
v -0.042379 0.712525 -0.028493
v -0.061171 0.719837 -0.095219
v -0.090464 0.715537 0.047309
v -0.074147 0.614152 -0.102533
v -0.099077 0.624230 0.027115
v -0.072982 0.626145 -0.001000
v -0.062379 0.675225 0.007601
v -0.167304 0.678525 -0.109410
v -0.168628 0.678012 0.031427
v -0.111995 0.681153 -0.121962
v -0.050222 0.778679 0.031791
v -0.099323 0.828626 -0.118140
v -0.190464 0.842421 0.021952
v -0.035227 0.775945 -0.015243
v -0.138429 0.898286 -0.105117
v -0.177409 0.901562 0.030101
v -0.146756 0.890522 0.068942
v -0.038516 0.834634 -0.087813
v -0.192737 0.677527 -0.005382
v -0.203331 0.733551 -0.043829
v -0.049010 0.675164 -0.031856
v -0.057443 0.712762 0.015482
v -0.169999 0.733529 -0.108825
v -0.065255 0.676249 -0.095895
v -0.110238 0.733934 -0.120337
v -0.031531 0.825194 0.039808
v -0.020771 0.821008 -0.006074
v -0.028566 0.846817 -0.090741
v -0.143833 0.910758 0.075961
v -0.177394 0.925129 0.034962
v -0.073463 0.889846 -0.130361
v -0.132152 0.918745 -0.113003
v -0.102916 0.907142 -0.129454
v -0.178549 0.927629 -0.025177
v -0.157516 0.925007 -0.083142
v -0.018999 0.830767 -0.058732
v -0.053941 0.846745 0.069613
v -0.095087 0.880228 0.088763
v -0.046960 0.868380 -0.116262
v -0.166072 0.940694 -0.023011
v -0.145016 0.937394 -0.079690
v -0.093502 0.919503 -0.124927
v -0.050919 0.858562 0.066802
v -0.020110 0.841035 -0.056101
v -0.088531 0.892610 0.085020
v -0.043126 0.880101 -0.111343
v -0.133636 0.923862 0.072280
v -0.165309 0.938692 0.034579
v -0.120464 0.931020 -0.108863
v -0.066650 0.902188 -0.125460
v -0.031464 0.835922 0.037914
v -0.022340 0.830993 -0.005623
v -0.027885 0.857712 -0.086542
v -0.041305 0.813382 0.036127
v -0.029982 0.808948 -0.008646
v -0.081826 0.875604 -0.121188
v -0.056598 0.855445 -0.110120
v -0.101603 0.864361 0.081511
v -0.062368 0.833755 0.063482
v -0.028489 0.818552 -0.058853
v -0.161887 0.902236 -0.078682
v -0.179936 0.903323 -0.025471
v -0.110538 0.890057 -0.120206
vt 0.512188 0.571061
vt 0.519391 0.550865
vt 0.546904 0.550575
vt 0.543160 0.574655
vt 0.519906 0.528983
vt 0.518077 0.507633
vt 0.546803 0.500706
vt 0.547835 0.525208
vt 0.576203 0.548683
vt 0.576336 0.574799
vt 0.514576 0.488111
vt 0.508874 0.469594
vt 0.538541 0.455949
vt 0.543779 0.477849
vt 0.530097 0.434515
vt 0.515759 0.415393
vt 0.544408 0.400055
vt 0.556971 0.421651
vt 0.573316 0.469259
vt 0.577068 0.494046
vt 0.499393 0.450900
vt 0.483319 0.434100
vt 0.465184 0.419685
vt 0.498966 0.398155
vt 0.530124 0.380232
vt 0.577280 0.520915
vt 0.431996 0.396652
vt 0.424170 0.382505
vt 0.467049 0.360767
vt 0.476682 0.373917
vt 0.492404 0.606017
vt 0.493126 0.585288
vt 0.540023 0.590609
vt 0.539200 0.607413
vt 0.577848 0.591937
vt 0.579767 0.609581
vt 0.487345 0.386787
vt 0.511707 0.353511
vt 0.520694 0.367126
vt 0.442299 0.414839
vt 0.502375 0.339608
vt 0.566064 0.445265
vt 0.492671 0.621705
vt 0.540214 0.623759
vt 0.628158 0.456505
vt 0.613023 0.431755
vt 0.634540 0.421853
vt 0.653581 0.446002
vt 0.607496 0.488122
vt 0.608681 0.515641
vt 0.637880 0.481377
vt 0.641403 0.509233
vt 0.644760 0.586023
vt 0.643607 0.567782
vt 0.674967 0.564726
vt 0.676726 0.583965
vt 0.610310 0.571838
vt 0.611100 0.589646
vt 0.550546 0.367212
vt 0.564645 0.389592
vt 0.583479 0.380899
vt 0.569509 0.355695
vt 0.587950 0.347209
vt 0.600887 0.375263
vt 0.589902 0.438412
vt 0.578244 0.413375
vt 0.598487 0.406568
vt 0.609639 0.544410
vt 0.642491 0.539306
vt 0.673058 0.534396
vt 0.645921 0.625186
vt 0.645764 0.605379
vt 0.677344 0.603702
vt 0.675466 0.623836
vt 0.535893 0.336140
vt 0.542658 0.351920
vt 0.562830 0.338304
vt 0.557953 0.320356
vt 0.579343 0.307271
vt 0.582986 0.327437
vt 0.581021 0.627149
vt 0.613526 0.608075
vt 0.614375 0.626916
vt 0.617285 0.401172
vt 0.680637 0.432668
vt 0.656775 0.408418
vt 0.671409 0.502627
vt 0.601088 0.463145
vt 0.666507 0.472833
vt 0.528014 0.320163
vt 0.551184 0.302740
vt 0.573539 0.287878
vt 0.619922 0.367925
vt 0.637049 0.391947
vt 0.697981 0.462487
vt 0.705550 0.494096
vt 0.708568 0.529456
vt 0.710571 0.564940
vt 0.607726 0.338341
vt 0.711443 0.587247
vt 0.710484 0.607738
vt 0.604227 0.316851
vt 0.602736 0.294912
vt 0.599552 0.274186
vt 0.705809 0.627123
vt 0.719095 0.490930
vt 0.729119 0.488012
vt 0.733130 0.527149
vt 0.722747 0.528191
vt 0.716389 0.630884
vt 0.722194 0.611339
vt 0.731128 0.614154
vt 0.725127 0.633117
vt 0.735068 0.567156
vt 0.724404 0.566524
vt 0.650217 0.383240
vt 0.671564 0.399235
vt 0.665325 0.403319
vt 0.644934 0.386903
vt 0.697748 0.422855
vt 0.690496 0.427766
vt 0.724505 0.590422
vt 0.734459 0.592809
vt 0.710104 0.458499
vt 0.719135 0.454151
vt 0.613106 0.313182
vt 0.619732 0.311280
vt 0.621813 0.332078
vt 0.615919 0.334247
vt 0.618117 0.267482
vt 0.619716 0.289011
vt 0.612072 0.290796
vt 0.609419 0.268899
vt 0.628094 0.363729
vt 0.633339 0.360814
vn -0.8586 -0.4660 -0.2135
vn -0.8203 -0.5568 0.1306
vn -0.9987 -0.0281 -0.0426
vn -0.8992 0.0309 -0.4364
vn -0.7285 -0.5687 0.3819
vn -0.5189 -0.5930 0.6157
vn -0.6681 -0.1290 0.7328
vn -0.9387 -0.0730 0.3368
vn -0.9954 -0.0673 -0.0684
vn -0.8646 -0.0268 -0.5018
vn -0.1370 -0.6214 0.7714
vn 0.2599 -0.6910 0.6745
vn 0.5220 -0.2566 0.8134
vn -0.0733 -0.2098 0.9750
vn 0.8243 -0.2623 0.5016
vn 0.9601 -0.2219 0.1700
vn 0.9712 -0.1973 0.1337
vn 0.8292 -0.2305 0.5092
vn -0.0816 -0.2215 0.9717
vn -0.6577 -0.1711 0.7336
vn 0.5109 -0.7033 0.4943
vn 0.6019 -0.7459 0.2853
vn 0.7170 -0.6949 -0.0552
vn 0.9635 -0.1399 -0.2280
vn 0.9502 -0.1324 -0.2820
vn -0.9325 -0.1151 0.3422
vn 0.3640 -0.7052 -0.6085
vn -0.0896 -0.6739 -0.7333
vn 0.0797 0.1106 -0.9907
vn 0.5034 0.0369 -0.8632
vn -0.5052 -0.6146 -0.6059
vn -0.6768 -0.6489 -0.3476
vn -0.6753 0.0907 -0.7319
vn -0.3521 0.1251 -0.9276
vn -0.5751 0.0150 -0.8180
vn -0.2390 0.0481 -0.9698
vn 0.8028 -0.0510 -0.5941
vn 0.4892 0.0085 -0.8721
vn 0.7706 -0.0557 -0.6349
vn 0.5238 -0.8027 -0.2852
vn 0.1296 0.0497 -0.9903
vn 0.5021 -0.2352 0.8322
vn -0.1114 -0.1825 0.9769
vn 0.4516 -0.2404 0.8592
vn 0.4651 -0.2225 0.8568
vn -0.0448 -0.1003 0.9939
vn -0.6658 -0.1716 0.7261
vn -0.9359 -0.0916 0.3402
vn -0.6635 -0.0821 0.7437
vn -0.9428 0.0075 0.3333
vn -0.5629 0.1016 -0.8202
vn -0.8654 0.1120 -0.4883
vn -0.8480 0.2232 -0.4808
vn -0.5787 0.1656 -0.7986
vn -0.8598 0.0080 -0.5106
vn -0.5478 0.0244 -0.8363
vn 0.9418 -0.1109 -0.3175
vn 0.9809 -0.1577 0.1141
vn 0.9816 -0.1491 0.1192
vn 0.9424 -0.1044 -0.3177
vn 0.9511 -0.1431 -0.2738
vn 0.9734 -0.1854 0.1345
vn 0.4735 -0.2375 0.8482
vn 0.8261 -0.2059 0.5246
vn 0.8208 -0.2167 0.5285
vn -0.9975 -0.0281 -0.0652
vn -0.9948 0.0769 -0.0667
vn -0.9759 0.1999 -0.0880
vn 0.1089 0.0137 -0.9940
vn -0.2226 0.0607 -0.9730
vn -0.2518 0.0583 -0.9660
vn 0.0949 -0.0376 -0.9948
vn 0.4564 -0.0205 -0.8895
vn 0.7429 -0.0637 -0.6664
vn 0.7365 -0.0721 -0.6726
vn 0.4383 -0.0329 -0.8982
vn 0.4449 -0.0941 -0.8906
vn 0.7560 -0.1228 -0.6430
vn -0.2075 0.0294 -0.9778
vn 0.1265 0.0146 -0.9919
vn 0.8086 -0.2485 0.5332
vn -0.0981 -0.2312 0.9680
vn 0.3568 -0.3815 0.8527
vn -0.9322 0.1297 0.3378
vn -0.1101 -0.2378 0.9650
vn -0.6101 0.0351 0.7916
vn 0.8988 -0.4240 0.1117
vn 0.7215 -0.4496 0.5265
vn -0.5990 -0.0665 0.7980
vn -0.9366 0.0681 0.3437
vn -0.9786 0.1608 -0.1282
vn -0.8536 0.1610 -0.4955
vn 0.8743 -0.3949 -0.2824
vn -0.6239 0.0433 -0.7803
vn -0.3388 -0.1428 -0.9300
vn 0.6538 -0.3830 -0.6526
vn 0.3156 -0.3606 -0.8777
vn -0.0247 -0.2918 -0.9562
vn -0.8707 0.3263 0.3681
vn -0.1605 0.9294 0.3322
vn -0.1495 0.9883 -0.0289
vn -0.9061 0.3969 -0.1467
vn 0.1382 -0.1269 -0.9822
vn -0.2410 0.0781 -0.9674
vn 0.3173 0.7532 -0.5762
vn 0.5776 0.5972 -0.5565
vn -0.0514 0.9673 -0.2483
vn -0.7738 0.3881 -0.5005
vn 0.8607 0.3998 0.3153
vn 0.7098 0.4520 0.5402
vn 0.4770 -0.2553 0.8410
vn 0.7947 -0.3434 0.5005
vn 0.4507 0.5752 0.6826
vn 0.0238 -0.0728 0.9971
vn -0.5556 0.2770 -0.7840
vn 0.1018 0.8944 -0.4355
vn -0.4948 0.1628 0.8536
vn 0.1292 0.7682 0.6271
vn 0.7723 -0.2794 -0.5705
vn 0.8667 0.4601 -0.1930
vn 0.8909 0.4540 -0.0080
vn 0.9314 -0.2860 -0.2252
vn 0.7725 0.4957 -0.3969
vn 0.4958 -0.2447 -0.8332
vn 0.9441 -0.3089 0.1151
vn 0.8826 0.4523 0.1287
usemtl Armour_Cloth_Battered.007
s 1
f 2/1/1 13/2/2 42/3/3 6/4/4
f 49/5/5 45/6/6 40/7/7 41/8/8
f 6/4/4 42/3/3 37/9/9 36/10/10
f 11/11/11 12/12/12 68/13/13 3/14/14
f 69/15/15 4/16/16 84/17/17 70/18/18
f 40/7/7 3/14/14 34/19/19 72/20/20
f 12/12/12 46/21/21 69/15/15 68/13/13
f 47/22/22 10/23/23 5/24/24 4/16/16
f 4/16/16 5/24/24 35/25/25 84/17/17
f 42/3/3 41/8/8 82/26/26 37/9/9
f 9/27/27 39/28/28 44/29/29 8/30/30
f 1/31/31 38/32/32 43/33/33 7/34/34
f 7/34/34 43/33/33 71/35/35 33/36/36
f 67/37/37 8/30/30 31/38/38 87/39/39
f 38/32/32 2/1/1 6/4/4 43/33/33
f 48/40/40 9/27/27 8/30/30 67/37/37
f 8/30/30 44/29/29 73/41/41 31/38/38
f 3/14/14 68/13/13 32/42/42 34/19/19
f 10/23/23 48/40/40 67/37/37 5/24/24
f 39/43/28 1/31/31 7/34/34 44/44/29
f 46/21/21 47/22/22 4/16/16 69/15/15
f 45/6/6 11/11/11 3/14/14 40/7/7
f 13/2/2 49/5/5 41/8/8 42/3/3
f 14/45/43 50/46/44 58/47/45 20/48/46
f 82/26/26 72/20/20 26/49/47 63/50/48
f 63/50/48 26/49/47 51/51/49 54/52/50
f 56/53/51 17/54/52 22/55/53 62/56/54
f 71/35/35 36/10/10 30/57/55 86/58/56
f 84/17/17 35/25/25 29/59/57 64/60/58
f 15/61/59 16/62/60 21/63/61 77/64/62
f 66/65/63 85/66/64 52/67/65 50/46/44
f 36/10/10 37/9/9 83/68/66 30/57/55
f 17/54/52 55/69/67 61/70/68 22/55/53
f 57/71/69 18/72/70 23/73/71 75/74/72
f 87/39/39 31/38/38 25/75/73 65/76/74
f 53/77/75 19/78/76 24/79/77 60/80/78
f 16/62/60 53/77/75 60/80/78 21/63/61
f 73/81/41 33/36/36 27/82/79 88/83/80
f 50/46/44 52/67/65 74/84/81 58/47/45
f 33/36/36 71/35/35 86/58/56 27/82/79
f 18/72/70 56/53/51 62/56/54 23/73/71
f 121/85/82 20/48/46 58/47/45 122/86/83
f 37/9/9 82/26/26 63/50/48 83/68/66
f 55/69/67 54/52/50 76/87/84 61/70/68
f 34/19/19 32/42/42 66/65/63 28/88/85
f 32/42/42 70/18/18 85/66/64 66/65/63
f 52/67/65 15/61/59 77/64/62 74/84/81
f 51/51/49 14/45/43 20/48/46 59/89/86
f 35/25/25 87/39/39 65/76/74 29/59/57
f 31/38/38 73/41/41 88/90/80 25/75/73
f 19/78/76 57/91/69 75/92/72 24/79/77
f 54/52/50 51/51/49 59/89/86 76/87/84
f 85/66/64 64/60/58 15/61/59 52/67/65
f 74/84/81 77/64/62 118/93/87 117/94/88
f 80/95/89 59/89/86 20/48/46 121/85/82
f 65/76/74 25/75/73 19/78/76 53/77/75
f 88/83/80 27/82/79 18/72/70 57/71/69
f 76/87/84 59/89/86 80/95/89 79/96/90
f 30/57/55 83/68/66 55/69/67 17/54/52
f 22/55/53 61/70/68 125/97/91 124/98/92
f 77/64/62 21/63/61 123/99/93 118/93/87
f 27/82/79 86/58/56 56/53/51 18/72/70
f 23/73/71 62/56/54 78/100/94 126/101/95
f 64/60/58 29/59/57 16/62/60 15/61/59
f 29/59/57 65/76/74 53/77/75 16/62/60
f 81/102/96 60/80/78 24/79/77 120/103/97
f 21/63/61 60/80/78 81/102/96 123/99/93
f 28/88/85 66/65/63 50/46/44 14/45/43
f 25/75/73 88/90/80 57/91/69 19/78/76
f 86/58/56 30/57/55 17/54/52 56/53/51
f 120/103/97 24/79/77 75/92/72 119/104/98
f 83/68/66 63/50/48 54/52/50 55/69/67
f 26/49/47 28/88/85 14/45/43 51/51/49
f 61/70/68 76/87/84 79/96/90 125/97/91
f 75/74/72 23/73/71 126/101/95 119/105/98
f 93/106/99 111/107/100 103/108/101 97/109/102
f 62/56/54 22/55/53 124/98/92 78/100/94
f 94/110/103 96/111/104 105/112/105 113/113/106
f 103/108/101 104/114/107 98/115/108 97/109/102
f 58/47/45 74/84/81 117/94/88 122/86/83
f 114/116/109 106/117/110 100/118/111 89/119/112
f 106/117/110 108/120/113 101/121/114 100/118/111
f 5/24/24 67/37/37 87/39/39 35/25/25
f 72/20/20 34/19/19 28/88/85 26/49/47
f 68/13/13 69/15/15 70/18/18 32/42/42
f 44/44/29 7/34/34 33/36/36 73/81/41
f 41/8/8 40/7/7 72/20/20 82/26/26
f 70/18/18 84/17/17 64/60/58 85/66/64
f 43/33/33 6/4/4 36/10/10 71/35/35
f 95/122/115 112/123/116 105/112/105 96/111/104
f 92/124/117 110/125/118 111/107/100 93/106/99
f 91/126/119 116/127/120 107/128/121 99/129/122
f 113/130/106 109/131/123 102/132/124 94/133/103
f 117/94/88 118/93/87 90/134/125 89/119/112
f 118/93/87 123/99/93 99/129/122 90/134/125
f 123/99/93 81/102/96 91/126/119 99/129/122
f 125/97/91 79/96/90 93/106/99 97/109/102
f 126/101/95 78/100/94 95/122/115 96/111/104
f 119/105/98 126/101/95 96/111/104 94/110/103
f 125/97/91 97/109/102 98/115/108 124/98/92
f 98/115/108 95/122/115 78/100/94 124/98/92
f 92/124/117 93/106/99 79/96/90 80/95/89
f 117/94/88 89/119/112 100/118/111 122/86/83
f 101/121/114 121/85/82 122/86/83 100/118/111
f 91/126/119 81/102/96 120/103/97 102/132/124
f 98/115/108 104/114/107 112/123/116 95/122/115
f 89/119/112 90/134/125 115/135/126 114/116/109
f 90/134/125 99/129/122 107/128/121 115/135/126
f 102/132/124 109/131/123 116/127/120 91/126/119
f 101/121/114 108/120/113 110/125/118 92/124/117
f 119/104/98 94/133/103 102/132/124 120/103/97
f 92/124/117 80/95/89 121/85/82 101/121/114
f 2/1/1 38/32/32 1/31/31 39/43/28 9/27/27 48/40/40 10/23/23 47/22/22 46/21/21 12/12/12 11/11/11 45/6/6 49/5/5 13/2/2
f 111/107/100 110/125/118 108/120/113 106/117/110 114/116/109 115/135/126 107/128/121 116/127/120 109/131/123 113/130/106 105/112/105 112/123/116 104/114/107 103/108/101
