# Blender v2.91.0 OBJ File: ''
# www.blender.org
mtllib mollet_gauche.mtl
o Soi_SimpleArmor.001_Plane.001
v 0.178798 0.190242 -0.054295
v 0.139803 0.191301 -0.119829
v 0.212462 0.196399 -0.101194
v 0.207221 0.196816 -0.121527
v 0.186402 0.195513 -0.139384
v 0.158554 0.193237 -0.139107
v 0.162039 0.390977 -0.030843
v 0.101506 0.388299 -0.090315
v 0.103404 0.394295 -0.119502
v 0.200380 0.410164 -0.121928
v 0.171082 0.409530 -0.148025
v 0.130801 0.403329 -0.147820
v 0.159462 0.534486 -0.135195
v 0.109278 0.527996 -0.135593
v 0.197753 0.500909 -0.095784
v 0.082918 0.481964 -0.095632
v 0.154922 0.463682 -0.005094
v 0.086742 0.465283 -0.067724
v 0.180787 0.470542 -0.017803
v 0.180943 0.298269 -0.148550
v 0.171624 0.290820 -0.046355
v 0.125461 0.289764 -0.123264
v 0.206481 0.301299 -0.127100
v 0.212760 0.301171 -0.101919
v 0.147217 0.293495 -0.146840
v 0.148365 0.288262 -0.054810
v 0.182339 0.121226 -0.054096
v 0.149608 0.123435 -0.090398
v 0.197809 0.121768 -0.061814
v 0.206455 0.121314 -0.110816
v 0.186668 0.123074 -0.129198
v 0.159720 0.123274 -0.128762
v 0.190947 0.349219 -0.050036
v 0.139243 0.347760 -0.149479
v 0.112799 0.339859 -0.096060
v 0.203655 0.356334 -0.127052
v 0.114914 0.342439 -0.123439
v 0.166782 0.343383 -0.039929
v 0.175997 0.353297 -0.150751
v 0.166799 0.468692 -0.140118
v 0.121988 0.460613 -0.139679
v 0.198293 0.461056 -0.109754
v 0.092411 0.443475 -0.108960
v 0.158156 0.430642 -0.018335
v 0.129558 0.426408 -0.027215
v 0.205470 0.451951 -0.082901
v 0.184481 0.244119 -0.144356
v 0.175719 0.237745 -0.051291
v 0.133725 0.237760 -0.122085
v 0.207441 0.246468 -0.125071
v 0.213208 0.245997 -0.102513
v 0.154035 0.240499 -0.143256
v 0.153901 0.236110 -0.058660
v 0.206829 0.156306 -0.116561
v 0.144216 0.154217 -0.115931
v 0.180853 0.152717 -0.054891
v 0.186915 0.156428 -0.134289
v 0.198230 0.154054 -0.063404
v 0.160025 0.155424 -0.134167
v 0.143464 0.154030 -0.094793
v 0.158272 0.189455 -0.060197
v 0.198036 0.192397 -0.063353
v 0.143355 0.189778 -0.076166
v 0.137493 0.190501 -0.097953
v 0.147544 0.192126 -0.131148
v 0.210087 0.194742 -0.080369
v 0.198286 0.196278 -0.131956
v 0.172348 0.194456 -0.141315
v 0.134170 0.386711 -0.039800
v 0.187367 0.398068 -0.041853
v 0.111836 0.385509 -0.061480
v 0.114220 0.399122 -0.135652
v 0.204067 0.404710 -0.064958
v 0.207730 0.407866 -0.094178
v 0.187896 0.410730 -0.136628
v 0.151099 0.406710 -0.151803
v 0.183906 0.536056 -0.111032
v 0.134908 0.531788 -0.141958
v 0.126683 0.459367 -0.013963
v 0.102284 0.458848 -0.037219
v 0.085365 0.519149 -0.110258
v 0.198626 0.477692 -0.042165
v 0.203434 0.486023 -0.070742
v 0.209443 0.299041 -0.076264
v 0.194287 0.295081 -0.055821
v 0.131201 0.287617 -0.073791
v 0.163837 0.295950 -0.150329
v 0.134151 0.291357 -0.136890
v 0.123671 0.288357 -0.098295
v 0.195580 0.300072 -0.139943
v 0.166691 0.122302 -0.056909
v 0.151672 0.122727 -0.121183
v 0.207844 0.122627 -0.074325
v 0.198550 0.122011 -0.121550
v 0.172437 0.123616 -0.131030
v 0.207020 0.354489 -0.071984
v 0.196724 0.240802 -0.060535
v 0.141113 0.339784 -0.048844
v 0.138035 0.235986 -0.076176
v 0.157480 0.350682 -0.153237
v 0.142028 0.238928 -0.134422
v 0.210558 0.356459 -0.099952
v 0.131493 0.236698 -0.098988
v 0.191827 0.355177 -0.140983
v 0.185384 0.467640 -0.125259
v 0.144944 0.464935 -0.144977
v 0.102986 0.454087 -0.125384
v 0.184099 0.438002 -0.030248
v 0.105690 0.425837 -0.049818
v 0.201486 0.445538 -0.053974
v 0.092727 0.431217 -0.079710
v 0.210372 0.243843 -0.079372
v 0.121431 0.338622 -0.069267
v 0.169096 0.242342 -0.146088
v 0.124647 0.344904 -0.138474
v 0.197582 0.245520 -0.136532
v 0.198507 0.156340 -0.126861
v 0.211357 0.156285 -0.097162
v 0.150359 0.154632 -0.126551
v 0.162474 0.152838 -0.059249
v 0.173111 0.156155 -0.136243
v 0.209127 0.155680 -0.078262
v 0.149188 0.153549 -0.073503
v 0.204175 0.197042 -0.119939
v 0.209032 0.196512 -0.100917
v 0.143013 0.191812 -0.118694
v 0.178459 0.190263 -0.057721
v 0.185207 0.195918 -0.136181
v 0.159807 0.193711 -0.135936
v 0.147763 0.122766 -0.111059
v 0.203742 0.156557 -0.115058
v 0.147496 0.154728 -0.115016
v 0.180470 0.152660 -0.058312
v 0.185733 0.156880 -0.131087
v 0.196028 0.153980 -0.066049
v 0.161368 0.155925 -0.131037
v 0.146845 0.154542 -0.095197
v 0.160089 0.189611 -0.063117
v 0.195784 0.192375 -0.065957
v 0.146392 0.190150 -0.077744
v 0.140890 0.190994 -0.098220
v 0.150002 0.192608 -0.128786
v 0.206845 0.194763 -0.081531
v 0.196029 0.196601 -0.129376
v 0.172334 0.194907 -0.137902
v 0.155527 0.123366 -0.069332
v 0.210147 0.121875 -0.091535
v 0.196226 0.156703 -0.124308
v 0.207922 0.156406 -0.096971
v 0.152939 0.155116 -0.124324
v 0.164228 0.152941 -0.062210
v 0.173130 0.156652 -0.132836
v 0.205922 0.155682 -0.079520
v 0.152193 0.153927 -0.075142
v 0.167954 0.121086 -0.059772
v 0.181874 0.119970 -0.057131
v 0.185671 0.122661 -0.126161
v 0.196385 0.121617 -0.119232
v 0.203541 0.120875 -0.109657
v 0.150843 0.122140 -0.110490
v 0.154401 0.122128 -0.119299
v 0.161403 0.122741 -0.125879
v 0.172747 0.123147 -0.127794
v 0.207036 0.121223 -0.091641
v 0.205018 0.121659 -0.075694
v 0.157879 0.122429 -0.071116
v 0.195887 0.120610 -0.064220
v 0.152400 0.122726 -0.090984
v 0.149337 0.121515 -0.110686
v 0.208625 0.120611 -0.091499
v 0.156737 0.121960 -0.070135
v 0.182141 0.119660 -0.055525
v 0.186203 0.121929 -0.127590
v 0.196882 0.120251 -0.062928
v 0.167356 0.120756 -0.058252
v 0.197501 0.120876 -0.120302
v 0.205032 0.120157 -0.110148
v 0.153071 0.121490 -0.120153
v 0.160595 0.122070 -0.127232
v 0.172626 0.122443 -0.129323
v 0.206465 0.121205 -0.074921
v 0.151038 0.122143 -0.090602
v 0.173861 0.228942 -0.101233
vt 1.344806 0.538290
vt 1.349487 0.552933
vt 1.381572 0.545502
vt 1.376143 0.529513
vt 1.418463 0.575103
vt 1.444329 0.568695
vt 1.439833 0.550760
vt 1.415644 0.556807
vt 1.329231 0.493770
vt 1.334737 0.508672
vt 1.363994 0.496631
vt 1.357700 0.480279
vt 1.391070 0.485799
vt 1.414987 0.478165
vt 1.409545 0.458480
vt 1.384696 0.467819
vt 1.410750 0.538872
vt 1.434723 0.532513
vt 1.428996 0.514897
vt 1.404833 0.521605
vt 1.305265 0.520099
vt 1.309445 0.533974
vt 1.339857 0.523705
vt 1.356456 0.583916
vt 1.358279 0.599713
vt 1.389937 0.596841
vt 1.388499 0.579671
vt 1.327460 0.630954
vt 1.358827 0.631066
vt 1.359026 0.620473
vt 1.327632 0.621438
vt 1.391008 0.630980
vt 1.424214 0.629284
vt 1.423702 0.616762
vt 1.390938 0.619465
vt 1.346414 0.454629
vt 1.351130 0.464614
vt 1.378938 0.450401
vt 1.374602 0.438989
vt 1.317674 0.561037
vt 1.321460 0.574842
vt 1.353553 0.568246
vt 1.386032 0.562282
vt 1.421062 0.592691
vt 1.450847 0.585550
vt 1.323290 0.479505
vt 1.406923 0.438924
vt 1.370186 0.513315
vt 1.398073 0.504051
vt 1.458123 0.611113
vt 1.455995 0.597197
vt 1.422703 0.604387
vt 1.291801 0.484782
vt 1.295459 0.493099
vt 1.319087 0.470485
vt 1.405318 0.425257
vt 1.400143 0.411223
vt 1.369272 0.427421
vt 1.390543 0.608045
vt 1.358807 0.610037
vt 1.422128 0.497253
vt 1.287984 0.476525
vt 1.314636 0.461418
vt 1.309730 0.452227
vt 1.283803 0.468163
vt 1.326752 0.602835
vt 1.327366 0.612076
vt 1.393766 0.398246
vt 1.363421 0.416159
vt 1.341322 0.444582
vt 1.335774 0.434571
vt 1.458871 0.625113
vt 1.493126 0.585288
vt 1.474210 0.576733
vt 1.431996 0.396652
vt 1.424170 0.382505
vt 1.442299 0.414839
vt 1.430153 0.452770
vt 1.430545 0.432720
vt 1.492671 0.621705
vt 1.492404 0.606017
vt 1.454201 0.526308
vt 1.449096 0.509136
vt 1.458853 0.544394
vt 1.464384 0.561670
vt 1.442335 0.492357
vt 1.435095 0.473333
vt 1.261868 0.550924
vt 1.244843 0.557734
vt 1.246087 0.566872
vt 1.264176 0.562045
vt 1.260007 0.482091
vt 1.241032 0.494348
vt 1.244860 0.501405
vt 1.263834 0.489661
vt 1.299342 0.622545
vt 1.276380 0.623576
vt 1.276733 0.632074
vt 1.299394 0.631233
vt 1.247946 0.508189
vt 1.267228 0.497166
vt 1.298056 0.605633
vt 1.274344 0.607271
vt 1.275431 0.615246
vt 1.298831 0.613989
vt 1.270501 0.504809
vt 1.250898 0.514981
vt 1.255470 0.526856
vt 1.275182 0.517285
vt 1.300616 0.506320
vt 1.279264 0.530351
vt 1.282599 0.543227
vt 1.324611 0.588776
vt 1.295919 0.593024
vt 1.272422 0.595342
vt 1.259389 0.539490
vt 1.313568 0.547497
vt 1.285891 0.555834
vt 1.292953 0.580596
vt 1.270102 0.584067
vt 1.255052 0.615875
vt 1.256572 0.624382
vt 1.253544 0.607907
vt 1.231891 0.518666
vt 1.234578 0.524601
vt 1.229110 0.512589
vt 1.289488 0.568327
vt 1.225186 0.505827
vt 1.257324 0.633117
vt 1.250556 0.585880
vt 1.251941 0.596157
vt 1.243184 0.548204
vt 1.267170 0.573321
vt 1.248340 0.576699
vt 1.239249 0.536019
vt 1.245881 0.557319
vt 1.247190 0.566578
vt 1.260007 0.482091
vt 1.263834 0.489661
vt 1.244860 0.501405
vt 1.241032 0.494348
vt 1.299342 0.622545
vt 1.299394 0.631233
vt 1.276733 0.632074
vt 1.276380 0.623576
vt 1.267228 0.497166
vt 1.247946 0.508189
vt 1.298056 0.605633
vt 1.298831 0.613989
vt 1.275431 0.615246
vt 1.274344 0.607271
vt 1.270501 0.504809
vt 1.275182 0.517285
vt 1.255470 0.526856
vt 1.250898 0.514981
vt 1.295919 0.593024
vt 1.272422 0.595342
vt 1.279264 0.530351
vt 1.259389 0.539490
vt 1.282599 0.543227
vt 1.261868 0.550924
vt 1.292953 0.580596
vt 1.270102 0.584067
vt 1.256295 0.615837
vt 1.257780 0.624333
vt 1.254812 0.607868
vt 1.232870 0.518027
vt 1.235573 0.524015
vt 1.230070 0.511907
vt 1.226061 0.504984
vt 1.225003 0.505540
vt 1.258508 0.633053
vt 1.251748 0.585769
vt 1.253190 0.596108
vt 1.244172 0.547673
vt 1.285891 0.555834
vt 1.289488 0.568327
vt 1.267170 0.573321
vt 1.264176 0.562045
vt 1.249489 0.576494
vt 1.240238 0.535461
vt 1.241227 0.534902
vt 1.236568 0.523428
vt 1.256081 0.607829
vt 1.254439 0.596058
vt 1.252940 0.585659
vt 1.250637 0.576287
vt 1.245160 0.547142
vt 1.248293 0.566283
vt 1.246919 0.556904
vt 1.259691 0.632989
vt 1.258988 0.624284
vt 1.231031 0.511225
vt 1.227119 0.504427
vt 1.233849 0.517388
vt 1.257538 0.615798
vt 1.298056 0.605633
vt 1.275182 0.517285
vt 1.285891 0.555834
vt 1.299342 0.622545
vt 1.289488 0.568327
vt 1.279264 0.530351
vt 1.282599 0.543227
vt 1.295919 0.593024
vt 1.298831 0.613989
vt 1.263834 0.489661
vt 1.260007 0.482091
vt 1.270501 0.504809
vt 1.292953 0.580596
vt 1.267228 0.497166
vn 0.0461 -0.1041 0.9935
vn 0.6268 -0.0418 0.7781
vn 0.6334 -0.0641 0.7711
vn 0.0602 -0.1505 0.9868
vn 0.9958 0.0644 -0.0644
vn 0.9971 0.0632 -0.0417
vn 0.9325 -0.0474 0.3582
vn 0.9346 -0.0177 0.3552
vn -0.9790 -0.1793 0.0971
vn -0.8554 -0.1710 0.4890
vn -0.8372 -0.2271 0.4976
vn -0.9708 -0.2197 0.0964
vn -0.8189 -0.2655 0.5089
vn -0.7982 -0.2905 0.5277
vn -0.9632 -0.2290 0.1410
vn -0.9681 -0.2282 0.1035
vn 0.6510 -0.1246 0.7488
vn 0.6632 -0.1878 0.7245
vn 0.1235 -0.3215 0.9388
vn 0.0929 -0.2355 0.9674
vn -0.8682 -0.1217 0.4811
vn -0.5393 -0.1014 0.8360
vn -0.5365 -0.1473 0.8310
vn 0.9978 0.0258 -0.0608
vn 0.8877 0.0225 -0.4599
vn 0.8833 0.0713 -0.4634
vn 0.9965 0.0527 -0.0641
vn -0.0229 -0.0905 -0.9956
vn -0.0335 -0.0680 -0.9971
vn 0.3246 -0.0304 -0.9454
vn 0.3291 -0.0671 -0.9419
vn -0.0287 -0.0138 -0.9995
vn -0.0237 0.0733 -0.9970
vn 0.3698 0.1160 -0.9218
vn 0.3375 0.0333 -0.9407
vn -0.7087 -0.1236 -0.6946
vn -0.9217 -0.1815 -0.3428
vn -0.9239 -0.1518 -0.3512
vn -0.7122 -0.0583 -0.6995
vn 0.6336 -0.0325 0.7730
vn 0.9322 -0.0087 0.3618
vn 0.9296 0.0036 0.3686
vn 0.9312 0.0072 0.3645
vn 0.8832 0.1183 -0.4537
vn 0.9037 0.1349 -0.4065
vn -0.9275 -0.1710 -0.3325
vn -0.9390 -0.1369 -0.3156
vn -0.5139 -0.2045 0.8331
vn -0.4835 -0.2756 0.8309
vn 0.4329 0.1387 -0.8907
vn 0.7253 0.1593 -0.6698
vn 0.6676 0.1354 -0.7321
vn -0.7074 -0.1353 -0.6937
vn -0.9288 -0.1462 -0.3406
vn -0.7113 -0.1430 -0.6882
vn -0.7486 -0.0443 -0.6616
vn -0.4460 0.0212 -0.8948
vn -0.4094 0.0147 -0.9122
vn 0.6479 0.0650 -0.7589
vn 0.6456 0.0026 -0.7637
vn -0.4585 -0.3404 0.8209
vn -0.3824 -0.1153 -0.9168
vn -0.3934 -0.1077 -0.9130
vn 0.8872 -0.0185 -0.4611
vn 0.6474 -0.0413 -0.7611
vn -0.0106 0.0861 -0.9962
vn -0.3971 -0.0680 -0.9153
vn 0.5052 0.8531 -0.1302
vn 0.7464 0.6640 -0.0447
vn -0.5747 0.7054 -0.4148
vn -0.1338 0.8111 -0.5694
vn -0.7423 0.6575 -0.1292
vn -0.8260 0.3414 0.4486
vn -0.9193 0.3934 0.0140
vn 0.3379 0.8408 -0.4229
vn 0.3729 0.3853 0.8441
vn 0.0198 0.2636 0.9644
vn 0.5977 0.5026 0.6246
vn 0.7244 0.6087 0.3236
vn -0.3763 0.2595 0.8894
vn -0.6346 0.3004 0.7120
vn -0.5094 -0.0299 0.8600
vn -0.4574 -0.0072 0.8892
vn 0.1379 0.0380 0.9897
vn 0.1115 0.0165 0.9936
vn -0.0060 -0.1154 -0.9933
vn -0.0057 -0.1443 -0.9895
vn -0.3901 -0.1456 -0.9092
vn -0.3730 -0.1279 -0.9190
vn 0.3416 -0.0996 -0.9346
vn 0.3432 -0.1313 -0.9300
vn -0.7493 -0.1407 -0.6471
vn -0.7111 -0.1360 -0.6898
vn 0.8876 -0.0505 -0.4578
vn 0.8967 -0.0729 -0.4366
vn 0.6625 -0.1054 -0.7416
vn 0.6535 -0.0765 -0.7531
vn -0.9318 -0.1429 -0.3337
vn -0.9525 -0.1484 -0.2658
vn -0.9819 -0.1486 0.1172
vn -0.9875 -0.1340 0.0828
vn -0.9866 -0.1384 0.0861
vn -0.8734 -0.1055 0.4755
vn -0.5267 -0.0630 0.8477
vn 0.9978 -0.0035 -0.0658
vn 0.9973 -0.0241 -0.0693
vn 0.9978 -0.0352 -0.0555
vn -0.8727 -0.1096 0.4759
vn 0.0562 -0.0726 0.9958
vn 0.0819 -0.0309 0.9962
vn 0.9348 -0.0094 0.3550
vn 0.9309 -0.0005 0.3652
vn 0.6821 -0.1158 -0.7221
vn 0.3513 -0.1452 -0.9249
vn 0.9138 -0.0784 -0.3985
vn -0.7920 -0.1409 -0.5940
vn -0.9700 -0.1489 -0.1919
vn -0.4308 -0.1521 -0.8895
vn 0.6425 -0.0098 0.7662
vn -0.0152 -0.1580 -0.9873
vn 0.9167 0.0081 0.3995
vn 0.9989 -0.0366 -0.0285
vn -0.8531 -0.1027 0.5116
vn 0.6396 0.0216 0.7684
vn 0.6236 0.0371 0.7809
vn -0.9753 -0.1561 0.1562
vn -0.2375 -0.9240 0.2995
vn 0.0374 -0.9283 0.3700
vn 0.0869 -0.6943 0.7145
vn -0.3887 -0.6990 0.6003
vn 0.0390 -0.3282 0.9438
vn 0.3907 -0.3118 0.8661
vn 0.3890 0.1417 0.9103
vn 0.0042 0.1395 0.9902
vn -0.2971 -0.3367 0.8935
vn -0.3432 0.1264 0.9307
vn 0.7059 -0.2987 0.6422
vn 0.7483 0.1367 0.6491
vn -0.8233 -0.3636 0.4358
vn -0.5982 -0.3518 0.7200
vn -0.6622 0.1003 0.7426
vn -0.8963 0.0680 0.4381
vn 0.9092 -0.2760 0.3116
vn 0.9585 -0.2701 -0.0915
vn 0.9835 0.1393 -0.1157
vn 0.9524 0.1422 0.2697
vn -0.9252 -0.3771 0.0431
vn -0.9979 0.0304 0.0566
vn 0.8341 -0.2940 -0.4668
vn 0.8742 0.0999 -0.4752
vn 0.4935 -0.3371 -0.8018
vn 0.5113 0.0239 -0.8591
vn -0.8454 -0.3889 -0.3661
vn -0.9314 -0.0038 -0.3641
vn 0.0504 -0.9881 -0.1450
vn 0.0015 -0.9870 -0.1606
vn 0.1438 -0.8240 -0.5480
vn 0.3500 -0.8173 -0.4577
vn 0.1547 -0.9847 -0.0799
vn 0.5393 -0.8047 -0.2484
vn -0.1334 -0.9843 -0.1154
vn -0.2080 -0.9781 -0.0061
vn -0.6111 -0.7879 -0.0760
vn -0.4671 -0.8152 -0.3424
vn -0.0455 -0.9811 -0.1882
vn -0.2268 -0.8250 -0.5177
vn -0.0048 -0.9903 -0.1388
vn -0.0209 -0.8194 -0.5728
vn 0.3004 -0.9460 0.1216
vn 0.2163 -0.9760 0.0250
vn 0.6448 -0.7643 0.0116
vn 0.6304 -0.7281 0.2691
vn -0.2970 -0.9476 0.1180
vn -0.6247 -0.7115 0.3217
vn -0.0553 -0.3676 -0.9283
vn -0.5565 -0.3913 -0.7330
vn -0.6411 -0.0258 -0.7670
vn -0.1120 -0.0208 -0.9935
vn 0.2464 -0.9381 0.2435
vn 0.4778 -0.6938 0.5388
vn -0.2055 -0.9774 0.0500
vn -0.6583 -0.7413 0.1310
vn 0.8475 -0.5151 -0.1283
vn 0.8202 -0.5476 0.1654
vn -0.7590 -0.5630 0.3269
vn -0.8108 -0.5835 0.0470
vn -0.6942 -0.6547 -0.2991
vn -0.4305 -0.6874 -0.5850
vn 0.6876 -0.5960 -0.4147
vn -0.1079 -0.7297 -0.6752
vn 0.2968 -0.6981 -0.6516
vn 0.0091 -0.4900 0.8717
vn -0.3332 -0.5090 0.7936
vn 0.3860 -0.5417 0.7467
vn 0.6848 -0.5462 0.4825
vn -0.6120 -0.5187 0.5970
vn 0.0512 -0.9987 -0.0038
usemtl Armour_Cloth_Battered.006
s 1
f 21/1/1 85/2/2 33/3/3 38/4/4
f 74/5/5 46/6/6 110/7/7 73/8/8
f 89/9/9 86/10/10 113/11/11 35/12/12
f 71/13/13 109/14/14 111/15/15 8/16/16
f 70/17/17 108/18/18 44/19/19 7/20/20
f 99/21/21 53/22/22 26/23/23 86/10/10
f 24/24/24 23/25/25 36/26/26 102/27/27
f 114/28/28 87/29/29 20/30/30 47/31/31
f 100/32/32 76/33/33 11/34/34 39/35/35
f 115/36/36 37/37/37 9/38/38 72/39/39
f 97/40/40 112/41/41 84/42/42 85/2/2
f 33/3/3 96/43/43 73/8/8 70/17/17
f 10/44/44 42/45/45 46/6/6 74/5/5
f 22/46/46 89/9/9 35/12/12 37/37/37
f 8/16/16 111/15/15 43/47/47 9/38/38
f 113/11/11 98/48/48 69/49/49 71/13/13
f 87/29/29 100/32/32 39/35/35 20/30/30
f 11/34/34 40/50/50 105/51/51 75/52/52
f 101/53/53 49/54/54 22/46/46 88/55/55
f 72/39/39 107/56/56 41/57/57 12/58/58
f 20/30/30 39/35/35 104/59/59 90/60/60
f 69/49/49 45/61/61 109/14/14 71/13/13
f 26/23/23 21/1/1 38/4/4 98/48/48
f 52/62/62 25/63/63 87/64/29 114/65/28
f 50/66/64 116/67/65 90/60/60 23/25/25
f 36/26/26 104/59/59 75/52/52 10/44/44
f 12/58/58 41/57/57 106/68/66 76/69/33
f 34/70/67 12/58/58 76/69/33 100/71/32
f 76/33/33 106/72/66 40/50/50 11/34/34
f 105/51/51 77/73/68 15/74/69 42/45/45
f 41/57/57 14/75/70 78/76/71 106/68/66
f 73/8/8 110/7/7 108/18/18 70/17/17
f 107/56/56 81/77/72 14/75/70 41/57/57
f 37/37/37 35/12/12 8/16/16 9/38/38
f 111/15/15 18/78/73 16/79/74 43/47/47
f 39/35/35 11/34/34 75/52/52 104/59/59
f 75/52/52 105/51/51 42/45/45 10/44/44
f 9/38/38 43/47/47 107/56/56 72/39/39
f 115/36/36 72/39/39 12/58/58 34/70/67
f 98/48/48 38/4/4 7/20/20 69/49/49
f 106/72/66 78/80/71 13/81/75 40/50/50
f 96/43/43 102/27/27 74/5/5 73/8/8
f 38/4/4 33/3/3 70/17/17 7/20/20
f 108/18/18 19/82/76 17/83/77 44/19/19
f 35/12/12 113/11/11 71/13/13 8/16/16
f 102/27/27 36/26/26 10/44/44 74/5/5
f 110/7/7 82/84/78 19/82/76 108/18/18
f 42/45/45 15/74/69 83/85/79 46/6/6
f 43/47/47 16/79/74 81/77/72 107/56/56
f 40/50/50 13/81/75 77/73/68 105/51/51
f 44/19/19 17/83/77 79/86/80 45/61/61
f 45/61/61 79/86/80 80/87/81 109/14/14
f 109/14/14 80/87/81 18/78/73 111/15/15
f 46/6/6 83/85/79 82/84/78 110/7/7
f 120/88/82 91/89/83 27/90/84 56/91/85
f 84/42/42 24/24/24 102/27/27 96/43/43
f 68/92/86 121/93/87 59/94/88 6/95/89
f 5/96/90 57/97/91 121/98/87 68/99/86
f 23/25/25 90/60/60 104/59/59 36/26/26
f 101/53/53 88/55/55 25/63/63 52/62/62
f 6/95/89 59/94/88 119/100/92 65/101/93
f 88/55/55 115/36/36 34/70/67 25/63/63
f 4/102/94 54/103/95 117/104/96 67/105/97
f 47/31/31 20/30/30 90/60/60 116/67/65
f 67/105/97 117/104/96 57/97/91 5/96/90
f 2/106/98 55/107/99 60/108/100 64/109/101
f 49/54/54 103/110/102 89/9/9 22/46/46
f 86/10/10 26/23/23 98/48/48 113/11/11
f 63/111/103 61/112/104 53/22/22 99/21/21
f 85/2/2 84/42/42 96/43/43 33/3/3
f 51/113/105 50/66/64 23/25/25 24/24/24
f 3/114/106 118/115/107 54/103/95 4/102/94
f 65/101/93 2/106/98 49/54/54 101/53/53
f 7/20/20 44/19/19 45/61/61 69/49/49
f 25/63/63 34/70/67 100/71/32 87/64/29
f 88/55/55 22/46/46 37/37/37 115/36/36
f 64/109/101 60/108/100 123/116/108 63/111/103
f 103/110/102 99/21/21 86/10/10 89/9/9
f 53/22/22 48/117/109 21/1/1 26/23/23
f 61/112/104 1/118/110 48/117/109 53/22/22
f 63/111/103 123/116/108 120/88/82 61/112/104
f 48/117/109 97/40/40 85/2/2 21/1/1
f 112/41/41 51/113/105 24/24/24 84/42/42
f 66/119/111 122/120/112 118/115/107 3/114/106
f 3/114/106 4/102/94 50/66/64 51/113/105
f 4/102/94 67/105/97 116/67/65 50/66/64
f 117/104/96 94/121/113 31/122/114 57/97/91
f 54/103/95 30/123/115 94/121/113 117/104/96
f 65/101/93 101/53/53 52/62/62 6/95/89
f 65/101/93 119/100/92 55/107/99 2/106/98
f 119/100/92 92/124/116 130/125/117 55/107/99
f 59/94/88 32/126/118 92/124/116 119/100/92
f 1/118/110 62/127/119 97/40/40 48/117/109
f 5/96/90 47/31/31 116/67/65 67/105/97
f 68/99/86 114/28/28 47/31/31 5/96/90
f 121/93/87 95/128/120 32/126/118 59/94/88
f 57/97/91 31/122/114 95/129/120 121/98/87
f 62/127/119 66/119/111 112/41/41 97/40/40
f 122/120/112 93/130/121 147/131/122 118/115/107
f 123/116/108 146/132/123 91/89/83 120/88/82
f 64/109/101 63/111/103 99/21/21 103/110/102
f 1/118/110 56/91/85 58/133/124 62/127/119
f 56/91/85 27/90/84 29/134/125 58/133/124
f 60/108/100 28/135/126 146/132/123 123/116/108
f 6/95/89 52/62/62 114/65/28 68/92/86
f 62/127/119 58/133/124 122/120/112 66/119/111
f 58/133/124 29/134/125 93/130/121 122/120/112
f 66/119/111 3/114/106 51/113/105 112/41/41
f 118/115/107 147/131/122 30/123/115 54/103/95
f 2/106/98 64/109/101 103/110/102 49/54/54
f 55/107/99 130/125/117 28/135/126 60/108/100
f 61/112/104 120/88/82 56/91/85 1/118/110
f 175/136/127 172/137/128 27/90/129 91/89/130
f 145/138/131 129/139/132 136/140/133 152/141/134
f 128/142/135 145/143/131 152/144/134 134/145/136
f 129/139/132 142/146/137 150/147/138 136/140/133
f 124/148/139 144/149/140 148/150/141 131/151/142
f 144/149/140 128/142/135 134/145/136 148/150/141
f 126/152/143 141/153/144 137/154/145 132/155/146
f 125/156/147 124/148/139 131/151/142 149/157/148
f 141/153/144 140/158/149 154/159/150 137/154/145
f 140/158/149 138/160/151 151/161/152 154/159/150
f 143/162/153 125/156/147 149/157/148 153/163/154
f 176/164/155 173/165/156 31/122/157 94/121/158
f 177/166/159 176/164/155 94/121/158 30/123/160
f 142/146/137 126/152/143 132/155/146 150/147/138
f 178/167/161 169/168/162 130/125/163 92/124/164
f 179/169/165 178/167/161 92/124/164 32/126/166
f 180/170/167 179/169/165 32/126/166 95/171/168
f 173/165/156 180/172/167 95/129/168 31/122/157
f 181/173/169 170/174/170 147/131/171 93/130/172
f 171/175/173 175/136/127 91/89/130 146/132/174
f 127/176/175 139/177/176 135/178/177 133/179/178
f 172/137/128 174/180/179 29/134/180 27/90/129
f 182/181/181 171/175/173 146/132/174 28/135/182
f 139/177/176 143/162/153 153/163/154 135/178/177
f 174/180/179 181/173/169 93/130/172 29/134/180
f 170/174/170 177/166/159 30/123/160 147/131/171
f 169/168/162 182/181/181 28/135/182 130/125/163
f 138/160/151 127/176/175 133/179/178 151/161/152
f 132/155/146 137/154/145 168/182/183 160/183/184
f 149/157/148 131/151/142 159/184/185 164/185/186
f 135/178/177 153/163/154 165/186/187 167/187/188
f 137/154/145 154/159/150 166/188/189 168/182/183
f 133/179/178 135/178/177 167/187/188 156/189/190
f 154/159/150 151/161/152 155/190/191 166/188/189
f 153/163/154 149/157/148 164/185/186 165/186/187
f 134/145/136 152/144/134 163/191/192 157/192/193
f 152/141/134 136/140/133 162/193/194 163/194/192
f 136/140/133 150/147/138 161/195/195 162/193/194
f 150/147/138 132/155/146 160/183/184 161/195/195
f 131/151/142 148/150/141 158/196/196 159/184/185
f 148/150/141 134/145/136 157/192/193 158/196/196
f 151/161/152 133/179/178 156/189/190 155/190/191
f 160/183/184 168/182/183 182/181/181 169/168/162
f 164/185/186 159/184/185 177/166/159 170/174/170
f 167/187/188 165/186/187 181/173/169 174/180/179
f 168/182/183 166/188/189 171/175/173 182/181/181
f 156/189/190 167/187/188 174/180/179 172/137/128
f 166/188/189 155/190/191 175/136/127 171/175/173
f 165/186/187 164/185/186 170/174/170 181/173/169
f 157/192/193 163/191/192 180/172/167 173/165/156
f 163/194/192 162/193/194 179/169/165 180/170/167
f 162/193/194 161/195/195 178/167/161 179/169/165
f 161/195/195 160/183/184 169/168/162 178/167/161
f 159/184/185 158/196/196 176/164/155 177/166/159
f 158/196/196 157/192/193 173/165/156 176/164/155
f 155/190/191 156/189/190 172/137/128 175/136/127
f 124/148/139 183/197/197 144/149/140
f 141/153/144 183/198/197 140/158/149
f 127/176/175 183/199/197 139/177/176
f 128/142/135 183/200/197 145/143/131
f 139/177/176 183/201/197 143/162/153
f 140/158/149 183/202/197 138/160/151
f 138/160/151 183/203/197 127/176/175
f 125/156/147 183/204/197 124/148/139
f 144/149/140 183/205/197 128/142/135
f 129/139/132 183/206/197 142/146/137
f 145/138/131 183/207/197 129/139/132
f 126/152/143 183/208/197 141/153/144
f 143/162/153 183/209/197 125/156/147
f 142/146/137 183/210/197 126/152/143
f 15/74/69 77/73/68 13/81/75 78/76/71 14/75/70 81/77/72 16/79/74 18/78/73 80/87/81 79/86/80 17/83/77 19/82/76 82/84/78 83/85/79
