# Blender v2.91.0 OBJ File: ''
# www.blender.org
mtllib tete.mtl
o Soi_SimpleArmor_Hood_Plane.392
v -0.027009 1.795140 0.063310
v -0.053944 1.777196 0.059439
v -0.071889 1.737187 0.054945
v -0.076573 1.694097 0.047198
v -0.069406 1.657387 0.045517
v -0.037048 1.586162 0.053406
v -0.019498 1.574472 0.062085
v -0.035626 1.808295 0.037206
v -0.063818 1.790183 0.030717
v -0.081952 1.755410 0.025984
v -0.043733 1.816394 -0.000747
v -0.070884 1.793382 -0.001458
v -0.085613 1.761877 -0.003747
v -0.057137 1.585096 0.030623
v -0.085957 1.708571 0.017863
v -0.081445 1.671875 0.013317
v -0.072713 1.615487 0.016169
v -0.070985 1.592970 0.010489
v -0.090198 1.714852 -0.010632
v -0.086023 1.678049 -0.015103
v -0.080428 1.634158 -0.017536
v -0.080192 1.608228 -0.021203
v -0.040510 1.812833 -0.063678
v -0.062684 1.792490 -0.059522
v -0.038513 1.798192 -0.088717
v -0.063181 1.779998 -0.070692
v -0.042827 1.817645 -0.036516
v -0.068119 1.792586 -0.035402
v -0.080926 1.767266 -0.037159
v -0.087870 1.720542 -0.043439
v -0.084742 1.683141 -0.047993
v -0.081405 1.639430 -0.050541
v -0.083430 1.613907 -0.054129
v -0.069133 1.728456 -0.081219
v -0.066723 1.690197 -0.085788
v -0.067299 1.646361 -0.089620
v -0.072446 1.621662 -0.094585
v -0.035466 1.738126 -0.108544
v -0.031103 1.698199 -0.110426
v -0.031887 1.653175 -0.114055
v -0.037701 1.628490 -0.119714
v -0.088448 1.595901 -0.107452
v -0.046852 1.599831 -0.133824
v -0.062205 1.627015 0.046883
v -0.050142 1.602881 0.050482
v 0.027009 1.795140 0.063310
v 0.000000 1.800599 0.063461
v 0.053944 1.777196 0.059439
v 0.071889 1.737187 0.054945
v 0.076573 1.694097 0.047198
v 0.069406 1.657387 0.045517
v 0.037048 1.586162 0.053406
v 0.019498 1.574472 0.062085
v 0.000000 1.573826 0.066176
v 0.035626 1.808295 0.037206
v 0.000000 1.812505 0.039858
v 0.063818 1.790183 0.030717
v 0.081952 1.755410 0.025984
v 0.043733 1.816394 -0.000747
v 0.000000 1.825943 -0.003465
v 0.070884 1.793382 -0.001458
v 0.085613 1.761877 -0.003747
v 0.040945 1.573318 0.038289
v 0.057137 1.585096 0.030623
v 0.085957 1.708571 0.017863
v 0.081445 1.671875 0.013317
v 0.072713 1.615487 0.016169
v 0.070985 1.592970 0.010489
v 0.090198 1.714852 -0.010632
v 0.086023 1.678049 -0.015103
v 0.080428 1.634158 -0.017536
v 0.080192 1.608228 -0.021203
v 0.040510 1.812833 -0.063678
v 0.000000 1.822230 -0.070631
v 0.062684 1.792490 -0.059522
v 0.038513 1.798192 -0.088717
v 0.000000 1.800763 -0.102315
v 0.063181 1.779998 -0.070692
v 0.042827 1.817645 -0.036516
v 0.068119 1.792586 -0.035402
v 0.000000 1.828897 -0.040752
v 0.080926 1.767266 -0.037159
v 0.087870 1.720542 -0.043439
v 0.084742 1.683141 -0.047993
v 0.081405 1.639430 -0.050541
v 0.083430 1.613907 -0.054129
v 0.069133 1.728456 -0.081219
v 0.066723 1.690197 -0.085788
v 0.067299 1.646361 -0.089620
v 0.072446 1.621662 -0.094585
v 0.035466 1.738126 -0.108544
v 0.031103 1.698199 -0.110426
v 0.031887 1.653175 -0.114055
v 0.037701 1.628490 -0.119714
v 0.000000 1.739530 -0.115347
v 0.000000 1.699194 -0.115683
v 0.000000 1.653691 -0.118932
v 0.000000 1.629100 -0.125993
v 0.099776 1.586756 -0.052418
v 0.088448 1.595901 -0.107452
v 0.046852 1.599831 -0.133824
v 0.000000 1.599033 -0.140238
v 0.062205 1.627015 0.046883
v 0.050142 1.602881 0.050482
v -0.056635 1.615924 0.044246
v -0.054374 1.618984 0.033309
v -0.060823 1.660640 0.027529
v -0.062189 1.701474 0.026539
v -0.023543 1.785808 0.040511
v -0.019111 1.775350 0.066042
v -0.037187 1.765096 0.062054
v -0.050816 1.733655 0.059500
v -0.056209 1.692635 0.052419
v -0.055391 1.650564 0.047394
v -0.048909 1.621302 0.047537
v -0.030051 1.798639 0.031086
v -0.054120 1.784879 0.024531
v -0.069949 1.754048 0.020633
v -0.071063 1.673372 0.016724
v -0.073349 1.709321 0.014097
v -0.062087 1.619928 0.026820
v -0.058370 1.743901 0.032352
v -0.044152 1.774683 0.035284
v -0.066416 1.647590 0.040929
v -0.066469 1.738305 0.051481
v -0.049085 1.776929 0.055667
v -0.023933 1.792239 0.059734
v -0.071573 1.692770 0.043449
v -0.060066 1.738586 0.064198
v -0.061962 1.652132 0.050629
v -0.053569 1.621393 0.050441
v -0.044601 1.773412 0.067536
v -0.023014 1.786348 0.071584
v -0.065383 1.695870 0.056540
v -0.039914 1.589012 0.051696
v -0.037235 1.592379 0.041319
v -0.033150 1.597195 0.054437
v -0.044237 1.591042 0.033796
v -0.038554 1.595088 0.057886
v -0.021710 1.575696 0.056060
v -0.019191 1.578925 0.045247
v -0.013679 1.585556 0.058908
v -0.026025 1.577735 0.038218
v -0.020342 1.581781 0.062308
v 0.056635 1.615924 0.044246
v 0.000000 1.795846 0.060087
v 0.054374 1.618984 0.033309
v 0.060823 1.660640 0.027529
v 0.062189 1.701474 0.026539
v 0.000000 1.787423 0.042583
v 0.023543 1.785808 0.040511
v 0.000000 1.778557 0.066809
v 0.019111 1.775350 0.066042
v 0.037187 1.765096 0.062054
v 0.050816 1.733655 0.059500
v 0.056209 1.692635 0.052419
v 0.055391 1.650564 0.047394
v 0.048909 1.621302 0.047537
v 0.030051 1.798639 0.031086
v 0.000000 1.799498 0.034239
v 0.054120 1.784879 0.024531
v 0.069949 1.754048 0.020633
v 0.071063 1.673372 0.016724
v 0.073349 1.709321 0.014097
v 0.062087 1.619928 0.026820
v 0.058370 1.743901 0.032352
v 0.044152 1.774683 0.035284
v 0.066416 1.647590 0.040929
v 0.066469 1.738305 0.051481
v 0.049085 1.776929 0.055667
v 0.023933 1.792239 0.059734
v 0.071573 1.692770 0.043449
v 0.060066 1.738586 0.064198
v 0.061962 1.652132 0.050629
v 0.053569 1.621393 0.050441
v 0.044601 1.773412 0.067536
v 0.000000 1.789891 0.072154
v 0.023014 1.786348 0.071584
v 0.065383 1.695870 0.056540
v 0.039914 1.589012 0.051696
v 0.037235 1.592379 0.041319
v 0.033150 1.597195 0.054437
v 0.044237 1.591042 0.033796
v 0.038554 1.595088 0.057886
v 0.021710 1.575696 0.056060
v 0.019191 1.578925 0.045247
v 0.013679 1.585556 0.058908
v 0.026025 1.577735 0.038218
v 0.020342 1.581781 0.062308
v 0.000000 1.572740 0.061524
v 0.000000 1.575969 0.050711
v 0.000000 1.582601 0.064372
v 0.000000 1.574780 0.043681
v 0.000000 1.578826 0.067772
v 0.000000 1.572293 0.063741
v -0.019806 1.573588 0.060500
v -0.046550 1.577396 0.035635
v -0.039998 1.576439 0.041962
v -0.059869 1.578855 0.027603
v -0.077366 1.582221 0.002634
v -0.094074 1.591359 -0.080119
v -0.098542 1.588805 -0.052547
v -0.083126 1.583978 -0.012038
v -0.093375 1.593963 -0.106368
v -0.088458 1.594072 -0.109851
v -0.046563 1.594859 -0.138001
v 0.000000 1.593265 -0.144815
v 0.020384 1.571922 0.057518
v 0.039932 1.572861 0.038680
v 0.040794 1.572868 0.038189
v 0.062364 1.573156 0.024845
v 0.081666 1.574978 -0.002659
v 0.084154 1.575476 -0.008825
v 0.091183 1.576860 -0.026011
v 0.117221 1.578017 -0.050176
v 0.121752 1.582821 -0.100148
v 0.088517 1.586433 -0.119910
v 0.046310 1.590668 -0.141502
vt 0.919132 0.390828
vt 0.926118 0.393116
vt 0.913655 0.413189
vt 0.907592 0.408313
vt 0.942475 0.406464
vt 0.926303 0.428988
vt 0.963889 0.382292
vt 0.951947 0.416456
vt 0.953372 0.374418
vt 0.901432 0.421786
vt 0.908528 0.437915
vt 0.888505 0.440504
vt 0.888335 0.425302
vt 0.934872 0.438339
vt 0.914545 0.448620
vt 0.888619 0.450769
vt 0.952764 0.342398
vt 0.963889 0.352301
vt 0.936338 0.365593
vt 0.941258 0.310249
vt 0.948642 0.309618
vt 0.931578 0.315235
vt 0.937880 0.336078
vt 0.898200 0.415232
vt 0.888266 0.419132
vt 0.933279 0.337847
vt 0.929253 0.365813
vt 0.929147 0.317893
vt 0.901623 0.401436
vt 0.893984 0.407307
vt 0.923803 0.319887
vt 0.926032 0.335177
vt 0.920792 0.360140
vt 0.911803 0.384194
vt 0.888177 0.411121
vt 0.920431 0.293819
vt 0.927217 0.290413
vt 0.910102 0.311440
vt 0.913360 0.306372
vt 0.914262 0.302045
vt 0.899197 0.303387
vt 0.897609 0.297718
vt 0.903035 0.287364
vt 0.909633 0.283402
vt 0.898684 0.309678
vt 0.886960 0.302013
vt 0.886922 0.298604
vt 0.886807 0.288293
vt 0.886750 0.283216
vt 0.887031 0.308345
vt 0.856778 0.391574
vt 0.868705 0.408778
vt 0.862752 0.413798
vt 0.849844 0.394029
vt 0.850460 0.429895
vt 0.833790 0.407764
vt 0.811842 0.384111
vt 0.822181 0.375987
vt 0.824543 0.417980
vt 0.875163 0.422101
vt 0.868429 0.438395
vt 0.842101 0.439449
vt 0.862653 0.449241
vt 0.822075 0.343962
vt 0.811173 0.354129
vt 0.839014 0.366758
vt 0.832860 0.311546
vt 0.825464 0.311092
vt 0.842649 0.316299
vt 0.836813 0.337287
vt 0.878249 0.415471
vt 0.841453 0.338946
vt 0.846102 0.366808
vt 0.845138 0.318898
vt 0.874518 0.401761
vt 0.882286 0.407447
vt 0.850525 0.320764
vt 0.848639 0.336103
vt 0.854433 0.360934
vt 0.863957 0.384767
vt 0.846455 0.291379
vt 0.853315 0.294622
vt 0.860664 0.307002
vt 0.864034 0.311991
vt 0.859666 0.302698
vt 0.876218 0.297974
vt 0.874757 0.303679
vt 0.870563 0.287753
vt 0.863878 0.283949
vt 0.875410 0.309956
vt 0.091697 0.633796
vt 0.087350 0.623724
vt 0.088657 0.622845
vt 0.092424 0.633033
vt 0.150033 0.615117
vt 0.139711 0.634361
vt 0.121073 0.627916
vt 0.133057 0.608406
vt 0.167525 0.590169
vt 0.188016 0.574386
vt 0.191157 0.590600
vt 0.175966 0.602545
vt 0.208292 0.563259
vt 0.208719 0.582541
vt 0.232287 0.557921
vt 0.232322 0.580325
vt 0.151308 0.582466
vt 0.207105 0.547385
vt 0.232264 0.543339
vt 0.092634 0.648791
vt 0.097260 0.642115
vt 0.180694 0.559293
vt 0.111839 0.640211
vt 0.120092 0.658286
vt 0.100399 0.658836
vt 0.103330 0.645733
vt 0.111618 0.667917
vt 0.140055 0.665252
vt 0.131538 0.677658
vt 0.152675 0.644219
vt 0.161886 0.625468
vt 0.196810 0.605830
vt 0.212166 0.598654
vt 0.214812 0.611016
vt 0.202907 0.615749
vt 0.232350 0.597504
vt 0.232371 0.611209
vt 0.216115 0.624289
vt 0.201818 0.624287
vt 0.232398 0.628105
vt 0.156817 0.677595
vt 0.149223 0.690604
vt 0.174730 0.637223
vt 0.167561 0.656080
vt 0.186943 0.615597
vt 0.181642 0.689980
vt 0.175920 0.703536
vt 0.189129 0.667791
vt 0.193548 0.648661
vt 0.210457 0.695732
vt 0.205790 0.708984
vt 0.214032 0.673126
vt 0.214724 0.653820
vt 0.232508 0.697463
vt 0.232529 0.710686
vt 0.232471 0.674576
vt 0.232441 0.655150
vt 0.094351 0.653670
vt 0.098185 0.662189
vt 0.201160 0.727206
vt 0.168793 0.721171
vt 0.232558 0.729087
vt 0.165972 0.722747
vt 0.152036 0.712219
vt 0.169348 0.722933
vt 0.201804 0.730968
vt 0.232564 0.733358
vt 0.374490 0.634783
vt 0.372387 0.632590
vt 0.376121 0.622390
vt 0.377431 0.623266
vt 0.364494 0.658418
vt 0.361521 0.645325
vt 0.367579 0.641687
vt 0.373719 0.650487
vt 0.314721 0.614856
vt 0.331676 0.608092
vt 0.343721 0.627564
vt 0.325104 0.634068
vt 0.297150 0.589964
vt 0.288749 0.602367
vt 0.273520 0.590470
vt 0.276610 0.574246
vt 0.255933 0.582467
vt 0.256298 0.563183
vt 0.313344 0.582210
vt 0.257435 0.547305
vt 0.283884 0.559130
vt 0.352995 0.639829
vt 0.344799 0.657931
vt 0.353303 0.667534
vt 0.333414 0.677339
vt 0.324858 0.664959
vt 0.312171 0.643967
vt 0.302902 0.625245
vt 0.267916 0.605718
vt 0.261850 0.615656
vt 0.249930 0.610960
vt 0.252537 0.598590
vt 0.262965 0.624190
vt 0.248669 0.624238
vt 0.315771 0.690340
vt 0.308135 0.677356
vt 0.297324 0.655875
vt 0.290094 0.637040
vt 0.277813 0.615453
vt 0.289115 0.703357
vt 0.283349 0.689819
vt 0.275792 0.667654
vt 0.271312 0.648538
vt 0.259261 0.708899
vt 0.254553 0.695663
vt 0.250907 0.673068
vt 0.250153 0.653764
vt 0.374075 0.649940
vt 0.373971 0.650506
vt 0.296297 0.720969
vt 0.263950 0.727107
vt 0.329979 0.702838
vt 0.338025 0.710869
vt 0.345930 0.692499
vt 0.315389 0.731561
vt 0.293447 0.730114
vt 0.262785 0.734039
vt 0.353961 0.683747
vt 0.356652 0.680895
vt 0.368750 0.664820
vt 0.136123 0.702199
vt 0.116340 0.682451
vt 0.109643 0.675905
vn -0.4086 0.0047 0.9127
vn 0.8494 -0.2842 0.4447
vn 0.6569 -0.6446 0.3911
vn -0.4145 0.2286 0.8809
vn 0.8237 -0.1484 -0.5472
vn 0.6263 -0.4310 -0.6495
vn 0.7392 0.0229 -0.6731
vn 0.6669 -0.1110 -0.7368
vn 0.8714 -0.0028 -0.4905
vn 0.2477 -0.8807 0.4037
vn 0.3120 -0.6915 -0.6516
vn -0.0000 -0.7820 -0.6233
vn 0.0000 -0.9147 0.4042
vn 0.5287 -0.3003 -0.7939
vn 0.3051 -0.4712 -0.8276
vn -0.0000 -0.5622 -0.8270
vn 0.8612 0.0329 -0.5071
vn 0.7278 0.0007 -0.6858
vn 0.8891 -0.0994 0.4468
vn 0.8026 0.2073 -0.5594
vn 0.6873 0.0697 -0.7230
vn 0.8685 0.4005 0.2920
vn 0.9115 0.0926 0.4008
vn -0.2143 0.3337 0.9180
vn 0.0000 0.3777 0.9259
vn -0.3383 -0.1269 0.9324
vn -0.3988 -0.1292 0.9079
vn -0.3009 -0.0117 0.9536
vn -0.7231 0.5396 0.4312
vn -0.3379 0.8329 0.4383
vn -0.7935 -0.2686 0.5461
vn -0.8487 -0.1798 0.4974
vn -0.8914 -0.0666 0.4484
vn -0.8873 0.1579 0.4332
vn 0.0000 0.8939 0.4483
vn 0.6602 0.4984 -0.5619
vn 0.6398 0.3387 -0.6899
vn -0.6497 -0.4447 0.6166
vn -0.3180 0.0158 0.9480
vn 0.6337 0.7270 0.2644
vn -0.2531 -0.0893 0.9633
vn 0.2758 0.9492 0.1516
vn 0.3766 0.8244 -0.4225
vn 0.4898 0.6675 -0.5608
vn -0.4194 -0.6099 0.6724
vn -0.0000 -0.0412 0.9992
vn 0.0000 0.9579 0.2869
vn 0.0000 0.9213 -0.3889
vn 0.0000 0.9669 -0.2550
vn -0.0000 -0.7006 0.7136
vn 0.4086 0.0047 0.9127
vn 0.4145 0.2286 0.8809
vn -0.6569 -0.6446 0.3911
vn -0.8494 -0.2842 0.4447
vn -0.6263 -0.4310 -0.6495
vn -0.8237 -0.1484 -0.5472
vn -0.7392 0.0229 -0.6731
vn -0.8714 -0.0028 -0.4905
vn -0.6669 -0.1110 -0.7368
vn -0.2477 -0.8807 0.4037
vn -0.3120 -0.6915 -0.6516
vn -0.5287 -0.3003 -0.7939
vn -0.3051 -0.4712 -0.8276
vn -0.8612 0.0329 -0.5071
vn -0.7278 0.0007 -0.6858
vn -0.8891 -0.0994 0.4468
vn -0.8026 0.2073 -0.5594
vn -0.6873 0.0697 -0.7230
vn -0.8685 0.4005 0.2920
vn -0.9115 0.0926 0.4008
vn 0.2143 0.3337 0.9180
vn 0.3383 -0.1269 0.9324
vn 0.3988 -0.1292 0.9079
vn 0.3009 -0.0117 0.9536
vn 0.7231 0.5396 0.4312
vn 0.3379 0.8329 0.4383
vn 0.7935 -0.2686 0.5461
vn 0.8487 -0.1798 0.4974
vn 0.8914 -0.0666 0.4484
vn 0.8873 0.1579 0.4332
vn -0.6398 0.3387 -0.6899
vn -0.6602 0.4984 -0.5619
vn 0.3180 0.0158 0.9480
vn 0.6497 -0.4447 0.6166
vn -0.6337 0.7270 0.2644
vn -0.2758 0.9492 0.1516
vn 0.2531 -0.0893 0.9633
vn -0.3766 0.8244 -0.4225
vn -0.4898 0.6675 -0.5608
vn 0.4194 -0.6099 0.6724
vn -0.4653 -0.6667 0.5823
vn 0.0062 -0.8543 0.5198
vn -0.0001 -0.8542 0.5200
vn -0.3548 -0.7420 0.5688
vn -0.9752 -0.0435 0.2172
vn -0.9678 -0.1509 0.2015
vn -0.9402 -0.1617 0.2997
vn -0.9542 -0.0917 0.2847
vn -0.9248 0.2317 0.3017
vn -0.7289 0.5804 0.3631
vn -0.7924 0.6025 0.0957
vn -0.9614 0.2690 0.0584
vn -0.3736 0.8439 0.3850
vn -0.4434 0.8853 0.1405
vn 0.0000 0.9268 0.3756
vn 0.0000 0.9875 0.1578
vn -0.9060 0.1586 0.3925
vn -0.3366 0.8012 0.4947
vn 0.0000 0.8817 0.4718
vn -0.6481 -0.4736 0.5964
vn -0.6417 -0.4863 0.5931
vn -0.6955 0.5192 0.4968
vn -0.8970 -0.2131 0.3874
vn -0.9345 -0.1641 0.3159
vn -0.7432 -0.2220 0.6311
vn -0.7786 -0.3520 0.5194
vn -0.8923 0.0028 0.4514
vn -0.9921 -0.0779 0.0980
vn -0.9631 0.1454 0.2265
vn -0.9925 -0.1151 0.0415
vn -0.9995 -0.0038 0.0298
vn -0.8049 0.5778 -0.1351
vn -0.4778 0.8743 -0.0856
vn -0.4834 0.8045 -0.3452
vn -0.7722 0.5575 -0.3048
vn 0.0000 0.9965 -0.0834
vn 0.0000 0.9212 -0.3891
vn -0.4772 0.5284 -0.7022
vn -0.7887 0.3428 -0.5103
vn -0.0000 0.5598 -0.8286
vn -0.9882 0.0265 -0.1507
vn -0.9523 0.3049 -0.0145
vn -0.9661 0.0540 -0.2524
vn -0.9702 -0.0508 -0.2368
vn -0.9341 0.2876 -0.2117
vn -0.7975 0.1486 -0.5848
vn -0.7722 0.4320 -0.4660
vn -0.7718 0.0215 -0.6355
vn -0.7880 0.1002 -0.6075
vn -0.3737 0.1807 -0.9098
vn -0.3649 0.4054 -0.8382
vn -0.3838 0.0461 -0.9223
vn -0.4401 0.1309 -0.8884
vn -0.0000 0.1738 -0.9848
vn 0.0000 0.3639 -0.9314
vn 0.0000 0.0471 -0.9989
vn 0.0000 0.1374 -0.9905
vn -0.6433 -0.4107 0.6461
vn -0.7269 -0.0209 0.6864
vn -0.3286 0.5796 -0.7457
vn -0.5618 0.7175 -0.4118
vn -0.0002 0.5497 -0.8354
vn -0.3767 0.9244 -0.0602
vn -0.8204 0.5644 -0.0922
vn -0.4413 0.6524 -0.6162
vn -0.2452 0.6312 -0.7359
vn 0.0032 0.6314 -0.7754
vn 0.4699 -0.6714 0.5731
vn 0.3468 -0.7532 0.5590
vn 0.7432 -0.2237 0.6306
vn 0.7784 -0.3527 0.5193
vn 0.6346 -0.5004 0.5890
vn 0.5795 -0.3658 0.7282
vn 0.9752 -0.0435 0.2172
vn 0.9542 -0.0917 0.2847
vn 0.9402 -0.1617 0.2997
vn 0.9678 -0.1509 0.2015
vn 0.9248 0.2317 0.3017
vn 0.9614 0.2690 0.0584
vn 0.7924 0.6025 0.0957
vn 0.7289 0.5804 0.3631
vn 0.4434 0.8853 0.1405
vn 0.3736 0.8439 0.3850
vn 0.9060 0.1586 0.3925
vn 0.3366 0.8012 0.4947
vn 0.6955 0.5192 0.4968
vn 0.8970 -0.2131 0.3874
vn 0.9345 -0.1641 0.3159
vn 0.8925 0.0034 0.4510
vn 0.9622 0.1383 0.2348
vn 0.9921 -0.0779 0.0980
vn 0.9925 -0.1151 0.0415
vn 0.9995 -0.0038 0.0298
vn 0.8049 0.5778 -0.1351
vn 0.7722 0.5575 -0.3048
vn 0.4834 0.8045 -0.3452
vn 0.4778 0.8743 -0.0856
vn 0.7887 0.3428 -0.5103
vn 0.4772 0.5284 -0.7022
vn 0.9538 0.3005 -0.0086
vn 0.9882 0.0265 -0.1507
vn 0.9702 -0.0508 -0.2368
vn 0.9661 0.0540 -0.2524
vn 0.9341 0.2876 -0.2117
vn 0.7723 0.4319 -0.4659
vn 0.7975 0.1486 -0.5848
vn 0.7718 0.0215 -0.6355
vn 0.7880 0.1002 -0.6075
vn 0.3649 0.4054 -0.8382
vn 0.3737 0.1807 -0.9098
vn 0.3838 0.0461 -0.9223
vn 0.4401 0.1309 -0.8884
vn 0.5916 -0.5257 0.6113
vn 0.4935 -0.2700 0.8268
vn 0.5589 0.7247 -0.4030
vn 0.3170 0.5965 -0.7374
vn 0.6493 0.7308 0.2104
vn 0.3760 0.8972 0.2317
vn 0.8226 0.4580 0.3370
vn 0.3977 0.9170 -0.0290
vn 0.4154 0.6884 -0.5946
vn 0.2428 0.6544 -0.7161
vn 0.8888 0.2946 0.3511
vn 0.8756 0.2004 0.4395
vn 0.7340 -0.0162 0.6789
vn -0.8799 0.4641 0.1023
vn -0.8897 0.3012 0.3430
vn -0.8744 0.1969 0.4434
usemtl Armour_Cloth_Battered.012
s 1
f 129/1/1 112/2/2 111/3/3 132/4/4
f 112/2/2 122/5/5 123/6/6 111/3/3
f 120/7/7 118/8/8 122/5/5 108/9/9
f 110/10/10 109/11/11 150/12/12 152/13/13
f 122/5/5 118/8/8 117/14/14 123/6/6
f 123/6/6 117/14/14 116/15/15 109/11/11
f 109/11/11 116/15/15 160/16/16 150/12/12
f 107/17/17 119/18/18 120/7/7 108/9/9
f 108/9/9 122/5/5 112/2/2 113/19/19
f 106/20/20 121/21/21 119/18/18 107/17/17
f 115/22/22 106/20/20 107/17/17 114/23/23
f 133/24/24 110/10/10 152/13/13 177/25/25
f 130/26/26 114/23/23 113/19/19 134/27/27
f 134/27/27 113/19/19 112/2/2 129/1/1
f 131/28/28 115/22/22 114/23/23 130/26/26
f 114/23/23 107/17/17 108/9/9 113/19/19
f 132/4/4 111/3/3 110/10/10 133/24/24
f 111/3/3 123/6/6 109/11/11 110/10/10
f 126/29/29 132/4/4 133/24/24 127/30/30
f 105/31/31 131/28/28 130/26/26 124/32/32
f 128/33/33 134/27/27 129/1/1 125/34/34
f 124/32/32 130/26/26 134/27/27 128/33/33
f 127/30/30 133/24/24 177/25/25 146/35/35
f 125/34/34 129/1/1 132/4/4 126/29/29
f 121/21/21 106/20/20 136/36/36 138/37/37
f 131/28/28 105/31/31 135/38/38 139/39/39
f 106/20/20 115/22/22 137/40/40 136/36/36
f 115/22/22 131/28/28 139/39/39 137/40/40
f 137/40/40 139/39/39 144/41/41 142/42/42
f 136/36/36 137/40/40 142/42/42 141/43/43
f 138/37/37 136/36/36 141/43/43 143/44/44
f 139/39/39 135/38/38 140/45/45 144/41/41
f 142/42/42 144/41/41 194/46/46 192/47/47
f 141/43/43 142/42/42 192/47/47 191/48/48
f 143/44/44 141/43/43 191/48/48 193/49/49
f 144/41/41 140/45/45 190/50/50 194/46/46
f 173/51/51 176/52/52 154/53/53 155/54/54
f 155/54/54 154/53/53 167/55/55 166/56/56
f 164/57/57 149/58/58 166/56/56 162/59/59
f 153/60/60 152/13/13 150/12/12 151/61/61
f 166/56/56 167/55/55 161/62/62 162/59/59
f 167/55/55 151/61/61 159/63/63 161/62/62
f 151/61/61 150/12/12 160/16/16 159/63/63
f 148/64/64 149/58/58 164/57/57 163/65/65
f 149/58/58 156/66/66 155/54/54 166/56/56
f 147/67/67 148/64/64 163/65/65 165/68/68
f 158/69/69 157/70/70 148/64/64 147/67/67
f 178/71/71 177/25/25 152/13/13 153/60/60
f 174/72/72 179/73/73 156/66/66 157/70/70
f 179/73/73 173/51/51 155/54/54 156/66/66
f 175/74/74 174/72/72 157/70/70 158/69/69
f 157/70/70 156/66/66 149/58/58 148/64/64
f 176/52/52 178/71/71 153/60/60 154/53/53
f 154/53/53 153/60/60 151/61/61 167/55/55
f 170/75/75 171/76/76 178/71/71 176/52/52
f 145/77/77 168/78/78 174/72/72 175/74/74
f 172/79/79 169/80/80 173/51/51 179/73/73
f 168/78/78 172/79/79 179/73/73 174/72/72
f 171/76/76 146/35/35 177/25/25 178/71/71
f 169/80/80 170/75/75 176/52/52 173/51/51
f 165/68/68 183/81/81 181/82/82 147/67/67
f 175/74/74 184/83/83 180/84/84 145/77/77
f 147/67/67 181/82/82 182/85/85 158/69/69
f 158/69/69 182/85/85 184/83/83 175/74/74
f 182/85/85 187/86/86 189/87/87 184/83/83
f 181/82/82 186/88/88 187/86/86 182/85/85
f 183/81/81 188/89/89 186/88/88 181/82/82
f 184/83/83 189/87/87 185/90/90 180/84/84
f 187/86/86 192/47/47 194/46/46 189/87/87
f 186/88/88 191/48/48 192/47/47 187/86/86
f 188/89/89 193/49/49 191/48/48 186/88/88
f 189/87/87 194/46/46 190/50/50 185/90/90
usemtl Armour_Metal_Battered.012
f 196/91/91 195/92/92 54/93/93 7/94/94
f 15/95/95 16/96/96 5/97/97 4/98/98
f 10/99/99 9/100/100 12/101/101 13/102/102
f 9/100/100 8/103/103 11/104/104 12/101/101
f 8/103/103 56/105/105 60/106/106 11/104/104
f 15/95/95 4/98/98 3/107/107 10/99/99
f 56/105/105 8/103/103 1/108/108 47/109/109
f 198/110/110 196/91/91 7/94/94 6/111/111
f 9/100/100 10/99/99 3/107/107 2/112/112
f 44/113/113 17/114/114 14/115/115 45/116/116
f 18/117/117 17/114/114 21/118/118 22/119/119
f 17/114/114 16/96/96 20/120/120 21/118/118
f 16/96/96 15/95/95 19/121/121 20/120/120
f 19/121/121 15/95/95 10/99/99 13/102/102
f 28/122/122 27/123/123 23/124/124 24/125/125
f 27/123/123 81/126/126 74/127/127 23/124/124
f 24/125/125 23/124/124 25/128/128 26/129/129
f 23/124/124 74/127/127 77/130/130 25/128/128
f 11/104/104 60/106/106 81/126/126 27/123/123
f 12/101/101 11/104/104 27/123/123 28/122/122
f 22/119/119 21/118/118 32/131/131 33/132/132
f 20/120/120 19/121/121 30/133/133 31/134/134
f 19/121/121 13/102/102 29/135/135 30/133/133
f 21/118/118 20/120/120 31/134/134 32/131/131
f 29/135/135 13/102/102 12/101/101 28/122/122
f 29/135/135 28/122/122 24/125/125 26/129/129
f 33/132/132 32/131/131 36/136/136 37/137/137
f 32/131/131 31/134/134 35/138/138 36/136/136
f 31/134/134 30/133/133 34/139/139 35/138/138
f 34/139/139 30/133/133 29/135/135 26/129/129
f 37/137/137 36/136/136 40/140/140 41/141/141
f 36/136/136 35/138/138 39/142/142 40/140/140
f 35/138/138 34/139/139 38/143/143 39/142/142
f 41/141/141 40/140/140 97/144/144 98/145/145
f 40/140/140 39/142/142 96/146/146 97/144/144
f 39/142/142 38/143/143 95/147/147 96/146/146
f 38/143/143 34/139/139 26/129/129 25/128/128
f 95/147/147 38/143/143 25/128/128 77/130/130
f 197/148/148 14/115/115 199/149/149
f 37/137/137 41/141/141 43/150/150 42/151/151
f 41/141/141 98/145/145 102/152/152 43/150/150
f 204/153/153 201/154/154 42/151/151
f 205/155/155 204/153/153 42/151/151
f 206/156/156 205/155/155 42/151/151 43/150/150
f 207/157/157 206/156/156 43/150/150 102/152/152
f 8/103/103 9/100/100 2/112/112 1/108/108
f 5/97/97 16/96/96 17/114/114 44/113/113
f 17/114/114 18/117/117 14/115/115
f 208/158/158 53/159/159 54/160/93 195/161/92
f 64/162/160 104/163/161 52/164/162 63/165/163
f 65/166/164 50/167/165 51/168/166 66/169/167
f 58/170/168 62/171/169 61/172/170 57/173/171
f 57/173/171 61/172/170 59/174/172 55/175/173
f 55/175/173 59/174/172 60/106/106 56/105/105
f 65/166/164 58/170/168 49/176/174 50/167/165
f 56/105/105 47/109/109 46/177/175 55/175/173
f 57/173/171 48/178/176 49/176/174 58/170/168
f 103/179/177 104/163/161 64/162/160 67/180/178
f 68/181/179 72/182/180 71/183/181 67/180/178
f 67/180/178 71/183/181 70/184/182 66/169/167
f 66/169/167 70/184/182 69/185/183 65/166/164
f 69/185/183 62/171/169 58/170/168 65/166/164
f 80/186/184 75/187/185 73/188/186 79/189/187
f 79/189/187 73/188/186 74/127/127 81/126/126
f 75/187/185 78/190/188 76/191/189 73/188/186
f 73/188/186 76/191/189 77/130/130 74/127/127
f 59/174/172 79/189/187 81/126/126 60/106/106
f 61/172/170 80/186/184 79/189/187 59/174/172
f 72/182/180 86/192/190 85/193/191 71/183/181
f 70/184/182 84/194/192 83/195/193 69/185/183
f 69/185/183 83/195/193 82/196/194 62/171/169
f 71/183/181 85/193/191 84/194/192 70/184/182
f 82/196/194 80/186/184 61/172/170 62/171/169
f 82/196/194 78/190/188 75/187/185 80/186/184
f 86/192/190 90/197/195 89/198/196 85/193/191
f 85/193/191 89/198/196 88/199/197 84/194/192
f 84/194/192 88/199/197 87/200/198 83/195/193
f 87/200/198 78/190/188 82/196/194 83/195/193
f 90/197/195 94/201/199 93/202/200 89/198/196
f 89/198/196 93/202/200 92/203/201 88/199/197
f 88/199/197 92/203/201 91/204/202 87/200/198
f 94/201/199 98/145/145 97/144/144 93/202/200
f 93/202/200 97/144/144 96/146/146 92/203/201
f 92/203/201 96/146/146 95/147/147 91/204/202
f 91/204/202 76/191/189 78/190/188 87/200/198
f 95/147/147 77/130/130 76/191/189 91/204/202
f 209/205/203 210/206/204 63/165/163
f 90/197/195 100/207/205 101/208/206 94/201/199
f 94/201/199 101/208/206 102/152/152 98/145/145
f 86/192/190 99/209/207 100/207/205 90/197/195
f 215/210/208 99/209/207 214/211/209
f 216/212/210 100/207/205 99/209/207 215/210/208
f 217/213/211 100/207/205 216/212/210
f 218/214/212 101/208/206 100/207/205 217/213/211
f 207/157/157 102/152/152 101/208/206 218/214/212
f 55/175/173 46/177/175 48/178/176 57/173/171
f 51/168/166 103/179/177 67/180/178 66/169/167
f 67/180/178 64/162/160 68/181/179
f 72/182/180 213/215/213 214/211/209 99/209/207 86/192/190
f 68/181/179 212/216/214 213/215/213 72/182/180
f 64/162/160 211/217/215 212/216/214 68/181/179
f 63/165/163 210/206/204 211/217/215 64/162/160
f 63/165/163 52/164/162 53/159/159 208/158/158 209/205/203
f 22/119/119 33/132/132 202/218/216 203/219/217
f 33/132/132 37/137/137 42/151/151 201/154/154 202/218/216
f 18/117/117 22/119/119 203/219/217 200/220/218
f 14/115/115 18/117/117 200/220/218 199/149/149
f 14/115/115 197/148/148 198/110/110 6/111/111 45/116/116
